<svg xmlns="http://www.w3.org/2000/svg" width="75" height="36.78" viewBox="0 0 75 36.78">
  <g id="Group_157" data-name="Group 157" transform="translate(-51.562 -331.085)">
    <path id="Path_548" data-name="Path 548" d="M121.907,361.472c-.383.207-.623.4-1.25.689-1.132.44-3.643,1.5-4.3,1.822-.413.2-.85.338-1.27.542a9.808,9.808,0,0,1-1.1.443c-.587.2-3.422,1.654-4.228,1.608-.234-.013-.2-.928-.215-1.061-.072-.822-.029-1.658-.019-2.483.011-.942.563-.8,1.318-.883.971-.1,1.94-.212,2.913-.285,1.352-.1,2.674-.3,4.029-.39,1.13-.072,2.129-.2,3.415-.309.434-.037,1.5-.118.709.309m-67.025-23.2c-.751.043.088-.477.383-.594.732-.293,1.474-.567,2.2-.854.838-.328,1.7-.692,2.555-.961.775-.244,1.49-.6,2.273-.826a48.2,48.2,0,0,0,4.976-1.959c.717-.4.553,1.975.555,2.265,0,.47.3,1.611-.406,1.648-.247.013-1.506.215-1.858.261-.918.118-6.611.666-8.535.851-.714.069-1.43.129-2.145.169m71.59,20.018c-.035-4.275.025-8.532.035-12.817q0-3.046.011-6.093c0-1.275.07-2.539.019-3.819-.046-1.127.011-2.247-.029-3.371,0-.175.029-1.1-.249-1.108l-.575,0a12.587,12.587,0,0,0-1.758.244c-2.451.457-5.017.591-7.478.819-1.584.148-13,1.332-14.572,1.449-1.175.088-2.343.228-3.513.354-.551.059-6.565.58-8.218.8-1.238.166-7.784.832-9.824.923a28.037,28.037,0,0,0-2.977.306c-.873.135-3.82.386-4.386.432-.521.041-1.042.085-1.562.132s-1.042.1-1.562.161c-.116.013-.6,0-.779.008-.636.01-.449-1.4-.443-1.879a9.714,9.714,0,0,0-.03-1.975c-.065-.325-.469-.459-.963-.505-.69-.064-6.554.062-7.478.032-.873-.03-1.739.006-2.609.01l-1.5.006c-.21,0-.889-.1-1.006.137a6.955,6.955,0,0,0-.124,2.7c0,.465.006.928-.024,1.391-.041.606-.2.633-.747.843-.469.182-.939.359-1.4.556-.414.177-1.028.352-1.132.862.016.518-.026,1.038-.032,1.557-.018,1.621,0,7.862.024,10.13.01,1.066.126,5.183.046,6.142s.019,3.618-.013,3.956c-.035.362.072,4.346,0,5.317a8.978,8.978,0,0,0,.018,1.449c.038.464.561.435.9.4,1.425-.139,2.847-.26,4.271-.408,1.068-.121,2.813-.338,3.357-.4,1.079-.128,2.158-.231,3.237-.352,2.25-.253,4.491-.551,6.747-.762,4.514-.422,9-.773,13.52-1.125,3.919-.306,7.854-.76,11.8-1.154,1.079-.108,2.155-.274,3.235-.355.492-.037,3.028-.2,3.336-.285.2-.054,5.267-.588,5.727-.6.5-.013.939.112.972.614.059.912.027,1.793.043,2.709.006.419-.171,2.078.553,2.061l.948-.022c2.179-.051,4.332-.067,6.507-.022,1.076.022,4.839.011,5.185.011.728,0,1.436.271,1.418-.719l-.024-1.313c-.008-.443-.014-.885-.03-1.328-.019-.516-.014-1.033,0-1.549.008-.376-.135-1,.23-1.216a6.28,6.28,0,0,1,1.524-.548,3.318,3.318,0,0,0,1.152-.351c.532-.486.23-1.82.225-2.438" transform="translate(0 0)" fill="#1a1311"/>
    <path id="Path_549" data-name="Path 549" d="M118.688,342.728l.067.234.046.177.075.118.121.054a.463.463,0,0,0,.572-.282,2.025,2.025,0,0,0,.22-.6c.018-.147.04-.292.067-.434l.083-.421.032-.193-.008-.188q-.014-.55-.536-.33l-.214.12a.444.444,0,0,0-.293.36.431.431,0,0,1-.324.333c-.284.073-.561.134-.84.182s-.555.1-.835.139a1.978,1.978,0,0,1-.39.049l-.186-.064-.067-.175-.046-.316.025-.234c.073-.413.131-.826.182-1.237s.091-.821.135-1.232a2.471,2.471,0,0,1,.059-.368l.107-.2.2-.091c.088-.018.206-.037.349-.059l.072-.006a6.979,6.979,0,0,0,1.522-.22,4.988,4.988,0,0,1,.873-.142c.288-.021.579-.038.877-.056l.142.018.07.081.04.1a5.039,5.039,0,0,0-.14.5,1.256,1.256,0,0,0-.008.488c.073.3.255.379.548.228l.179-.073.18-.089.2-.155.094-.22c.03-.273.049-.542.064-.8s.024-.531.035-.8l-.008-.072a.237.237,0,0,0-.215-.242l-.177-.029-.2.018c-.155.024-.3.051-.451.083a3.445,3.445,0,0,1-.464.07q-1.716.151-3.42.473a7.439,7.439,0,0,1-1.216.15,4.443,4.443,0,0,0-.794.084c-.263.051-.531.11-.8.172a.385.385,0,0,0-.271.285l-.067.223a.437.437,0,0,0,.446.513.273.273,0,0,1,.277.338,5.792,5.792,0,0,0-.078,1.3l-.011.3-.041.316c-.051.586-.105,1.165-.167,1.736a16.728,16.728,0,0,0-.092,1.715,1.324,1.324,0,0,1-.049.454,1.729,1.729,0,0,0-.084.545c0,.175,0,.354.013.537a6.774,6.774,0,0,1,.035.7,3.472,3.472,0,0,1-.084.725.471.471,0,0,1-.309.362l-.228.07-.23.072-.186.073-.186.075-.143.143-.048.178,0,.086.029.143.029.143.186.252.325.037c.177-.045.352-.084.528-.118a4.832,4.832,0,0,1,.536-.077l.188-.024.191-.053a10.528,10.528,0,0,1,1.17-.263c.387-.062.783-.121,1.189-.177.521-.073,1.041-.136,1.556-.187s1.031-.1,1.551-.158l.386-.07.379-.142a.524.524,0,0,0,.344-.422c.038-.255.069-.512.1-.77s.056-.516.081-.77v-.145l-.073-.161-.159-.065-.194.024-.183.037a.8.8,0,0,0-.389.3l-.177.327-.092.351-.118.293-.288.163-.155.051-.155.035c-.252.041-.5.08-.754.116s-.507.065-.765.089c-.194.026-.382.048-.566.064a2.432,2.432,0,0,0-.569.123l-.336.065-.343.022-.126-.046-.057-.126-.006-.072-.008-.073a2.711,2.711,0,0,0,.032-.575c-.008-.188-.016-.379-.025-.572l0-.414c0-.14.013-.284.016-.429q.017-.292.024-.569a4.5,4.5,0,0,0-.019-.564l.016-.351.057-.339.053-.1.1-.088.368-.091.309-.019.3-.062a2.863,2.863,0,0,1,.7-.12c.228-.011.469-.032.72-.064m-11.646,2.094.016-.045.013.041Zm-2.5-6.694c-.134.011-.295.022-.483.035s-.376.021-.569.027l-.362.134-.178.306.14.277.312.177.359.1a.349.349,0,0,1,.341.231c.073.188.151.373.236.555a3.552,3.552,0,0,1,.206.569c.089.322.178.644.263.964s.171.649.25.982l.094.4.137.394a3.973,3.973,0,0,1,.186.441,1.119,1.119,0,0,1,.041.5l0,.1.049.112q.146.641.33,1.27c.121.421.261.832.418,1.235q.177.507.32,1.031t.276,1.066l.132.285.293.113.3.024.287.025.217-.07.163-.2.03-.061a3.383,3.383,0,0,1,.236-.732c.1-.233.2-.464.292-.693a4.978,4.978,0,0,0,.183-.524c.142-.448.287-.889.432-1.323s.311-.872.491-1.315l.121-.33.021-.351a.813.813,0,0,1,.2-.583,1.611,1.611,0,0,0,.4-.864l.067-.18.069-.18q.21-.54.379-1.085t.378-1.087c.051-.158.1-.312.145-.462s.094-.3.145-.462a1.065,1.065,0,0,1,.223-.413.549.549,0,0,1,.434-.153l.2-.018.2-.046.274-.126.153-.159.041-.236-.112-.193-.215-.054a2.384,2.384,0,0,1-.453.054l-.456.011c-.191,0-.381,0-.569.013s-.376.022-.567.029a.766.766,0,0,0-.583.355l-.046.156.041.135.092.049.092.051c.163.081.25.145.263.186a.741.741,0,0,1-.056.317l-.053.186-.054.186c-.1.416-.215.814-.338,1.2a10.783,10.783,0,0,1-.437,1.149q-.39.892-.722,1.777t-.622,1.8l-.1.306-.1.306-.059.041-.072.029-.037,0-.021-.027-.11-.274-.1-.29c-.1-.33-.2-.665-.292-1.006s-.2-.674-.308-1c-.091-.3-.171-.6-.242-.908a4.6,4.6,0,0,0-.3-.873l-.069-.249-.038-.265c-.045-.218-.086-.443-.124-.673s-.081-.453-.126-.671l-.053-.214-.054-.214a.374.374,0,0,1,.194-.408l.29-.156.276-.155.12-.2,0-.153-.024-.15-.072-.132-.127-.054-.311.013-.295.04a2.6,2.6,0,0,1-.644.143c-.206.018-.419.027-.641.027Zm-8.162,3.43q0-.292,0-.574c-.006-.188-.008-.379,0-.574l.011-.261.027-.265a.475.475,0,0,1,.453-.461c.155-.022.308-.041.462-.054a3.237,3.237,0,0,1,.446-.011c.325.011.647.03.964.062a2.582,2.582,0,0,1,.9.255.857.857,0,0,1,.368.344,3.768,3.768,0,0,1,.319,1.6l-.033.193-.046.178c-.051.169-.107.33-.166.486s-.121.312-.182.473a1.228,1.228,0,0,1-.472.63,1.847,1.847,0,0,1-.709.258l-.086.008c-.288,0-.577.016-.864.032s-.577.03-.865.046l-.143-.016c-.191-.013-.29-.1-.3-.25l-.043-.36-.016-.376c0-.231,0-.462,0-.69s.016-.454.019-.677Zm.132,3.125a2.834,2.834,0,0,1,.685-.118,2.933,2.933,0,0,1,.669.043.879.879,0,0,1,.5.247l.29.279.306.249a.9.9,0,0,1,.322.481,3.109,3.109,0,0,1,.183,1.03q.01.3.048.6c.026.2.056.39.091.58a1.982,1.982,0,0,0,.308.867,2.478,2.478,0,0,0,.63.634,3.9,3.9,0,0,0,.5.29l.33.1.309-.027c.11-.024.268-.051.469-.078a1.046,1.046,0,0,0,.566-.245,2.135,2.135,0,0,0,.411-.478,1.835,1.835,0,0,0,.249-1.053c-.014-.153-.115-.242-.3-.265l-.231.035-.161.145-.075.194-.075.167-.155.172-.239.035a.719.719,0,0,1-.553-.416l-.11-.309-.081-.327q-.065-.359-.11-.7a6.379,6.379,0,0,0-.124-.685,3.3,3.3,0,0,0-.19-.645,1.438,1.438,0,0,0-.379-.526l-.288-.316-.276-.332-.013-.064.045-.07.378-.279.394-.282a.82.82,0,0,0,.383-.469c.08-.2.159-.4.241-.588s.159-.386.242-.587a2.623,2.623,0,0,0,.121-.5,2.789,2.789,0,0,0,.024-.489,2.712,2.712,0,0,0-.081-.712,3.879,3.879,0,0,0-.239-.653,1.207,1.207,0,0,0-.853-.711,4.807,4.807,0,0,0-.494-.131,3.92,3.92,0,0,1-.492-.131l-.3-.032-.3.013a6.691,6.691,0,0,1-.757.08,4.761,4.761,0,0,1-.755-.021l-.25-.006-.268.037c-.28.045-.556.092-.83.147l-.83.159a4.486,4.486,0,0,1-1.2.089,3.23,3.23,0,0,0-.676.045l-.276.126-.134.229.112.209a.781.781,0,0,0,.486.132l.26-.038.274-.024c.145-.013.225.057.241.212l.016.376v.378c0,.174-.013.352-.03.532a4.157,4.157,0,0,0-.018.547c0,.252-.013.5-.027.757s-.038.507-.072.762a3.228,3.228,0,0,0-.029.459c0,.151.006.3.013.457s.033.325.049.489a4.226,4.226,0,0,0,.078.486,2.089,2.089,0,0,1,.049.483,4.374,4.374,0,0,1-.038.5c-.03.2-.059.4-.083.6s-.049.41-.08.617a2.345,2.345,0,0,0-.018.829l.046.3.03.287.081.343-.021.335-.3.164-.341.038-.072.021-.072.035-.2.105-.206.134-.126.25.147.257.279.091.3-.069.362-.12.389-.033.41-.008.41.022.26.014.26-.016.309-.041.295-.026a.556.556,0,0,0,.394-.223l.1-.139.081-.139.021-.292-.214-.185-.185-.027-.188-.027-.1-.094-.013-.027-.014-.043c-.033-.249-.069-.5-.1-.746a2.247,2.247,0,0,1,.027-.757,5.759,5.759,0,0,0,.089-1.823,4.317,4.317,0,0,1-.01-.574,2.256,2.256,0,0,1,.1-.582m-7.716.66.069.234.045.177.073.118.123.054a.468.468,0,0,0,.575-.282,2.164,2.164,0,0,0,.218-.6,3.555,3.555,0,0,1,.069-.434l.078-.421.035-.193-.01-.188q-.014-.55-.537-.33l-.212.119a.449.449,0,0,0-.295.36.425.425,0,0,1-.32.333q-.426.11-.84.182c-.277.049-.555.1-.837.139a2,2,0,0,1-.39.049l-.186-.064-.067-.175-.045-.316.024-.234c.072-.414.132-.826.18-1.237s.094-.821.137-1.232a2.441,2.441,0,0,1,.061-.368l.105-.2.2-.091c.088-.017.2-.037.349-.059l.072-.006a7.006,7.006,0,0,0,1.524-.22,4.938,4.938,0,0,1,.872-.142c.287-.021.58-.038.877-.056l.14.018.07.081.04.1a4.993,4.993,0,0,0-.137.5,1.2,1.2,0,0,0-.01.488c.073.3.255.379.548.228l.179-.073.18-.089.2-.156.094-.218c.029-.273.051-.542.065-.8s.024-.529.033-.8l-.008-.072a.237.237,0,0,0-.217-.242l-.175-.029-.194.018c-.155.024-.306.051-.451.083a3.705,3.705,0,0,1-.465.07q-1.714.151-3.42.473a7.447,7.447,0,0,1-1.213.15,4.406,4.406,0,0,0-.8.085q-.394.076-.8.172a.4.4,0,0,0-.273.285l-.065.223a.438.438,0,0,0,.445.513.273.273,0,0,1,.279.338,5.89,5.89,0,0,0-.08,1.3l-.01.3-.04.316c-.051.587-.108,1.165-.169,1.736s-.091,1.144-.094,1.715a1.215,1.215,0,0,1-.048.454,1.881,1.881,0,0,0-.086.545c0,.174.006.354.016.535a6.832,6.832,0,0,1,.032.7,3.375,3.375,0,0,1-.083.725.468.468,0,0,1-.309.362l-.228.07-.23.072-.186.073-.186.075-.143.143-.048.179.008.086.025.143.029.143.188.252.324.037c.175-.045.352-.084.526-.118a4.878,4.878,0,0,1,.537-.077l.188-.024.191-.053a10.509,10.509,0,0,1,1.17-.263q.581-.093,1.189-.177c.524-.075,1.041-.135,1.556-.186s1.031-.1,1.552-.158l.386-.07.378-.142a.529.529,0,0,0,.344-.422q.055-.383.1-.77t.081-.77l0-.145-.076-.161-.158-.067-.194.026-.183.037a.781.781,0,0,0-.387.3l-.177.327L90.4,349l-.116.293-.288.163-.156.049-.153.037c-.252.041-.5.08-.755.116s-.507.065-.767.089c-.193.025-.381.048-.563.064a2.432,2.432,0,0,0-.571.123l-.335.065-.346.022-.121-.048-.061-.124,0-.073-.008-.072a2.939,2.939,0,0,0,.032-.575c-.01-.188-.018-.379-.024-.572v-.414c0-.14.01-.284.016-.429.01-.2.019-.384.024-.569a5.223,5.223,0,0,0-.018-.566l.013-.349.057-.339.054-.1.1-.088.365-.091.309-.019.3-.062a2.838,2.838,0,0,1,.7-.12c.229-.011.469-.032.72-.064m-6.836-4.05.019-.539-.056-.249-.159-.2-.193-.033-.167.065-.156.182-.158.194-.2.077-.214-.046-.214-.076a3.382,3.382,0,0,0-.8-.214,6.864,6.864,0,0,0-.853-.062,4.631,4.631,0,0,0-1.2.148,3.483,3.483,0,0,0-1.148.551,2.88,2.88,0,0,0-.445.394,1.747,1.747,0,0,0-.319.515,4.566,4.566,0,0,0-.3,1.05,5.211,5.211,0,0,0-.059,1.058l.061.328.132.308.1.145.1.158a3.221,3.221,0,0,0,.614.746,2.6,2.6,0,0,0,.822.494q.469.208.928.4a9.407,9.407,0,0,0,.958.338,3.525,3.525,0,0,1,.432.186l.386.265.161.139.177.137a.939.939,0,0,1,.312.451,2.805,2.805,0,0,1-.113,2.029,1.37,1.37,0,0,1-.429.531,2.047,2.047,0,0,1-.59.285l-.3.062-.311.019-.293-.01-.293-.07a8.023,8.023,0,0,1-.861-.426,2.073,2.073,0,0,1-.7-.658,1.635,1.635,0,0,0-.6-.5l-.231.006-.191.132-.053.062-.024.075a5.527,5.527,0,0,0-.281,1.02,9.76,9.76,0,0,0-.121,1.034l.049.214a.31.31,0,0,0,.379.257.854.854,0,0,0,.449-.132.77.77,0,0,0,.215-.4l.053-.258.053-.274.075-.078.115-.011.183.1a3.8,3.8,0,0,0,2.531.767l.108,0,.108-.018a5.9,5.9,0,0,0,.843-.284,3.654,3.654,0,0,0,.792-.469l.335-.3.234-.362.2-.352a1,1,0,0,0,.312-.521,3.245,3.245,0,0,0,.072-.572l.01-.292a2.452,2.452,0,0,0-.029-.636,4.991,4.991,0,0,0-.143-.591,4.225,4.225,0,0,0-.218-.555c-.083-.175-.172-.357-.26-.544l-.07-.081-.07-.08a3.193,3.193,0,0,0-.806-.751c-.309-.2-.614-.408-.912-.625l-.1-.041-.1-.043-.347-.121-.333-.139q-.339-.129-.671-.268a2.544,2.544,0,0,1-.614-.36l-.105-.092-.075-.124a2.171,2.171,0,0,1-.209-.787,2.936,2.936,0,0,1,.078-.827,1.128,1.128,0,0,1,.7-.818,2.3,2.3,0,0,1,.6-.167,3.136,3.136,0,0,1,.783,0,7.434,7.434,0,0,1,.749.129l.309.191a4.544,4.544,0,0,0,.346.406,1.191,1.191,0,0,1,.271.469l.186.217.293.018.3-.23.07-.186.057-.186.026-.344Zm-11.341,5.64.072.233.049.179.075.116.124.054a.456.456,0,0,0,.567-.282,1.993,1.993,0,0,0,.21-.6c.013-.147.033-.29.059-.433l.073-.421.03-.191-.011-.188q-.024-.55-.543-.33l-.21.121a.436.436,0,0,0-.29.359.415.415,0,0,1-.314.333q-.426.11-.838.182c-.277.049-.555.094-.835.139a1.847,1.847,0,0,1-.39.048l-.188-.062-.07-.175-.051-.316.021-.234c.065-.413.116-.824.158-1.234s.08-.821.115-1.23a2.574,2.574,0,0,1,.054-.368l.1-.2.2-.089c.086-.018.2-.038.347-.061l.072-.006a6.775,6.775,0,0,0,1.522-.22,5.052,5.052,0,0,1,.87-.142c.288-.019.58-.038.877-.054l.142.016.072.081.041.1q-.079.253-.129.5a1.189,1.189,0,0,0,0,.486q.117.454.553.228l.177-.073.18-.089.2-.155.091-.218c.024-.274.04-.542.049-.8s.014-.529.019-.8l-.008-.072a.241.241,0,0,0-.222-.242l-.177-.029-.194.018c-.155.022-.3.051-.451.083a3.384,3.384,0,0,1-.464.069q-1.714.151-3.416.473a7.264,7.264,0,0,1-1.214.15,4.448,4.448,0,0,0-.8.085q-.392.079-.8.172a.384.384,0,0,0-.268.285l-.062.223a.447.447,0,0,0,.456.512.279.279,0,0,1,.285.338,5.808,5.808,0,0,0-.057,1.3l0,.3-.035.316c-.041.585-.088,1.162-.137,1.734a17.077,17.077,0,0,0-.065,1.712A1.2,1.2,0,0,1,66.2,349a1.757,1.757,0,0,0-.077.545q0,.261.024.536a6.727,6.727,0,0,1,.046.7,3.449,3.449,0,0,1-.07.725.458.458,0,0,1-.3.36l-.226.072-.228.07-.186.075L65,352.16l-.142.143-.043.178.006.086.03.143.03.142.193.252.325.037c.175-.045.351-.083.526-.118a4.81,4.81,0,0,1,.536-.077l.188-.024.191-.053A10.029,10.029,0,0,1,68,352.61q.581-.1,1.187-.177.784-.112,1.554-.186c.515-.051,1.033-.1,1.552-.158l.384-.07.378-.142a.519.519,0,0,0,.338-.422q.048-.38.081-.77c.022-.258.045-.513.067-.768l0-.145-.078-.159-.159-.067-.2.026-.182.037a.781.781,0,0,0-.382.295l-.172.328-.088.349-.112.293-.285.163-.155.049-.155.035c-.252.041-.5.081-.754.116s-.505.067-.765.089c-.193.027-.381.048-.564.064a2.488,2.488,0,0,0-.567.123l-.335.065-.346.024-.124-.048-.061-.126-.008-.072-.008-.072a2.919,2.919,0,0,0,.021-.575c-.011-.188-.024-.378-.035-.571l-.006-.413c0-.142,0-.284.008-.43.008-.194.013-.383.014-.567a4.885,4.885,0,0,0-.029-.564l.008-.349.051-.338.053-.1.092-.089.367-.089.309-.021.3-.062a2.908,2.908,0,0,1,.7-.118c.231-.011.47-.032.722-.064M57.262,344.98q0-.292,0-.574c-.006-.188-.008-.379,0-.572l.013-.263.026-.265a.478.478,0,0,1,.454-.461c.155-.022.308-.041.462-.054a3,3,0,0,1,.446-.01c.325.01.647.03.963.061a2.59,2.59,0,0,1,.9.255.86.86,0,0,1,.368.346,3.757,3.757,0,0,1,.317,1.6l-.032.191-.046.178c-.051.169-.107.332-.167.486s-.12.314-.18.473a1.236,1.236,0,0,1-.472.63,1.858,1.858,0,0,1-.709.258l-.088.008c-.287.006-.575.016-.864.032l-.864.046-.143-.016c-.191-.013-.292-.1-.3-.25l-.045-.359-.014-.378c-.006-.231,0-.461,0-.69s.016-.453.019-.676Zm.132,3.125a2.835,2.835,0,0,1,.685-.118,3.138,3.138,0,0,1,.669.043.879.879,0,0,1,.5.247l.29.279.3.25a.9.9,0,0,1,.324.48,3.193,3.193,0,0,1,.183,1.03c.006.2.022.4.046.6s.056.389.091.58a1.964,1.964,0,0,0,.309.865,2.453,2.453,0,0,0,.63.634,4.164,4.164,0,0,0,.5.292l.328.094.311-.027c.11-.024.266-.049.469-.078a1.045,1.045,0,0,0,.566-.246,2.139,2.139,0,0,0,.411-.478,1.848,1.848,0,0,0,.249-1.054c-.016-.153-.116-.241-.3-.265l-.231.035-.159.145-.077.2-.075.166-.153.174-.239.035a.721.721,0,0,1-.553-.416l-.11-.311-.081-.327q-.065-.356-.11-.7c-.03-.229-.072-.457-.124-.685a3.4,3.4,0,0,0-.191-.644,1.391,1.391,0,0,0-.379-.526l-.288-.317-.276-.332-.013-.064.045-.069.379-.28.394-.282a.821.821,0,0,0,.383-.469q.12-.3.239-.588c.081-.19.161-.386.241-.587a2.521,2.521,0,0,0,.124-.5,2.643,2.643,0,0,0,.022-.489,2.567,2.567,0,0,0-.081-.711,3.716,3.716,0,0,0-.239-.655,1.205,1.205,0,0,0-.851-.709,4.52,4.52,0,0,0-.494-.132,4.131,4.131,0,0,1-.5-.131l-.3-.032-.3.013a6.673,6.673,0,0,1-.755.081,4.772,4.772,0,0,1-.755-.022L58.2,342.1l-.268.038c-.279.043-.555.092-.829.145l-.83.159a4.558,4.558,0,0,1-1.2.091,3.05,3.05,0,0,0-.677.045l-.276.126-.132.23.11.207a.775.775,0,0,0,.488.132l.26-.038.274-.024c.143-.013.225.059.241.212l.014.376,0,.378c0,.174-.014.352-.032.532a4.169,4.169,0,0,0-.016.547c0,.252-.014.505-.027.757s-.038.507-.072.762a2.839,2.839,0,0,0-.029.461c0,.15.006.3.013.456s.033.327.049.489a3.931,3.931,0,0,0,.078.488,2.157,2.157,0,0,1,.049.481,4.79,4.79,0,0,1-.038.505c-.032.2-.061.4-.083.6s-.049.411-.083.617a2.421,2.421,0,0,0-.014.829l.046.3.03.288.08.341-.019.336-.3.164-.339.037-.072.021-.073.035-.2.105-.2.134-.128.25.147.257.279.091.3-.069.362-.12.389-.033.411-.006.41.022.258.013.26-.016.311-.041.295-.026a.547.547,0,0,0,.392-.223l.1-.139.081-.139.019-.292-.212-.185-.188-.027-.186-.027-.1-.092-.014-.029-.013-.041c-.035-.249-.069-.5-.1-.747a2.207,2.207,0,0,1,.027-.757,5.8,5.8,0,0,0,.089-1.823,4.583,4.583,0,0,1-.011-.572,2.343,2.343,0,0,1,.1-.583" transform="translate(1.441 3.259)" fill="#fff3d8"/>
  </g>
</svg>
