<svg id="圖層_1" data-name="圖層 1" xmlns="http://www.w3.org/2000/svg" xmlns:xlink="http://www.w3.org/1999/xlink" viewBox="0 0 267.57 267.57"><defs><clipPath id="clip-path"><rect x="5.33" y="32.05" width="256.54" height="208.52" style="fill:none"/></clipPath></defs><g id="Group_6" data-name="Group 6"><rect id="Rectangle_216" data-name="Rectangle 216" x="0.13" y="0.13" width="267.32" height="267.32" style="fill:none"/><path id="Path_34" data-name="Path 34" d="M23.18,124.17,41,130.29l.66-2.49.67-2.49-18.52-3.62L5.33,118.06Zm2-7.48L43,122.81l.67-2.49.67-2.49-18.52-3.62L7.33,110.57Zm2-7.48L45,115.33l.67-2.49.67-2.49-18.52-3.63L9.34,103.09Zm2-7.48L47,107.85l.67-2.5.67-2.48L29.86,99.24,11.34,95.61Zm2-7.48L49,100.37l.67-2.49.67-2.49L31.86,91.76,13.34,88.14Z" style="fill:#84973d"/><path id="Path_35" data-name="Path 35" d="M217.48,178.94l-.66,2.48,18.51,3.63,18.52,3.63L236,182.56l-17.85-6.11Zm2-7.48-.66,2.48,18.51,3.63,18.51,3.63L238,175.08,220.14,169Zm2-7.49-.66,2.49,18.51,3.63,18.52,3.62L240,167.6l-17.85-6.12Zm2-7.48-.67,2.49,18.51,3.63,18.52,3.62L242,160.12,224.15,154Zm2-7.48-.67,2.49,18.52,3.63,18.52,3.62L244,152.64l-17.85-6.12Z" style="fill:#84973d"/><g id="Group_5" data-name="Group 5"><g style="clip-path:url(#clip-path)"><g id="Group_4" data-name="Group 4"><path id="Path_36" data-name="Path 36" d="M226.23,136.32a99.78,99.78,0,1,1-99.78-99.79,99.79,99.79,0,0,1,99.78,99.79" style="fill:#84973d"/><path id="Path_37" data-name="Path 37" d="M226.23,136.31h2.24a102,102,0,1,1-102-102h0a102,102,0,0,1,102,102H224a97.56,97.56,0,1,0-28.57,69,97.54,97.54,0,0,0,28.57-69Z" style="fill:#84973d"/><path id="Path_38" data-name="Path 38" d="M91.14,64.16c.5-.75,1-.59,1.33.06.7,1.42.86,4.29-1.65,8.29-1.87,3-4.39,7-7,11.36,2.42,5.89,5.27,12.18,8,14.92.53.49.37,1-.23,1.09-2.13.37-4.63-.48-7.26-5.45-1-2-2-4.06-3-6.21a127.73,127.73,0,0,0-8.07,16c-.22.51-.62.5-.89.11-.78-1.06-1.26-2.93-.25-5.92C73,95.75,76,90,79.44,83.85c-2.06-4.95-4.16-10.06-6.53-14.43-.24-.51,0-.9.51-.92,1.39-.13,3.42.44,5.34,3.71.82,1.45,1.95,4.07,3.24,7.17,3.46-6,6.93-11.8,9.14-15.22" style="fill:#191210"/><path id="Path_39" data-name="Path 39" d="M107.42,73c.3-.81.71-1,1.2-.65,1,.77,2.07,3,1.46,6-.56,2.71-2.22,7.41-2.78,10.57-.58,3.34,0,5.66,1.75,5.09,2.17-.66,4.19-5,5.12-9.23.15-.55.51-.7.85-.27a5,5,0,0,1,.36,3.44c-.64,3.3-3.27,7.11-6.26,7.7s-4.87-.76-5.51-3.28c-1.15,2.63-3.06,5.23-5.63,5.89-5,1.26-7.73-5.28-4.94-12.9,2.73-7.42,6.35-10.91,9-11.6,2.3-.58,3.83.91,4.25,3,.37-1.46.73-2.75,1.1-3.76m-3.73,3.29c-1.75.27-4.78,4.75-6.51,10.27-1.67,5.33-1.17,10.22.93,9.74s4.13-4.64,5.66-10c1.88-6.75,1.52-10.19-.08-10" style="fill:#191210"/><path id="Path_40" data-name="Path 40" d="M126.25,67.84c1.84-.18,4.17,2,3.54,5.15-.53,2.64-2.15,7.28-2.67,10.37-.6,3.47.36,5.9,2.26,5.3,2.17-.66,3.89-4.86,5-9.13.14-.56.51-.65.9-.29s.73,1.75.37,3.5c-.68,3.36-3.36,7-6.47,7.75-4.55,1.15-6.47-1.9-6.1-6.95.43-5.7,3.7-12.58,2.63-12.76-.59-.08-3.31,2.21-5.79,6.83-2.29,4.23-3.34,10-4.36,15.6-.09.54-.36.83-1,.47-1.35-.8-2.12-2.48-1.94-5.38.21-3.65,2.44-12.14,4.55-18,.22-.68.67-.74,1.13-.28,1.14,1.14,1.55,3,1.45,5,1.75-3.19,4.65-7.06,6.49-7.24" style="fill:#191210"/><path id="Path_41" data-name="Path 41" d="M148.06,87c-1.12,7.93-2.76,17.42-6.66,20.24-1,.7-2.07.81-3.4-.34a7,7,0,0,1-2.76-6.37c.33-5.21,4.1-9.66,8.89-13,.24-1.31.39-2.72.61-4.09A8.25,8.25,0,0,1,140,87.45c-4.92,1.25-7.6-5.2-4.89-12.73,2.6-7.28,6.33-10.8,9.06-11.49,2.14-.55,3.63.84,4.06,2.73.37-1.24.71-2.35,1-3.4.24-.86.75-1.05,1.26-.67,1,.76,2.06,3,1.39,5.92-.8,3.63-2.52,11-3.45,16.74A27.65,27.65,0,0,0,156,74.08c.21-.52.69-.64.94-.13a5.37,5.37,0,0,1-.29,3.38c-1.25,3.8-4.56,6.93-8.6,9.66m-9.46,17.75c1,.84,3.77-5.8,5.18-14.83-5.93,5.84-6.42,13.78-5.18,14.83m7.08-39c-1.69.32-4.73,4.74-6.49,10.15s-1.11,10.2,1,9.71,4-4.54,5.51-10c1.88-6.75,1.52-10.2-.06-9.91" style="fill:#191210"/><path id="Path_42" data-name="Path 42" d="M171.27,67.23c0,4.84-2,11.1-5.59,13.46a6.08,6.08,0,0,1-7.35-.64c-3.14-2.5-3.53-7.37-2.21-12.28,1.11-4.16,3.59-8.1,6.75-9.13a3.78,3.78,0,0,1,4.1.9c1.66,1.35,3.36,1.32,4,5.25l.2,1.26,1.05-.38.3.5a2.27,2.27,0,0,1-1.27,1.07m-4.9-.18A6.93,6.93,0,0,1,162.7,63a19.59,19.59,0,0,0-2.84,6.09c-1.21,4.64-.76,9.77.93,10.6s4.6-1.86,6-7.45a28.66,28.66,0,0,0,.79-4.76l-1.18-.39m.61-5.23c-.71-1.65-1.7-1.06-1.57.57a4.56,4.56,0,0,0,2.15,3.5,10.81,10.81,0,0,0-.58-4.07" style="fill:#191210"/><path id="Path_43" data-name="Path 43" d="M136.85,184.92c-.38-.48-.29-.75.28-.95,3.31-1.15,7.05-4.63,10.24-5.64,2.44-.78,5-.6,6.71,2.46a9.22,9.22,0,0,1,.36,8.5,20.53,20.53,0,0,1-6.08,7.68,6,6,0,0,1,2.84,1.44c1.39,1.24,2.07,4.11.57,6.9a16.93,16.93,0,0,1-7.32,6.65,6.25,6.25,0,0,1-4.12.8,6.89,6.89,0,0,1-3-1.6c-1-.88-1.68-1.53-1.36-4.91A93.7,93.7,0,0,1,140.63,186a3.75,3.75,0,0,1-3.78-1.09m6.69,14.77a5.51,5.51,0,0,1-3.08.42,46.85,46.85,0,0,0-1.34,8.32c-.1,1.83.59,2.27,2.08,1.69a16.42,16.42,0,0,0,8.08-7.3c1.23-2.68.67-4.86-3.8-4-.63.33-1.29.59-1.94.86m8.86-18c-1.61-2.26-5.84,1.18-8.9,3.09.37,1,.4,2.57-.25,5.11-.5,2-1.33,4.66-2.1,7.49,9-4.67,13.29-12.7,11.25-15.69" style="fill:#191210"/><path id="Path_44" data-name="Path 44" d="M160.79,207.77c-4.45,1.12-7-4.77-4.44-11.59,2.45-6.55,5.71-9.74,8.17-10.37,1.89-.48,3.24.77,3.67,2.47.41-1.4.8-2.53,1-3.1s.59-.92,1.09-.58c1,.67,1.85,2.61,1.4,5.3-.41,2.43-2,6.85-2.45,9.59-.46,3,.19,4.79,1.65,4.26,3-1.07,5.86-8.13,6.33-15.81-4.28-.42-1.36-8.16.54-8.8,1.48-.47,1.72,2.5,1.55,6.1a12.52,12.52,0,0,0,4.79-3.64c.55-.66.87-.84,1.42-.46,1.18.78,2.9,2.71,1.92,4.71-1.61,3.19-3.21,7.2-3.37,9.81-.14,2.88.87,4.62,2.39,4.34,2.07-.37,3.68-4.18,4.3-8.2l.73-.18a4.45,4.45,0,0,1,.61,3.19c-.52,3.22-2.84,6.07-5.52,6.65-3.72.79-6-2.17-5.84-6.34.15-3.44,2.2-7.76,3.69-10.62a12.28,12.28,0,0,1-5.26,3.25c-.63,7.42-3.13,15.83-8.2,17.53-2.61.87-4.49-.46-5.07-2.93-1,2.37-2.74,4.81-5.11,5.42M160,197.3c-1.55,4.82-1,9.17.88,8.74s3.71-4,5.08-9c1.65-6,1.31-9.19-.11-8.93s-4.27,4.28-5.85,9.21" style="fill:#191210"/><path id="Path_45" data-name="Path 45" d="M126.45,233.39A97.58,97.58,0,1,1,224,135.81h0a97.7,97.7,0,0,1-97.58,97.58m0-190.69a93.1,93.1,0,1,0,93.1,93.1,93.1,93.1,0,0,0-93.1-93.1" style="fill:#fdf1d7"/><path id="Path_46" data-name="Path 46" d="M50.06,197.58a12.06,12.06,0,0,1-2.61-.28A18.86,18.86,0,0,1,39.24,193c-3-2.63-4.72-4.84-3.88-13.5,1.28-13.7,5.45-32.14,10.74-47.7h0a10.11,10.11,0,0,1-8.14-3.6,2.87,2.87,0,0,1,1.45-4.94c3.82-1.33,8.07-4.1,12.18-6.78,4.36-2.84,8.88-5.78,13.07-7.12a20.06,20.06,0,0,1,6.09-1c5.3,0,9.47,2.65,12.38,7.88a24.44,24.44,0,0,1,1,22.41,52.07,52.07,0,0,1-13,17.52,17.51,17.51,0,0,1,4.62,3c3.94,3.5,5.9,11.37,1.78,19s-12.67,14.33-18.79,17.1c-3.56,1.64-6.13,2.34-8.58,2.34m-.64-31.19a108.45,108.45,0,0,0-2.9,18.69c-.12,2.2.3,2.78.4,2.87l.47.12a5.48,5.48,0,0,0,2-.48c6.63-2.6,15.55-9.71,19-17.11,1.29-2.84,1.59-5.18.79-6.42s-2.72-1.47-4.2-1.47A21.7,21.7,0,0,0,61,163c-1.56.76-3.14,1.42-4.68,2.06a18.71,18.71,0,0,1-6.43,1.34h-.5m8.16-38.85c.7,3.07.39,7-.94,12.23-.72,2.89-1.71,6.27-2.75,9.87-.44,1.53-.91,3.11-1.37,4.73,13.94-8.2,22.09-19.34,24.08-27.23.74-3,.57-5.45-.48-7a2.57,2.57,0,0,0-2.31-1.1c-3.4,0-8.73,3.53-13.44,6.65-.95.64-1.89,1.26-2.79,1.84" style="fill:#191210"/><path id="Path_47" data-name="Path 47" d="M70.73,110c4.1,0,8,1.82,10.91,7a22.63,22.63,0,0,1,.88,20.92,50.21,50.21,0,0,1-15,18.88,14.75,14.75,0,0,1,7,3.54c3.44,3,5.1,10.1,1.41,17-3.78,7.05-11.65,13.48-18,16.36-3.22,1.48-5.64,2.2-7.89,2.2a10.72,10.72,0,0,1-2.26-.25,17.46,17.46,0,0,1-7.46-3.93C37.9,189.57,36.23,188,37,179.66c1.37-14.54,6-34.21,11.52-49.8a12.78,12.78,0,0,1-2.47.26,8.57,8.57,0,0,1-6.83-3c-.93-1.15-.72-1.84.68-2.32C48.08,122,57.3,113.45,65.15,111a18.56,18.56,0,0,1,5.58-1m-20.9,47.78C72,146.32,82.54,126.54,77.51,119.2a4.25,4.25,0,0,0-3.69-1.83c-4.95,0-12.4,5.82-18.19,9.43.9,2.55,1,6.33-.6,12.56-1.26,5-3.29,11.48-5.19,18.42m.1,6.95a9,9,0,0,1-1.8-.18A113.32,113.32,0,0,0,44.85,185c-.18,3.28.65,4.75,2.55,4.75a7.54,7.54,0,0,0,2.56-.6c7.37-2.89,16.36-10.37,19.87-18,2.55-5.57,2-10.27-4.93-10.27a23.25,23.25,0,0,0-4.4.49c-1.58.78-3.18,1.44-4.78,2.1a16.94,16.94,0,0,1-5.79,1.22m20.8-58.1a22.13,22.13,0,0,0-6.6,1.12c-4.42,1.4-9,4.41-13.49,7.32-4,2.62-8.18,5.33-11.82,6.6a4.53,4.53,0,0,0-2.19,7.6,11.43,11.43,0,0,0,7.2,4c-5,15.23-8.91,32.81-10.15,46-.9,9.42,1.17,12,4.45,14.91a20.59,20.59,0,0,0,9,4.69,14.23,14.23,0,0,0,3,.32c2.7,0,5.48-.74,9.29-2.5,6.35-2.88,15.18-9.69,19.55-17.82a20,20,0,0,0,2.35-12,14.86,14.86,0,0,0-4.48-9.14,20.62,20.62,0,0,0-2.84-2.1,53.7,53.7,0,0,0,11.65-16.46,26.06,26.06,0,0,0-1-23.92c-3.17-5.71-8-8.74-13.83-8.74M59.44,128.34l1.87-1.23c4.28-2.85,9.61-6.38,12.5-6.38.61,0,.77.15,1,.41.74,1.08.83,3.13.21,5.59-2.23,8.86-10.75,17.68-19.58,23.78l.11-.4c1-3.6,2-7,2.78-9.93,1.23-4.86,1.61-8.7,1.15-11.84m2.14,36.28a18.52,18.52,0,0,1,3.32-.35c1.73,0,2.58.38,2.78.7s.42,1.94-.9,4.82c-3.23,7-11.71,13.77-18,16.24l-.54.19v-1a102.2,102.2,0,0,1,2.57-17.14,21.2,21.2,0,0,0,6.12-1.41l0,0,.05,0c1.5-.62,3-1.25,4.58-2" style="fill:#84973d"/><path id="Path_48" data-name="Path 48" d="M98.56,184.73c-4.59,0-12.39-2.37-13-18.29-.89-22.35,7.58-47.94,16.37-63.38,1.2-2.17,2.74-3.29,4.6-3.29a5.69,5.69,0,0,1,2.63.74c4.6,2.41,6.94,7.08,6.94,13.87,0,15.83-9.54,33.56-18.58,43.57-1.51,11.26-.32,17.27,1.31,19.15a1.67,1.67,0,0,0,1.34.67l.37,0c4.67-.77,10.59-10.26,12.92-20.7.54-2.16,1.92-2.92,3-2.92a3.09,3.09,0,0,1,2.69,1.78c1.25,2,1.56,5.1.88,8.82-.87,4.64-7.45,17.24-17.78,19.6a17,17,0,0,1-3.7.43m10-67.16a188.44,188.44,0,0,0-8,24.84,69,69,0,0,0,8-24.84" style="fill:#191210"/><path id="Path_49" data-name="Path 49" d="M106.51,101.46a3.78,3.78,0,0,1,1.83.53c4.24,2.22,6.07,6.44,6.06,12.39,0,15.57-9.65,33.23-18.49,42.82-1.72,12.35-.68,22.25,4.24,22.25l.65,0c5.83-1,12-11.67,14.29-22,.25-1,.8-1.61,1.38-1.61.42,0,.86.3,1.23.94,1.08,1.76,1.27,4.49.69,7.68-.76,4-6.93,16.07-16.51,18.25a14.85,14.85,0,0,1-3.32.4c-6.48,0-10.88-5-11.33-16.68-.87-21.81,7.22-46.8,16.15-62.5.88-1.6,1.92-2.42,3.13-2.42m-9.75,50.09c12.93-17.36,14.75-38.08,13-38.64h-.1c-1.89,0-7.22,15.2-11.47,32.21a62,62,0,0,0-1.4,6.44m9.76-53.45h0c-1.73,0-4.18.72-6.08,4.17-8.23,14.46-17.52,40-16.57,64.25.69,17.31,9.5,19.9,14.7,19.9a19.06,19.06,0,0,0,4.05-.47c11.25-2.57,18.1-15.82,19.08-20.91.75-4.14.37-7.6-1.11-10a4.8,4.8,0,0,0-4.12-2.57c-2.18,0-4,1.62-4.64,4.14v.08a44.72,44.72,0,0,1-5.4,13.47c-2.53,4.05-4.85,5.73-6.17,6h-.07c-1-.7-2.53-6-1.06-17.4,9.14-10.32,18.7-28.25,18.66-44.31,0-7.45-2.64-12.61-7.85-15.36a7.24,7.24,0,0,0-3.4-.92" style="fill:#84973d"/><path id="Path_50" data-name="Path 50" d="M120,179.44a8.72,8.72,0,0,1-6.61-2.8c-3.78-4.07-3.88-11.08-3.6-14.89.69-9.38,4.06-22.79,8.81-35a3.52,3.52,0,0,1,3.26-2.46,4.08,4.08,0,0,1,2.31.78l.1.06.08.08c4.25,3.83,5,10,2.3,18.4a124.48,124.48,0,0,0-4.77,19.6c-.71,4.49-.08,7.12.69,8l.48.27h.13c1.87-.32,5.9-3.58,11.61-21.64,2.14-6.79,3.58-12.52,4.74-17.12a91.63,91.63,0,0,1,3.6-12.23c.3-.8,1.16-3,3.22-3a3.54,3.54,0,0,1,2.13.82c2.9,2.1,5.37,7.71,3.9,15-.57,2.75-1.62,6.31-2.71,10.07-1.36,4.65-2.76,9.44-3.4,13.1-.9,4.93-.28,7.82.6,8.86l1,.5.81-.14c3.56-1.09,7.54-8.46,10.4-19.24a3,3,0,0,1,2.81-2.44,2.87,2.87,0,0,1,2.25,1.17c1,1.18,2.1,4.85,1.15,9.17-1.79,7.67-7.79,16.49-15.83,18.53a16.75,16.75,0,0,1-4.05.55,10,10,0,0,1-9.72-6.47c-2.75,5.19-7.2,11.09-13.5,12.22a11.73,11.73,0,0,1-2.21.21" style="fill:#191210"/><path id="Path_51" data-name="Path 51" d="M146.3,119.19l1.12.47c2.32,1.69,4.61,6.68,3.27,13.35-1.26,6-4.94,16.46-6.13,23.22s0,11.33,3.29,11.33l1.31-.22c4.94-1.5,9-10.9,11.52-20.41.2-.75.68-1.19,1.19-1.19l.93.53c.71.83,1.65,4,.83,7.77-1.75,7.53-7.58,15.48-14.6,17.26a14.46,14.46,0,0,1-3.64.5c-5.46,0-8.57-3.83-9.23-9.75-2.74,6.64-7.5,14.32-14.29,15.53a10.21,10.21,0,0,1-1.91.18c-7.06,0-9.12-8-8.54-15.88.62-8.52,3.72-21.72,8.7-34.51a1.86,1.86,0,0,1,1.69-1.4l1.37.49c3.62,3.26,4.38,8.77,1.83,16.64a125.32,125.32,0,0,0-4.83,19.84c-1,6.14.29,10.23,2.82,10.23l.4,0c4.73-.82,9.16-10.81,12.95-22.8,4.41-14,5.77-23.12,8.27-29.21.52-1.31,1-1.95,1.69-1.95m0-3.36c-2.13,0-3.74,1.37-4.8,4.06a94.65,94.65,0,0,0-3.66,12.43c-1.16,4.58-2.59,10.29-4.7,17-4.82,15.22-8.22,19.13-9.63,20.14a14.54,14.54,0,0,1,0-6,121.24,121.24,0,0,1,4.72-19.34c2.94-9.06,2-15.84-2.78-20.16l-.17-.16-.2-.13a5.81,5.81,0,0,0-3.25-1.06,5.18,5.18,0,0,0-4.81,3.5c-4.82,12.39-8.24,26-8.93,35.52-.3,4.08-.17,11.61,4.05,16.14a10.37,10.37,0,0,0,7.84,3.34,14.12,14.12,0,0,0,2.51-.23c3.7-.66,8.66-3.12,13.21-10.45a11.49,11.49,0,0,0,9.71,4.72,18.22,18.22,0,0,0,4.47-.59c8.68-2.21,15.15-11.62,17-19.76,1-4.58,0-8.87-1.5-10.66a4.57,4.57,0,0,0-3.53-1.76,4.68,4.68,0,0,0-4.43,3.69c-3,11.45-6.84,17.32-9.26,18.06l-.16.05c-.35-.6-1-2.77-.15-7.35a133.11,133.11,0,0,1,3.36-12.93c1.11-3.81,2.16-7.39,2.74-10.21,1.62-8-1.22-14.3-4.55-16.73a5.21,5.21,0,0,0-3.12-1.14" style="fill:#84973d"/><path id="Path_52" data-name="Path 52" d="M175.28,165.46a15.92,15.92,0,0,1-12.81-6.08c-4.51-5.62-5.91-14.17-3.86-23.47,3.77-17,13.62-26.22,21-26.22a8.73,8.73,0,0,1,2.33.32,24.66,24.66,0,0,1,9.2,4.73c3.4,2.74,4.66,10.85.76,19.16-3.55,7.6-9.06,11.79-15.52,11.79a17.58,17.58,0,0,1-5.7-1c-.11,5.13,1,9.29,3.13,11.61a5.2,5.2,0,0,0,4,1.85l1.16-.11c10.36-2.11,16.12-15.95,18.1-21.8a2.83,2.83,0,0,1,2.65-2.13,3,3,0,0,1,2.32,1.23c1.2,1.39,1.61,5.46.1,9.52-3.46,9.38-12,17.34-21.18,19.81A21.51,21.51,0,0,1,175.28,165.46Zm-3.81-27.37.71,0c4.09,0,6.67-4.8,8.45-9,2.41-5.67,2.78-10.32,2.34-11.48-2.07.36-8.86,8-11.37,19.77l-.13.64" style="fill:#191210"/><path id="Path_53" data-name="Path 53" d="M179.6,111.38a7,7,0,0,1,1.87.25,22.87,22.87,0,0,1,8.59,4.4c2.87,2.3,3.76,9.81.31,17.14-3,6.38-7.67,10.84-14,10.84a17.24,17.24,0,0,1-7.25-1.76c-.94,11,3,17.58,8.65,17.58l1.48-.14c10-2,16.26-13.77,19.38-22.92.2-.64.61-1,1.05-1l1,.6c.72.82,1.21,4.25-.14,7.89-3.15,8.52-10.92,16.32-20,18.77a20,20,0,0,1-5.21.73c-11.84,0-18.39-12.29-15-27.5,3.49-15.8,12.59-24.9,19.34-24.9m-7.42,28.44c5.09,0,8-5.35,10-10,2.53-6,3.58-12.81,1.58-13.7l-.64-.13c-3.39,0-10.6,9.21-13.15,21.12-.17.8-.35,1.6-.43,2.26a8.52,8.52,0,0,0,2.65.45M179.6,108c-4.52,0-9.3,2.75-13.47,7.73a46.58,46.58,0,0,0-9.15,19.8c-2.17,9.8-.64,18.86,4.18,24.87a17.79,17.79,0,0,0,14.12,6.72,23.19,23.19,0,0,0,6.09-.85c9.85-2.64,18.61-10.83,22.32-20.86,1.57-4.22,1.39-9-.4-11.18a4.6,4.6,0,0,0-3.6-1.82,4.53,4.53,0,0,0-4.24,3.28c-1.91,5.6-7.36,18.75-16.86,20.68l-.81.08a3.56,3.56,0,0,1-2.74-1.3c-1.52-1.65-2.44-4.6-2.65-8.25a17.89,17.89,0,0,0,4,.46c7.15,0,13.2-4.54,17-12.79s3.32-17.5-1.24-21.17a26,26,0,0,0-9.74-5,10,10,0,0,0-2.83-.4m-6,28.11a40.75,40.75,0,0,1,4.9-11.45,24.94,24.94,0,0,1,2.74-3.64,32.31,32.31,0,0,1-2.2,7.46c-1.83,4.3-3.59,6.79-5.44,7.63" style="fill:#84973d"/><path id="Path_54" data-name="Path 54" d="M212,156a18.24,18.24,0,0,1-13.81-6.12c-4.5-4.94-6.68-13.76-2.79-19.07a3.52,3.52,0,0,1,2.78-1.71,2.77,2.77,0,0,1,2.37,1.42c2.38-6.1,5.07-13.43,6.74-19.44-.55-4.81.06-7.73,2.26-11,1.8-2.72,4.25-4.41,6.4-4.41a3.52,3.52,0,0,1,1.82.48c2.71,1.61,1.95,4.4,1.15,7.36l0,.12c-.18.51-.31,1-.47,1.62l-.13.49a103.24,103.24,0,0,0,4.7,16.24,90.35,90.35,0,0,1,3.53,11.5,28.63,28.63,0,0,1,.66,7.39,35.89,35.89,0,0,0,5.6-14.09,2.83,2.83,0,0,1,2.77-2.53,3.23,3.23,0,0,1,2.41,1.16c1.2,1.51,1.88,5.18.69,9.8A28,28,0,0,1,212,156m-6.92-14.84c2.59,4.47,5.63,7.32,7.87,7.32l1.27-.36c3.07-1.86-1-15.68-3.43-23.37-1.72,5.68-3.79,11.35-5.71,16.41" style="fill:#191210"/><path id="Path_55" data-name="Path 55" d="M215.93,97.31l1,.24c1.49.89,1.23,2.35.38,5.48-.3.83-.47,1.64-.74,2.59,2,11.16,6.57,19.86,8.3,28.16.95,4.7,1.39,9.91-2.17,13.85,7.21-5,10.39-13.4,11.73-20.59.15-.81.61-1.15,1.12-1.15l1.15.58c.74,1,1.41,4.08.32,8.28a26.29,26.29,0,0,1-25,19.58,16.49,16.49,0,0,1-12.58-5.6c-4.22-4.62-5.86-12.56-2.66-16.92.5-.69,1-1,1.43-1s1,.54,1.37,1.58.6,1.88,1,2.8A243.79,243.79,0,0,0,209,111.22c-.59-4.79,0-7.35,2-10.25,1.6-2.42,3.59-3.66,5-3.66m-3,52.86a4.1,4.1,0,0,0,2.13-.6c5.05-3.06-1.48-21.28-4.38-30.68a215.79,215.79,0,0,1-7.47,22.42c2.88,5.24,6.51,8.86,9.72,8.86m3-56.22h0c-2.75,0-5.67,1.93-7.81,5.17-2.37,3.55-3.08,6.82-2.56,11.83-1.46,5.19-3.67,11.35-5.77,16.81a4.17,4.17,0,0,0-1.63-.33,5.07,5.07,0,0,0-4.15,2.41c-4.37,5.95-2,15.75,2.9,21.16A19.92,19.92,0,0,0,212,157.69a29.65,29.65,0,0,0,28.26-22.1c1.16-4.51.79-9-.94-11.2l-.05-.06,0-.06a4.9,4.9,0,0,0-3.69-1.74,4.5,4.5,0,0,0-4.42,3.92,38.72,38.72,0,0,1-2.61,8.61c-.1-.66-.22-1.31-.35-1.94a92.4,92.4,0,0,0-3.58-11.74A101.23,101.23,0,0,1,220,105.76l0-.12c.15-.56.27-1,.43-1.49l0-.12,0-.12c.8-3,1.9-7-1.9-9.24a5.36,5.36,0,0,0-2.68-.72m-9,47.06c1.26-3.35,2.58-6.94,3.82-10.63.77,2.61,1.48,5.28,2,7.75,1.36,6.48.66,8.3.48,8.62l-.3.07c-1,0-3.43-1.6-6-5.8" style="fill:#84973d"/></g></g></g></g></svg>