<svg id="圖層_1" data-name="圖層 1" xmlns="http://www.w3.org/2000/svg" xmlns:xlink="http://www.w3.org/1999/xlink" viewBox="0 0 267.57 267.57"><defs><clipPath id="clip-path"><rect x="15.94" y="14.01" width="238.2" height="233.16" style="fill:none"/></clipPath></defs><g id="Group_12" data-name="Group 12"><rect id="Rectangle_221" data-name="Rectangle 221" x="0.13" y="0.13" width="267.32" height="267.32" style="fill:none"/><g id="Group_11" data-name="Group 11"><g style="clip-path:url(#clip-path)"><g id="Group_10" data-name="Group 10"><path id="Path_124" data-name="Path 124" d="M135.82,58.7a72.16,72.16,0,1,1-72.15,72.16h0A72.16,72.16,0,0,1,135.82,58.7m0,3.52a68.64,68.64,0,1,0,68.63,68.64h0a68.64,68.64,0,0,0-68.63-68.64" style="fill:#a21f24;fill-rule:evenodd"/><path id="Path_125" data-name="Path 125" d="M185.83,155.44c-1.79,6.93-6.9,13.1-14.22,17.79-9,5.77-21.41,9.35-35.09,9.35h0c-13.68,0-26.08-3.58-35.08-9.35-9.23-5.91-14.93-14.15-14.93-23.32h0c3.71,2.28,9.65,17.27,11,14.67,1.7-3.16,12.36-4.68,15.72.67s20.48,9.78,22.87,5.36,10.24-3.52,13.49-1.3,8.14-10.62,17.06-5.19,6.86-9.15,18-8.64l1.12,0M183.22,120l-.1-.16a23,23,0,0,0,3.2-11.57h0c0-9.17-5.71-17.41-14.93-23.32-9-5.77-21.41-9.35-35.09-9.35h0c-13.67,0-26.08,3.58-35.08,9.35C92,90.83,86.28,99.07,86.28,108.24h0a23.16,23.16,0,0,0,3.41,11.93,25,25,0,0,0-2,4.51l-.3,1a22,22,0,0,0-.86,6.09c0,9.17,5.7,17.41,14.93,23.32,9,5.78,21.4,9.35,35.08,9.35h0c13.68,0,26.09-3.57,35.09-9.34,9.22-5.92,14.92-14.16,14.92-23.33h0a22.28,22.28,0,0,0-1.76-8.64c-.21-.5-.45-1-.72-1.58s-.55-1-.84-1.53h0Zm-90.86,3.94c-7.82,9.92,7.2,13.67,12.6,12.5h0c-1,1-1.31,2.34.39,4.16,2,2.08,3.75,1.07,6,2.47,4.77,3,4.28,11.48,12.29,11.53,9.09,0,12-9.93,19.25-9.92,7.75,0,11.77,9.33,14.52-.31,1-3.63,8.7-7.09,11.17-8.57,4.53,7.59,6.6-1.93,7-3.33.44,1.63,7.79,4.1,3.89-7.62a37.52,37.52,0,0,1-4.71,4.37c-8.84,7.31-22.68,12-38.23,12a68,68,0,0,1-28.12-5.79l.07,0a50.85,50.85,0,0,1-7.25-3.86,38.33,38.33,0,0,1-8.86-7.65m87.05-11.48c-5.06,13.14-23,22.86-44.25,22.86-22.25,0-40.79-10.61-44.86-24.65,7.33,11.05,24.82,18.83,45.21,18.83,19.27,0,35.94-7,43.9-17m-62,8.7c-1.59-.48-2.7-1.75-2.48-2.84s1.7-1.6,3.3-1.13,2.7,1.75,2.47,2.84a1.59,1.59,0,0,1-1.13,1.15,3.7,3.7,0,0,1-2.16,0m29.21-6c-1.59-.47-2.7-1.74-2.47-2.84s1.69-1.6,3.29-1.12,2.7,1.75,2.48,2.84-1.7,1.6-3.3,1.12m-12.34,3.39c-1.59-.48-2.7-1.75-2.48-2.84s1.7-1.6,3.29-1.12,2.7,1.74,2.47,2.84-1.69,1.59-3.28,1.12m-7.08-4.32c-1.6-.47-2.7-1.74-2.47-2.84s1.69-1.6,3.29-1.12,2.7,1.74,2.47,2.84-1.7,1.6-3.29,1.12m-7.41,2.23c-1.6-.48-2.7-1.75-2.47-2.84s1.7-1.6,3.29-1.12,2.7,1.74,2.47,2.84-1.7,1.59-3.29,1.12m-5.7-9.65a1.58,1.58,0,0,1,1.14-1.15,3.44,3.44,0,0,1,2.15,0c1.59.47,2.71,1.74,2.48,2.83-.55,2.67-6.31.88-5.77-1.71m-5.75,5.39c.23-1.09,1.7-1.6,3.3-1.12s2.7,1.75,2.47,2.84c-.55,2.66-6.29.88-5.77-1.72M97.17,103c.22-1.09,1.7-1.6,3.29-1.12s2.7,1.74,2.47,2.84c-.54,2.67-6.3.88-5.76-1.72" style="fill:#191210;fill-rule:evenodd"/><path id="Path_126" data-name="Path 126" d="M44.6,120.72l2.21,6.85H54l-5.83,4.22,2.24,6.85-5.82-4.25-5.82,4.25L41,131.78l-5.83-4.22h7.2Z" style="fill:#a21f24;fill-rule:evenodd"/><path id="Path_127" data-name="Path 127" d="M225.32,120.72l2.21,6.85h7.2l-5.83,4.22,2.24,6.85-5.82-4.25-5.82,4.25,2.24-6.85-5.84-4.22h7.2Z" style="fill:#a21f24;fill-rule:evenodd"/><path id="Path_128" data-name="Path 128" d="M80.93,194.73q-2.43,2.25-5.59.15l.29.75a5.48,5.48,0,0,1,.3,4,5.64,5.64,0,0,1-1.39,2.08,5.28,5.28,0,0,1-4.66,1.52,9.27,9.27,0,0,1-5.09-3.14c-.53-.57-1.07-1.2-1.61-1.87l-1.35-1.66-1.21-1.38a19,19,0,0,0-1.54-1.44,19.26,19.26,0,0,1-1.46-1.36l-.17-.17a2.1,2.1,0,0,1-.62-1.55,2.19,2.19,0,0,1,.77-1.51l1.35-.62,1.21.45.43.62.4.58c.37.4,1,.13,2-.8l6.1-5.67c1-.92,1.29-1.58.92-2l-.56-.45-.57-.47-.37-1.24.71-1.3a2.24,2.24,0,0,1,1.58-.66,2,2,0,0,1,1.51.71l.08.09.06.11,1.3,1.7c.37.48.89,1.09,1.58,1.83q.81.85,1.32,1.32l1.55,1.35c.34.32.81.79,1.41,1.44A13.91,13.91,0,0,1,81.8,189a4.77,4.77,0,0,1,.54,3,4.54,4.54,0,0,1-1.41,2.67m-10.08,2.68a2.32,2.32,0,0,0,.7-2.17,5.18,5.18,0,0,0-1.46-2.67l-.62-.66-.74-.51-.68.35-1.61,1.5a1.76,1.76,0,0,0-.7,1.56,4.75,4.75,0,0,0,1.32,2.06A3.29,3.29,0,0,0,69,198a2.12,2.12,0,0,0,1.84-.58M72,188.11l-.39.69.42.64.63.68a4.66,4.66,0,0,0,2.12,1.42,1.78,1.78,0,0,0,1.76-.38c1-.92.77-2.15-.65-3.68a4.68,4.68,0,0,0-1.2-1l-1.38.43Z" style="fill:#a21f24"/><path id="Path_129" data-name="Path 129" d="M100.16,208l-.67,1.14-1.35,2.27-.47.8c-1.15,1.93-1.85,3.07-2.13,3.41a5.88,5.88,0,0,1-3.08,2.33c-2.22.63-4.71.14-7.46-1.5s-4.42-3.62-4.72-5.82a7.49,7.49,0,0,1,1.31-4.7l1.78-2.81c.72-1.15,1.3-2.08,1.71-2.78l.6-1c.55-.92.58-1.54.07-1.83l-.61-.28-.66-.3-.71-1.07.31-1.44a2.11,2.11,0,0,1,1.39-1.07,2.41,2.41,0,0,1,1.77.34c.37.23.92.61,1.63,1.15A18.31,18.31,0,0,0,90.5,196a14.52,14.52,0,0,0,1.54.74,12.8,12.8,0,0,1,1.54.74,1.82,1.82,0,0,1,.94,1.25,2.4,2.4,0,0,1-.36,1.67c-.62,1-1.28,1.34-2,.93l-.25-.15-.34-.21-.84.24-.54.9L86.7,208a4.67,4.67,0,0,0-.88,2.87,2.93,2.93,0,0,0,1.62,2,3.11,3.11,0,0,0,2.56.49,4.37,4.37,0,0,0,2.14-2.1l3.5-5.92a4.89,4.89,0,0,0,.61-1.26l-.32-.52-.31-.19-.26-.15c-.7-.42-.75-1.16-.12-2.21a2.16,2.16,0,0,1,1.29-1.08,1.88,1.88,0,0,1,1.56.22,15.69,15.69,0,0,1,1.41,1,15.69,15.69,0,0,0,1.41,1,19.87,19.87,0,0,0,1.79.89,17.3,17.3,0,0,1,1.78.88,2.18,2.18,0,0,1,1.1,1.35,2.15,2.15,0,0,1-.29,1.71l-1.12,1-1.33-.15-.54-.41-.52-.4c-.5-.3-1,0-1.62,1" style="fill:#a21f24"/><path id="Path_130" data-name="Path 130" d="M121.89,217.47a7.94,7.94,0,0,1-2.9.34,5.56,5.56,0,0,1,2.67,2,3.72,3.72,0,0,1,.22,2.85l-.26,1-.08.35c-.2.8-.06,1.26.4,1.37l.55.06.56.07.89.79a2.44,2.44,0,0,1,0,1.51,2.08,2.08,0,0,1-1,1.39,2,2,0,0,1-1.64.2l-1-.31-1-.32-1.05-.19-1-.18a2.11,2.11,0,0,1-1.52-1.32,3.92,3.92,0,0,1-.08-2.51l.14-.18.42-1.7,0-.2a2.57,2.57,0,0,0-.26-2.3,5,5,0,0,0-2.65-1.27c-.54-.14-.92-.07-1.12.18a2.83,2.83,0,0,0-.42,1l-.16.67c-.33,1.32-.25,2,.24,2.17l.65.05.68.06.9.81a2.22,2.22,0,0,1,.09,1.48,1.9,1.9,0,0,1-2,1.74,1.93,1.93,0,0,1-.53-.11,17.63,17.63,0,0,1-1.86-.62,15.86,15.86,0,0,0-4.24-1c-.71-.09-1.41-.21-2.11-.37a2,2,0,0,1-1.74-2.13,3.28,3.28,0,0,1,.92-1.79l1.27-.27.7.28.65.26c.53.13,1-.47,1.28-1.79l2-8.09a7.17,7.17,0,0,0,.23-1.21c0-.53-.15-.85-.54-.94l-.71-.07-.74-.07-1-.84a2.16,2.16,0,0,1-.11-1.48,2.2,2.2,0,0,1,1-1.4,2,2,0,0,1,1.62-.26l.26.1,2,.72c.58.2,1.19.38,1.85.55,1.15.28,2.62.57,4.4.87,1.19.21,2.07.38,2.63.52a6.73,6.73,0,0,1,4.05,2.48,4.87,4.87,0,0,1,.69,4.19,3.73,3.73,0,0,1-2.31,2.84m-5.52-6.15a5.51,5.51,0,0,0-1.56-.23,1.27,1.27,0,0,0-1,1.11l-.44,1.77v.93l.79.41c2.53.63,4,.18,4.35-1.33.34-1.33-.4-2.22-2.19-2.66" style="fill:#a21f24"/><path id="Path_131" data-name="Path 131" d="M137,209.21a7.06,7.06,0,0,1,5.29,2.07c.17-1.19.76-1.79,1.78-1.8a1.64,1.64,0,0,1,1.88,1.32,1.77,1.77,0,0,1,0,.46,10,10,0,0,1-.1,1.21,15.94,15.94,0,0,0-.16,1.83l.07.82c.05.63.07,1,.07,1.07a1.56,1.56,0,0,1-.67,1.32,2.87,2.87,0,0,1-1.77.56,2,2,0,0,1-2.12-1.7,4.59,4.59,0,0,0-1.08-2.34,3,3,0,0,0-2.16-.62,3.35,3.35,0,0,0-3,1.85,10.39,10.39,0,0,0-1,5.18,8.09,8.09,0,0,0,1.09,4.4,3.29,3.29,0,0,0,2.9,1.54,2.89,2.89,0,0,0,1.93-.7,2.12,2.12,0,0,0,.74-1.71c0-.85-.36-1.26-1.06-1.26h-.18l-.22,0-.54.07-1-.52a2,2,0,0,1-.44-1.3,1.84,1.84,0,0,1,.58-1.45,2.24,2.24,0,0,1,1.56-.56,17.34,17.34,0,0,1,1.91.14,16,16,0,0,0,1.95.14,13.42,13.42,0,0,0,2.19-.21,9.91,9.91,0,0,1,1.32-.16,2.12,2.12,0,0,1,1.56.56,2.08,2.08,0,0,1,.6,1.55,2.3,2.3,0,0,1-.4,1.44l-1.05.59h-.72c-.54,0-.81.47-.8,1.38l0,1.21.08,1.3.05,1.27c0,1.36-.72,2-2.2,2.07s-2.12-.47-2.13-1.45v-.18a7.4,7.4,0,0,1-4.7,1.71,8.37,8.37,0,0,1-4.37-1.16,7.32,7.32,0,0,1-3-3.14,13.19,13.19,0,0,1-1.28-5.79,12.48,12.48,0,0,1,2.25-8,7.7,7.7,0,0,1,6.34-3" style="fill:#a21f24"/><path id="Path_132" data-name="Path 132" d="M159.86,209.88a3.45,3.45,0,0,0-1.22.55,1.35,1.35,0,0,0-.08,1.28l.48,1.62.35.7.73,0q1.23-.36,1-1.29l-.12-.37-.12-.43c-.25-.81.12-1.36,1.09-1.65a1.38,1.38,0,0,1,1.84.65,1.58,1.58,0,0,1,.11.37l.19.91a11.08,11.08,0,0,0,.38,1.8,17.55,17.55,0,0,0,.68,1.87c.3.74.51,1.27.6,1.58.34,1.14,0,1.85-1,2.16a1.34,1.34,0,0,1-1.77-.67,1.21,1.21,0,0,1-.11-.37l-.05-.14-.2-.69c-.14-.47-.61-.57-1.42-.34-.54.17-.72.56-.53,1.17l.64,2.16a2.08,2.08,0,0,0,.78,1.26,2,2,0,0,0,1.45,0l1.66-.5a7.83,7.83,0,0,0,2.49-1.1,1.19,1.19,0,0,0,.4-1.34l-.38-.94-.37-.91a2.19,2.19,0,0,1,1.57-2.95c1.4-.42,2.33.14,2.8,1.68.15.5.28,1,.39,1.6.18,1,.3,1.55.37,1.78a12.7,12.7,0,0,0,.51,1.2l.43,1.1q.4,1.35-1.29,1.86c-.37.11-1,.27-1.85.46q-2.14.5-6.77,1.81l-2.57.77c-1,.29-1.75.56-2.37.8l-2.13.84-.11.05-.14.05a2,2,0,0,1-1.64-.17,2.23,2.23,0,0,1-1-1.36,2.13,2.13,0,0,1,0-1.49l1-.89.72-.09.7-.08c.52-.16.58-.89.19-2.2l-2.39-8c-.39-1.29-.84-1.85-1.35-1.7l-.66.33-.64.28-1.29-.21a2.11,2.11,0,0,1-.87-1.22,1.94,1.94,0,0,1,1-2.58,1.56,1.56,0,0,1,.52-.15c.33-.1,1-.26,2-.48,1.54-.34,3-.72,4.42-1.14.13,0,1.28-.41,3.44-1.13q2.35-.76,3.09-1c.81-.31,1.67-.59,2.58-.86,1.07-.32,1.76,0,2,.92a11,11,0,0,1,.27,1.39,11.19,11.19,0,0,0,.28,1.4,10,10,0,0,0,.52,1.27,11.36,11.36,0,0,1,.52,1.25,1.92,1.92,0,0,1-.2,1.6,2.34,2.34,0,0,1-1.37,1,2,2,0,0,1-2.83-1.58l-.18-1.07-.16-1-.9-.58a8.49,8.49,0,0,0-1.23.3Z" style="fill:#a21f24"/><path id="Path_133" data-name="Path 133" d="M188.88,200.69a7.92,7.92,0,0,1-1.76,2.34,5.57,5.57,0,0,1,3.28-.57,3.76,3.76,0,0,1,2.23,1.81l.56.89.2.3c.45.7.87.92,1.27.66l.43-.36.42-.36,1.2-.1a2.46,2.46,0,0,1,1.12,1,2,2,0,0,1-.64,3l-.9.49-.9.49-.85.63-.87.64a2.1,2.1,0,0,1-2,.19,4,4,0,0,1-1.87-1.68l0-.23-.93-1.46-.12-.18a2.57,2.57,0,0,0-1.84-1.4,4.9,4.9,0,0,0-2.74,1l-.65.94.47,1,.37.58q1.11,1.73,1.74,1.32l.49-.44.51-.45,1.21-.1,1.13,1a1.9,1.9,0,0,1-.14,2.68,1.61,1.61,0,0,1-.45.3,15.2,15.2,0,0,1-1.73.93,17.29,17.29,0,0,0-1.89,1,17.55,17.55,0,0,0-1.79,1.32,17.73,17.73,0,0,1-1.72,1.27,2,2,0,0,1-2.74-.2,2.09,2.09,0,0,1-.3-.47l-.36-1.44.66-1.1.7-.32.63-.28c.46-.3.33-1-.41-2.17l-4.48-7a7.66,7.66,0,0,0-.72-1l-1-.25-.54.47-.56.48-1.29.14-1.15-.94a2.27,2.27,0,0,1-.37-1.66,2,2,0,0,1,1-1.35l.24-.12,1.92-1c.53-.27,1.09-.59,1.67-1,1-.63,2.21-1.5,3.66-2.59,1-.71,1.7-1.22,2.2-1.54a6.74,6.74,0,0,1,4.58-1.23,4.88,4.88,0,0,1,3.51,2.39,3.72,3.72,0,0,1,.46,3.64m-8.26-.24a5,5,0,0,0-1.23,1,1.27,1.27,0,0,0,.14,1.45l1,1.53.68.65.83-.28c2.2-1.41,2.88-2.76,2-4.07q-1.09-1.74-3.44-.25" style="fill:#a21f24"/><path id="Path_134" data-name="Path 134" d="M192.44,185a6.14,6.14,0,0,1,4.93-2.15l-.77-1.28.6-1.23c.87-.94,1.71-1,2.5-.3l.9,1,.91,1,.61.49.61.49.11.1c.87.8.83,1.71-.1,2.7a1.82,1.82,0,0,1-2.45.52l-.57-.33c-1.15-.67-2.35-.33-3.6,1s-1.32,2.3-.45,3.12l1.31.46a11.19,11.19,0,0,0,2.49-1.53,11.93,11.93,0,0,1,5.4-2.48,5.13,5.13,0,0,1,4.16,1.54,6.52,6.52,0,0,1,2.23,4.91,7.42,7.42,0,0,1-2.2,5.2,8.28,8.28,0,0,1-4.92,2.45,1.59,1.59,0,0,1,.22,2.25,1.52,1.52,0,0,1-.22.22,1.71,1.71,0,0,1-2.38.44,1.86,1.86,0,0,1-.36-.33l-.93-1-1-1.09-.8-.65-.8-.65a1.53,1.53,0,0,1-.49-1.34,2.68,2.68,0,0,1,.78-1.56,2.24,2.24,0,0,1,1.48-.86,3.4,3.4,0,0,1,1.84.75q1.86,1.29,4-1a3.14,3.14,0,0,0,.94-1.88,1.91,1.91,0,0,0-.63-1.62,1.67,1.67,0,0,0-1.54-.54,13.06,13.06,0,0,0-2.91,1.6l-1.71,1.13a6.81,6.81,0,0,1-2.5,1,5.18,5.18,0,0,1-4.67-1.4,5.85,5.85,0,0,1-2-4.42,6.75,6.75,0,0,1,2-4.69" style="fill:#a21f24"/><path id="Path_135" data-name="Path 135" d="M41.43,105.79a6.35,6.35,0,0,1,3.12-4.05,1.59,1.59,0,0,1-1.12-1.93.64.64,0,0,1,0-.07,1.46,1.46,0,0,1,1.61-1.29,1.91,1.91,0,0,1,.41.11l1,.39a13.8,13.8,0,0,0,1.55.6l.72.15,1,.21,1,.91a2.58,2.58,0,0,1,0,1.67,1.74,1.74,0,0,1-2,1.41,4.23,4.23,0,0,0-2.3.33,2.72,2.72,0,0,0-1.07,1.71,3,3,0,0,0,.85,3.06,9.26,9.26,0,0,0,4.21,2.18,7.27,7.27,0,0,0,4.08.16,3,3,0,0,0,2.06-2.12,2.55,2.55,0,0,0-.12-1.84,2,2,0,0,0-1.29-1.08c-.73-.2-1.18,0-1.35.61l-.05.16,0,.19-.08.48-.7.76-1.24,0a1.64,1.64,0,0,1-1.1-.87,2,2,0,0,1-.1-1.49,14.77,14.77,0,0,1,.6-1.61,16.16,16.16,0,0,0,.61-1.64,12.9,12.9,0,0,0,.37-2,9.35,9.35,0,0,1,.19-1.18,1.81,1.81,0,0,1,2.37-1.35l1.14.71.25,1.06-.17.62c-.13.48.2.82,1,1l1.06.27,1.15.26,1.12.28c1.17.33,1.57,1.13,1.22,2.42s-.93,1.71-1.78,1.47l-.16,0a6.67,6.67,0,0,1,.3,4.49,7.54,7.54,0,0,1-2.11,3.49,6.58,6.58,0,0,1-3.47,1.82,11.73,11.73,0,0,1-5.33-.36,11.2,11.2,0,0,1-6.37-4,7,7,0,0,1-1-6.24" style="fill:#a21f24"/><path id="Path_136" data-name="Path 136" d="M53.87,85.49c-.28.51,0,1,.89,1.48l6.68,3.69a6.22,6.22,0,0,0,1.2.56l1.16-.41.24-.33.27-.47L65,88.85c.71-1.28.66-2.14-.12-2.58L64,86l-1-.39a1.86,1.86,0,0,1-1-1.27,2.3,2.3,0,0,1,.28-1.7,1.89,1.89,0,0,1,2.45-1.12,2.37,2.37,0,0,1,.47.25l.5.32.68.46.67.46.48.3.48.25.5.23.79.34.33.15c.87.48,1,1.24.45,2.27l-.56,1-.81,1.29c-.93,1.47-2.18,3.62-3.75,6.47l-.6,1.17-.42,1-.34.85-.36.74-1.17.93-1.51-.23-.92-1,.08-1.17.39-.51.39-.52c.23-.42-.19-.93-1.26-1.52L52.74,91.3c-1.06-.59-1.7-.67-1.94-.24l-.22.6-.24.63-1,.66-1.32-.24a1.77,1.77,0,0,1-1-2.28,1.61,1.61,0,0,1,.25-.44q.18-.33,1.26-1.95L49.24,87l.56-1,.42-.8.35-.8a15.19,15.19,0,0,1,.76-1.7,1.8,1.8,0,0,1,2.39-.91A2,2,0,0,1,54,82l.94,1,0,1.14-.5.7-.5.7" style="fill:#a21f24"/><path id="Path_137" data-name="Path 137" d="M74.2,62.07l.86.81,1.73,1.64.6.57c1.46,1.39,2.31,2.24,2.57,2.55a5.3,5.3,0,0,1,1.41,3.17q.18,3.1-2.8,6.25c-2,2.15-4.06,3.15-6,3a6.73,6.73,0,0,1-3.85-2.1c-.12-.11-.83-.82-2.12-2.12l-2.1-2.06L63.68,73c-.7-.67-1.24-.81-1.6-.43l-.35.47-.4.53L60.25,74l-1.2-.56A1.88,1.88,0,0,1,58.39,72a2.14,2.14,0,0,1,.66-1.48,17.25,17.25,0,0,1,1.32-1.21,16.94,16.94,0,0,0,1.33-1.2,11.33,11.33,0,0,0,1-1.21,12.21,12.21,0,0,1,1-1.2l1.29-.57,1.4.65c.78.74.92,1.39.41,1.93l-.19.19-.24.26,0,.78.69.65,4.49,4.25a4.19,4.19,0,0,0,2.35,1.35,2.61,2.61,0,0,0,2-1A2.76,2.76,0,0,0,76.83,72a4,4,0,0,0-1.42-2.3l-4.49-4.25-1-.79-.52.18-.22.24-.19.2c-.51.53-1.17.42-2-.34l-.7-1.35.51-1.32a12.79,12.79,0,0,1,1.17-1,12.79,12.79,0,0,0,1.17-1,16.19,16.19,0,0,0,1.13-1.39c.35-.48.73-.94,1.13-1.39a2,2,0,0,1,1.41-.7,2,2,0,0,1,1.44.6l.64,1.18-.4,1.14-.47.39-.45.37c-.36.39-.17.93.58,1.63" style="fill:#a21f24"/><path id="Path_138" data-name="Path 138" d="M89.28,62.73c.52-.32.48-1-.1-1.91l-4.12-6.63c-.64-1-1.33-1.3-2.08-.84s-1,1-.64,1.49l.51.65.52.65q1.27,2-.45,3.12a1.91,1.91,0,0,1-1.59.27A2.43,2.43,0,0,1,80,58.42q-.18-.3-.57-1.14l-.62-1.15c-.11-.18-.38-.53-.8-1.06l-.64-.88a1.06,1.06,0,0,1,.14-1.49,1,1,0,0,1,.25-.15c.36-.23.82-.48,1.39-.77,1.29-.66,3.06-1.68,5.28-3.06s3.94-2.52,5.1-3.4c.52-.37.94-.67,1.28-.88a1.07,1.07,0,0,1,1.51.1,1.2,1.2,0,0,1,.16.27L93,45.88,93.59,47,94.34,48c.47.6.73.95.79,1a2.26,2.26,0,0,1,.38,1.67A1.9,1.9,0,0,1,94.57,52c-1.15.72-2.14.42-2.95-.9l-.39-.77-.36-.74c-.35-.55-.85-.62-1.53-.2l-.73.93a2.31,2.31,0,0,0,.47,1.37l4.11,6.62c.59,1,1.15,1.27,1.67,1l.7-.55.7-.54a1.43,1.43,0,0,1,2,.18,1.2,1.2,0,0,1,.21.34,1.84,1.84,0,0,1-.15,2.6,1.86,1.86,0,0,1-.44.29,17.32,17.32,0,0,1-1.64.89,26.66,26.66,0,0,0-2.46,1.34c-.67.41-1.44,1-2.28,1.6A18.27,18.27,0,0,1,90,66.51a1.77,1.77,0,0,1-2.5-.19,1.88,1.88,0,0,1-.27-.42,1.53,1.53,0,0,1,.1-2.15,1.41,1.41,0,0,1,.36-.24l.8-.39.8-.38" style="fill:#a21f24"/><path id="Path_139" data-name="Path 139" d="M106.15,54c.58-.2.7-.83.34-1.89L104,44.68c-.38-1.15-1-1.58-1.83-1.3s-1.16.71-1,1.3l.36.75.35.75c.52,1.53.13,2.5-1.15,2.94A1.93,1.93,0,0,1,99.15,49a2.33,2.33,0,0,1-1-1.38c-.07-.22-.17-.63-.3-1.24l-.33-1.25q-.11-.31-.54-1.23l-.41-1A1,1,0,0,1,97,41.5a1,1,0,0,1,.29-.1c.39-.13.9-.27,1.52-.42,1.42-.35,3.36-.94,5.84-1.77s4.42-1.55,5.76-2.13a14,14,0,0,1,1.44-.57,1.06,1.06,0,0,1,1.44.44,1.42,1.42,0,0,1,.1.29,11.13,11.13,0,0,1,.3,1.17,9.09,9.09,0,0,0,.29,1.17c.09.28.26.68.49,1.21.31.7.48,1.1.52,1.2a2.28,2.28,0,0,1,0,1.72,1.89,1.89,0,0,1-1.21,1c-1.28.44-2.17-.08-2.66-1.55l-.2-.85-.18-.8c-.2-.61-.69-.8-1.44-.54l-.93.74a2.31,2.31,0,0,0,.14,1.44L111,50.57c.36,1.06.83,1.49,1.41,1.3l.81-.37.8-.37a1.44,1.44,0,0,1,1.93.63,2,2,0,0,1,.13.39,1.85,1.85,0,0,1-.76,2.5,2.15,2.15,0,0,1-.48.18c-.5.16-1.1.32-1.8.49a24.79,24.79,0,0,0-5.3,1.78c-.64.29-1.22.52-1.74.7A1.77,1.77,0,0,1,103.6,57a2,2,0,0,1-.16-.47,1.52,1.52,0,0,1,.6-2.07,1.49,1.49,0,0,1,.4-.15l.86-.19.87-.19" style="fill:#a21f24"/><path id="Path_140" data-name="Path 140" d="M128.21,52.86A8.13,8.13,0,0,1,121.64,51c-1.65-1.51-2.61-3.78-2.9-6.82A10.15,10.15,0,0,1,120.3,37a7.77,7.77,0,0,1,5.9-3.11,8.39,8.39,0,0,1,6.62,1.84,9.68,9.68,0,0,1,2.94,6.63,10.54,10.54,0,0,1-1.54,7.32,7.91,7.91,0,0,1-6,3.14m-1.48-15.17c-2.33.22-3.32,2.23-3,6.05a9.51,9.51,0,0,0,1.06,4,2.92,2.92,0,0,0,3,1.38c2.32-.22,3.31-2.18,3-5.88a9.24,9.24,0,0,0-1.24-4.38,2.82,2.82,0,0,0-2.77-1.14" style="fill:#a21f24"/><path id="Path_141" data-name="Path 141" d="M150.82,36.91l2.77,12.22,1.33-7.9c.2-1.19.08-1.83-.39-1.91h-1.12l-.86-.66-.18-1.32a2,2,0,0,1,.75-1.33,1.76,1.76,0,0,1,1.42-.3,14.72,14.72,0,0,1,1.45.38,13.61,13.61,0,0,0,3.52.62c1,.06,1.59.1,1.82.14a1.86,1.86,0,0,1,1.59,2.28l-.64,1.18-1.13.33-.62-.2-.6-.2-.81.55a7.21,7.21,0,0,0-.24,1.12L157,52.78c-.2,1.17-.78,1.67-1.74,1.51l-.81-.18-.81-.17s-.46-.06-1.32-.14l-.59-.1a1.62,1.62,0,0,1-1.08-.57,4.67,4.67,0,0,1-.42-1.26l-3.16-12.64-1.37,8.06c-.2,1.21-.07,1.86.39,1.93h1.18l.86.67.18,1.32a1.71,1.71,0,0,1-1.73,1.7,1.49,1.49,0,0,1-.47-.07,14.85,14.85,0,0,1-1.74-.46,12.86,12.86,0,0,0-1.63-.38,16.63,16.63,0,0,0-1.89-.18c-.8,0-1.31-.09-1.52-.12a1.76,1.76,0,0,1-1.71-1.8,2,2,0,0,1,.09-.49l.62-1.18,1.12-.33.64.2.61.2c.48.08.82-.48,1-1.69l1.25-7.4c.2-1.19.06-1.83-.42-1.91H142l-.67,0-.94-.68-.2-1.33a1.86,1.86,0,0,1,2.25-1.62,15.19,15.19,0,0,1,1.61.41,16.13,16.13,0,0,0,1.66.42c.34.05.92.12,1.75.18l1.3.12.71.06,1,.75a8.77,8.77,0,0,1,.38,1.33" style="fill:#a21f24"/><path id="Path_142" data-name="Path 142" d="M173.14,46.8l.09,3.27,2.71-2a3.25,3.25,0,0,0,.87-.78l-.23-.78a1.33,1.33,0,0,1-.09-1.47A1.7,1.7,0,0,1,178.63,44a1.58,1.58,0,0,1,.44.2l1,.58a16.15,16.15,0,0,0,1.54.93,10.83,10.83,0,0,0,1.35.48,10.31,10.31,0,0,1,1.32.46,1.89,1.89,0,0,1,1,1.08,2,2,0,0,1-.14,1.55l-.88,1-1.11,0-.62-.42-.46-.3-.6-.06a8,8,0,0,0-1.2.7l-5.67,3.66a4.22,4.22,0,0,0-1.48,1.63l-.32.69c-.39.74-.3,1.23.26,1.49l.8.28.77.26.75.91-.18,1.38a1.83,1.83,0,0,1-1.08,1.05,2.06,2.06,0,0,1-1.54-.15c-.42-.19-1-.53-1.81-1s-1.4-.8-1.84-1-1.15-.49-2.09-.82-1.63-.62-2.09-.83a2,2,0,0,1-1.07-1.1,1.87,1.87,0,0,1,.1-1.5c.51-1.1,1.23-1.43,2.17-1l.7.44.71.43c.47.23.89,0,1.23-.8l.33-.69a4,4,0,0,0,.2-2.08l-.85-7.66-.58-.93-.5-.14-.71-.22c-.79-.36-1-1-.48-2,.6-1.28,1.47-1.65,2.61-1.12a12,12,0,0,1,1.34.78,13.31,13.31,0,0,0,1.42.81,12.64,12.64,0,0,0,1.78.65l1.15.42c1.12.52,1.38,1.39.81,2.62l-1.05.79-.62,0-.26.18,0,.07-.08.44v.69" style="fill:#a21f24"/><path id="Path_143" data-name="Path 143" d="M188,67.41l1-.07.8-.82,5-5.59.7-.87,0-1-.54-.36-.56-.37-.43-1.08.53-1.23,1.36-.72,1.42.55c.2.18.63.64,1.3,1.38l1.38,1.38A21.06,21.06,0,0,0,201.58,60c.77.57,1.26.94,1.49,1.15a1.73,1.73,0,0,1,.17,2.79l-1.16.68L201,64.3l-.42-.51-.43-.5c-.36-.32-.94,0-1.75.87l-5,5.6c-.81.91-1,1.53-.67,1.86l.54.36.56.36.43,1.08-.53,1.23a2.1,2.1,0,0,1-1.35.72A1.75,1.75,0,0,1,191,74.9l-.17-.19-1.13-1.3-1-1a25.22,25.22,0,0,0-2-1.58c-.88-.62-1.43-1-1.68-1.26a1.94,1.94,0,0,1-.69-1.34,2,2,0,0,1,.56-1.44l1.18-.69,1.13.34.42.5.41.49" style="fill:#a21f24"/><path id="Path_144" data-name="Path 144" d="M212.87,75.37,206.17,86l6.54-4.63c1-.7,1.34-1.24,1.07-1.63l-.4-.39-.39-.4-.14-1.08.81-1.06,1.47-.41,1.23.8c.27.41.52.85.75,1.29a13.11,13.11,0,0,0,1,1.6l1.07,1.33c.65.73,1,1.2,1.18,1.39l.37,1.46-.85,1.27-1.3.38-1-.56-.3-.58-.29-.57L216,84l-1,.61L206,91c-1,.69-1.74.64-2.3-.15l-.44-.7-.45-.7-.83-1-.35-.49-.36-1.16a4.89,4.89,0,0,1,.59-1.19l6.72-11.16-6.67,4.73c-1,.7-1.37,1.25-1.09,1.63l.41.43.41.41.13,1.09-.8,1a1.71,1.71,0,0,1-2.42,0,1.62,1.62,0,0,1-.3-.39,15,15,0,0,1-.9-1.56l-.88-1.42a17.33,17.33,0,0,0-1.21-1.48c-.53-.59-.86-1-1-1.15a1.73,1.73,0,0,1,.07-2.47,1.64,1.64,0,0,1,.4-.29l1.28-.39,1,.55.3.6.29.57c.29.4.93.25,1.93-.46l6.12-4.34c1-.7,1.34-1.25,1.06-1.65l-.45-.46-.46-.49-.18-1.15.8-1.07,1.48-.39,1.26.83a15.83,15.83,0,0,1,.85,1.43A12.08,12.08,0,0,0,211,70c.2.28.56.74,1.11,1.37l.84,1,.45.55.19,1.25a7.93,7.93,0,0,1-.67,1.21" style="fill:#a21f24"/><path id="Path_145" data-name="Path 145" d="M226.28,95.61a6.18,6.18,0,0,1-.14,4.88l.24-.1a1.39,1.39,0,0,1,1.87.59,1.36,1.36,0,0,1,.13.37v1.32l-1,.89-1,.3c-.52.14-1,.29-1.53.47l-.94.46-.94.47a1.71,1.71,0,0,1-1.48-.08,2.4,2.4,0,0,1-1.05-1.3c-.5-1.28-.2-2.1.87-2.48l.78-.3a1.76,1.76,0,0,0,1.12-1.22,3.12,3.12,0,0,0-.15-2q-1.29-3.36-6.66-1.3A8.31,8.31,0,0,0,212.7,99a3.1,3.1,0,0,0-.26,3.11,3.2,3.2,0,0,0,1.22,1.61,1.62,1.62,0,0,0,1.62.16l.9-.35a1.66,1.66,0,0,1,1.46,0,2.06,2.06,0,0,1,1,1.17,2.27,2.27,0,0,1-.06,1.94A3,3,0,0,1,216.9,108a5.15,5.15,0,0,1-4.67-.39,8.23,8.23,0,0,1-3.42-4.32,8,8,0,0,1,.1-6.73,9.84,9.84,0,0,1,5.6-4.61,11.11,11.11,0,0,1,7.34-.64,6.79,6.79,0,0,1,4.43,4.3" style="fill:#a21f24"/><path id="Path_146" data-name="Path 146" d="M212.23,114.86a2.64,2.64,0,0,1,.4-2.06,2.68,2.68,0,0,1,1.75-1.18,2.73,2.73,0,1,1-1,5,2.61,2.61,0,0,1-1.19-1.73" style="fill:#a21f24"/><path id="Path_147" data-name="Path 147" d="M135,247.17a116.68,116.68,0,1,1,11.7-.59c-3.87.39-7.81.59-11.7.59M135.1,23q-5.41,0-10.8.54A107.5,107.5,0,1,0,135.1,23" style="fill:#191210"/></g></g></g></g></svg>