<svg id="圖層_1" data-name="圖層 1" xmlns="http://www.w3.org/2000/svg" xmlns:xlink="http://www.w3.org/1999/xlink" viewBox="0 0 267.57 267.57"><defs><clipPath id="clip-path"><rect x="16.2" y="-0.18" width="251.55" height="244.07" style="fill:none"/></clipPath></defs><g id="Group_18" data-name="Group 18"><rect id="Rectangle_225" data-name="Rectangle 225" x="-0.18" y="-0.18" width="267.93" height="267.93" style="fill:none"/><g id="Group_17" data-name="Group 17"><g style="clip-path:url(#clip-path)"><g id="Group_16" data-name="Group 16"><path id="Path_226" data-name="Path 226" d="M244.37,127.78H226.12v47.35l-17.5,5.18h35.75L232,154.05Z" style="fill:#e89377;fill-rule:evenodd"/><path id="Path_227" data-name="Path 227" d="M58.47,117.85H224.59V173.6H42.13V117.85Z" style="fill:#e89377;fill-rule:evenodd"/><path id="Path_228" data-name="Path 228" d="M22.35,127.78H40.6v47.35l17.5,5.18H22.35l12.39-26.26Z" style="fill:#e89377;fill-rule:evenodd"/><path id="Path_229" data-name="Path 229" d="M62.25,134.62l0,.73-.11.39-.14.39-.62.44-.64-.09-.42-.5-.63-1.06-.78-.94-.68-.47c-.55-.17-1.09-.3-1.65-.42a6.9,6.9,0,0,0-1.7-.14l-1.28.25a2.05,2.05,0,0,0-1.47,1.62,5.85,5.85,0,0,0-.1,1.77,4.8,4.8,0,0,0,.51,1.73l.17.28.23.22,1.36.89,1.49.7.73.36.77.33.22.11.21.11c.67.52,1.35,1,2,1.51a8.48,8.48,0,0,1,1.82,1.77l.15.19.16.18.61,1.22.51,1.24.36,1.29.11,1.38v.62l-.11,1.22L62.68,153l-.4.72-.49.73-.7.58a7.21,7.21,0,0,1-1.68.86,11.4,11.4,0,0,1-1.81.45h-.47a9.27,9.27,0,0,1-5.56-2.12l-.41-.25h-.25l-.16.15-.1.58-.09.55-.44.82-1,.2-.85-.62-.12-.47a20.41,20.41,0,0,1,.19-2.2,10.47,10.47,0,0,1,.53-2.14l.05-.16.1-.12.41-.25.5,0a4.14,4.14,0,0,1,1.34,1.19,5.32,5.32,0,0,0,1.56,1.54,18.89,18.89,0,0,0,1.9,1.08l.65.2.64.08h.67l.64-.07,1.26-.5.89-1.06a5.87,5.87,0,0,0,.1-4.34l-.72-1-.39-.32-.35-.33-.87-.64-.95-.48c-.71-.27-1.42-.57-2.1-.91s-1.36-.68-2.05-1a6.39,6.39,0,0,1-1.82-1.22,8.3,8.3,0,0,1-1.4-1.72l-.21-.36-.22-.32-.31-.69-.16-.72a11.39,11.39,0,0,1,0-2.26,8.71,8.71,0,0,1,.58-2.2l.65-1,.94-.76a6.43,6.43,0,0,1,2.45-1,9.92,9.92,0,0,1,2.61-.1,15,15,0,0,1,1.86.3,7.78,7.78,0,0,1,1.76.6l.47.2.47.15.43-.13.33-.39.33-.36.36-.11.42.11.36.45.14.55v1.16l0,.73" style="fill:#191210"/><path id="Path_230" data-name="Path 230" d="M74.3,155.38l-.34.17a4.55,4.55,0,0,1-2,.89,7.18,7.18,0,0,1-2.17,0,7.44,7.44,0,0,1-1.89-.55,5.06,5.06,0,0,1-1.6-1.11l-.47-.43-.35-.57-.54-1.28-.17-1.37a8.38,8.38,0,0,1,.32-1.92,5.12,5.12,0,0,1,.92-1.74l.47-.5.94-1,1.22-.65,1.39-.47a5,5,0,0,1,1.45-.1l1,0,1-.11a2.74,2.74,0,0,0,2.41-2.34V142a2.48,2.48,0,0,0,0-1.7,6.32,6.32,0,0,0-.82-1.51l-.8-.66L73.24,138l-.74.05-.73,0-.78.06-.53.43v.61l1,1.46,0,1.06-.14.22-.14.22-.74.75-1,.15-1.17-.31-.86-.87a3.39,3.39,0,0,1-.39-2.05,4.32,4.32,0,0,1,.8-1.91,3.63,3.63,0,0,1,2.28-1.5,10,10,0,0,1,1.53-.27,9.15,9.15,0,0,1,1.57,0,5.07,5.07,0,0,1,1.76.58,4.43,4.43,0,0,1,1.45,1.17,7.73,7.73,0,0,1,1.72,3.47l.07.33.08.32a4.26,4.26,0,0,1,.07,1.91l-.15,1.34L78,146.49l-.12.49-.13.48-.2.61-.24.61a7.37,7.37,0,0,0-.45,2.17A17.47,17.47,0,0,0,76.9,153l.07.34.37.46.53.17.38-.07.43-.06.64.27.08.7-.64.93-1.05.47a2.66,2.66,0,0,1-2-.44l-.48-.33-.52-.29-.37.2m-5.22-1.92.72,1,1.19.36a2.37,2.37,0,0,0,1.47-.59l.54-.5.52-.53.34-.53.08-.41,0-.4c.17-.88.32-1.76.44-2.66a11.76,11.76,0,0,1,.69-2.62l0-.51-.6-.08-1,.1-1,.12-.88.15-.87.28-.66.46-.5.63-.36.83-.41.83a3.08,3.08,0,0,0-.26,1.5,8.21,8.21,0,0,0,.5,2.59" style="fill:#191210"/><path id="Path_231" data-name="Path 231" d="M87.09,154.63l.55.67v.52l-.48.33-.56,0-.59,0a12.13,12.13,0,0,0-1.7-.06c-.57,0-1.14.06-1.7.13a1.17,1.17,0,0,1-1.25-.63l-.08-.13-.08-.15-.15-.86.81-.23h.22l.22-.1.2-.12.14-.19.08-.22v-.25a19.4,19.4,0,0,0,.1-2V146l0-.8,0-.83V143.1l.12-1.24a10.74,10.74,0,0,1,0-1.7,10.33,10.33,0,0,0,0-1.67l-.61-.25-.52-.25-.29-.25,0-.4.28-.57.93-.34.72,0,.75-.08.53-.16.57.16.76.61.39.85,0,.27,0,.23.24.37.47-.12L88,138l1.28-.58,1.38-.08.9,0,.91,0,.81.13.78.22a3.27,3.27,0,0,1,1.81,1.6,9,9,0,0,1,.64,1.61,6.93,6.93,0,0,1,.27,1.7V145c0,.76,0,1.51-.07,2.26l-.06,1.07-.12,1.05,0,.66.14.65.06.32v.34l-.1,1.06-.12,1.06.13,1,.56.8.13.48-.41.43-.7.16-.77,0H92.75l-.37-.28-.44-.34-.2-.42.3-.37.31-.1.38-.43.19-1.39.06-1.39c0-.79,0-1.59,0-2.39a13.73,13.73,0,0,1,.24-2.39l.06-.64v-.64l-.1-1.4,0-1.37-.36-1.28-.17-1.32-.6-1-1.12-.48a3.25,3.25,0,0,0-1.6.28,4.52,4.52,0,0,0-1.6,1.24,5.25,5.25,0,0,0-.92,1.79l-.33,1.47-.05,1.47c0,1.21.05,2.41.05,3.61s0,2.41-.08,3.64l0,.86v.82l.7.8" style="fill:#191210"/><path id="Path_232" data-name="Path 232" d="M101.17,144.08a9.67,9.67,0,0,1,.17-1.61,10.63,10.63,0,0,0,.16-1.48c0-.51,0-1,.1-1.52l0-.33,0-.36-.72-.59-.6,0-.56,0-.94-.34-.28-.5.19-.57a1.55,1.55,0,0,1,1.28-.69l.56,0,.6-.08.47-.41.11-.76v-.76l.14-.49.39-.26a14.33,14.33,0,0,0,1.58-.61l1.51-.71h.88l.47.76,0,.75v.75l-.08.74-.08.76.14.39.39.2,1,.1,1,.06.55.36.14.64-.3.61-.57.3-.91.11-.91.1-.48.2-.14.46-.08.77v.76c0,.94,0,1.86,0,2.78s0,1.85.06,2.78l.12,2.26c0,.76.08,1.52.1,2.27a4.07,4.07,0,0,0,.31,1.42l.75,1.17.85.36.78-.42.5-.78.31-.85.46-.5.5-.06.25.2.1.29-.19,1.35-.65,1.15-.35.38-.34.37-.19.18-.22.13-.85.4-.86.29a6,6,0,0,1-2.16.06,4.85,4.85,0,0,1-2-.81,4.14,4.14,0,0,1-1.6-1.93,7.17,7.17,0,0,1-.41-1.64c-.08-.56-.14-1.11-.18-1.67-.08-.73-.14-1.45-.17-2.17s-.07-1.44-.11-2.18c0-.54,0-1.07,0-1.6m3.11,5.07-.13.13,0,.12.13-.09,0-.16" style="fill:#191210"/><path id="Path_233" data-name="Path 233" d="M121.65,155.38l-.34.17a4.6,4.6,0,0,1-2,.89,7.18,7.18,0,0,1-2.17,0,7.32,7.32,0,0,1-1.89-.55,5.1,5.1,0,0,1-1.61-1.11l-.47-.43-.34-.57-.55-1.28-.17-1.37a9,9,0,0,1,.33-1.92,5.12,5.12,0,0,1,.92-1.74l.47-.5.93-1,1.22-.65,1.39-.47a5.07,5.07,0,0,1,1.45-.1l1,0,1.05-.11a2.83,2.83,0,0,0,1.62-.77,2.68,2.68,0,0,0,.78-1.57V142a2.48,2.48,0,0,0,0-1.7,6.36,6.36,0,0,0-.83-1.51l-.8-.66-1.08-.12-.73.05-.74,0-.78.06-.53.43v.61l1,1.46,0,1.06-.14.22-.13.22-.74.75-1,.15-1.18-.31-.85-.87a3.39,3.39,0,0,1-.39-2.05,4.2,4.2,0,0,1,.8-1.91,3.58,3.58,0,0,1,2.28-1.5,9.8,9.8,0,0,1,1.53-.27,9,9,0,0,1,1.56,0,4.94,4.94,0,0,1,1.76.58,4.47,4.47,0,0,1,1.46,1.17,7.61,7.61,0,0,1,1.71,3.47l.08.33.08.32a4.12,4.12,0,0,1,.06,1.91l-.14,1.34-.26,1.28-.13.49-.12.48-.2.61-.24.61a7.37,7.37,0,0,0-.45,2.17,17.47,17.47,0,0,0,0,2.17l.07.34.37.46.53.17.38-.07.44-.06.64.27.07.7-.63.93-1,.47a2.66,2.66,0,0,1-2-.44l-.48-.33-.52-.29-.37.2m-5.22-1.92.72,1,1.19.36a2.32,2.32,0,0,0,1.46-.59l.55-.5.51-.53.35-.53.07-.41,0-.4c.17-.88.32-1.76.44-2.66a11.76,11.76,0,0,1,.69-2.62l0-.51-.61-.08-1,.1-1,.12-.87.15-.88.28-.65.46-.5.63-.36.83-.42.83a3,3,0,0,0-.25,1.5,7.94,7.94,0,0,0,.5,2.59" style="fill:#191210"/><path id="Path_234" data-name="Path 234" d="M160.7,136.63c-.07.8-.13,1.59-.17,2.38l-.07,1.62c0,.54-.06,1.08-.12,1.62l-.14,1.37,0,1.38c0,.66.06,1.32.08,1.95s0,1.29-.05,2,0,1.07,0,1.58a8.14,8.14,0,0,0,.21,1.55l-.09,1.25,0,.4.36.22.8.13.73.37.22.72-.59.53a8.83,8.83,0,0,0-1.78,0,9.63,9.63,0,0,1-1.78,0l-.5,0-.5,0-.55.08-.57.05-.73-.41-.06-.87.3-.47.45-.34.38-.13.34-.09.16-.53,0-.5,0-.49v-.48l.05-.5,0-.48c0-.68,0-1.36.05-2s0-1.36,0-2c0-.87,0-1.74,0-2.6s0-1.74,0-2.61v-1.81a10,10,0,0,0-.16-1.81l0-.8-.11-.77-.25-.25-.06,0-.07,0-.1.15-.08.14-.5,1-.37,1.1-.66,2.34-.07.16,0,.15-.6,1.24-.28,1.35-.26,1-.43,1a19.55,19.55,0,0,0-1,2.66,21.65,21.65,0,0,0-.68,2.75,9.76,9.76,0,0,1-.4,1.5l-.81,1.34-.2.34-.17.35-.8.17-.83,0-.5-.37-.14-.28-.14-.29-.56-1.46-.53-1.47a16.08,16.08,0,0,1-.5-1.53l-.44-1.56c-.25-.82-.49-1.63-.72-2.44s-.48-1.61-.78-2.4-.59-1.75-.89-2.63-.6-1.76-.89-2.65l-.17-.47-.27-.37-.15,0-.1.1-.14.69-.14.72c0,.93-.06,1.87-.06,2.78v2.78l0,.26,0,.24a21.32,21.32,0,0,1,.2,3.48c0,1.16-.09,2.32-.17,3.51l0,.83-.05.8.12.8.54.61.34,1-.31.39-.43.17-.32.08-.37,0-1,.14-1.07.1a2.31,2.31,0,0,1-1.69-.24l-.46-.27-.39-.24-.09-.31.13-.28,1.08-.61,1.07-.54.25-.2.16-.3.18-.7,0-.73c0-.75-.05-1.51-.08-2.27s-.05-1.53-.05-2.32a17.42,17.42,0,0,1,0-1.77q.06-.88.06-1.8c0-.87,0-1.74,0-2.62v-3l0-.4a9.65,9.65,0,0,1-.31-1.77c0-.59-.07-1.19-.1-1.79l-.34-.66-.42-.27-.39-.26-.25-.41,0-.53.66-.65.62-.1c.85,0,1.7,0,2.53,0l2.56,0,.78.13.55.33.3.57c.16.86.36,1.7.57,2.53s.45,1.68.67,2.53.56,1.93.8,2.9.53,1.94.86,2.9l.25.79.25.75a9.08,9.08,0,0,1,.65,1.66c.17.58.31,1.17.44,1.77l.13.29.12.3.13.1.14-.05.1-.07c.3-.77.57-1.55.82-2.33s.45-1.57.62-2.36c.13-.54.28-1.09.47-1.64a7.21,7.21,0,0,1,.72-1.54l.31-.69.22-.69c.17-.64.35-1.29.56-1.93s.43-1.3.65-2l.2-.69.24-.69.13-.47a1.84,1.84,0,0,1,1.68-1.34c.79-.1,1.58-.18,2.36-.25s1.57-.13,2.36-.22l.48.24.14.58-.56,1-.36.34-.39.34c-.08.77-.16,1.55-.23,2.34" style="fill:#191210"/><path id="Path_235" data-name="Path 235" d="M173.49,155.38l-.34.17a4.55,4.55,0,0,1-2.05.89,7.18,7.18,0,0,1-2.17,0,7.44,7.44,0,0,1-1.89-.55,5.21,5.21,0,0,1-1.61-1.11l-.46-.43-.35-.57-.54-1.28-.17-1.37a8.38,8.38,0,0,1,.32-1.92,5.12,5.12,0,0,1,.92-1.74l.47-.5.94-1,1.21-.65,1.4-.47a5,5,0,0,1,1.45-.1l1,0,1-.11a2.77,2.77,0,0,0,1.62-.77,2.69,2.69,0,0,0,.79-1.57V142a2.54,2.54,0,0,0,0-1.7,6.73,6.73,0,0,0-.83-1.51l-.8-.66-1.08-.12-.74.05-.73,0-.78.06-.53.43v.61l1,1.46,0,1.06-.14.22-.14.22-.74.75-1,.15-1.17-.31-.86-.87a3.39,3.39,0,0,1-.39-2.05,4.43,4.43,0,0,1,.8-1.91,3.63,3.63,0,0,1,2.28-1.5,10,10,0,0,1,1.53-.27,9.15,9.15,0,0,1,1.57,0,5.07,5.07,0,0,1,1.76.58,4.43,4.43,0,0,1,1.45,1.17,7.73,7.73,0,0,1,1.72,3.47l.08.33.07.32a4.26,4.26,0,0,1,.07,1.91l-.14,1.34-.27,1.28-.12.49-.13.48-.2.61-.23.61a7.07,7.07,0,0,0-.46,2.17,17.47,17.47,0,0,0,.05,2.17l.07.34.37.46.53.17.38-.07.43-.06.64.27.08.7-.64.93-1,.47a2.66,2.66,0,0,1-2-.44l-.48-.33-.52-.29-.37.2m-5.22-1.92.72,1,1.19.36a2.37,2.37,0,0,0,1.47-.59l.54-.5.52-.53.34-.53.08-.41,0-.4c.17-.88.32-1.76.44-2.66a11.76,11.76,0,0,1,.69-2.62V146l-.61-.08-1,.1-1,.12-.88.15-.87.28-.66.46-.5.63-.36.83-.41.83a3.08,3.08,0,0,0-.26,1.5,8.21,8.21,0,0,0,.5,2.59" style="fill:#191210"/><path id="Path_236" data-name="Path 236" d="M182,153.74l0-.37v-4.72l.06-.65a12.5,12.5,0,0,0,.23-2c0-.68.06-1.35.08-2s0-1.34,0-2,0-1.36-.08-2l-.18-.92-.26-1-.81-.22-.72-.38-.24-.32v-.36l.5-.44.7-.13.7-.06q.81-.06,1.62-.06h1.62a1,1,0,0,1,1,.87l.18,1.28.13.1h.28l.28-.3.28-.26a4.24,4.24,0,0,1,3.19-1.44l.69.1.68.22a2.44,2.44,0,0,1,1.17.93l.52,1.31a6,6,0,0,1-.4,3.35l-.77.87h-1.24a2.31,2.31,0,0,1-1.59-1.68l-.1-.41-.09-.37-.39-.5-.64-.16-.69.14-.53.52a5.28,5.28,0,0,0-.61,1.57c-.11.56-.22,1.1-.32,1.64l0,.35a11.23,11.23,0,0,1,.12,2.59c-.06.85-.09,1.72-.09,2.59,0,.53,0,1-.05,1.54s-.06,1-.07,1.55v.8l.2.8.46.35h.16l.65.18.16.57-.24.76-.73.3-.31,0h-2.9a13.4,13.4,0,0,1-2.75-.25l-.38-.13-.34-.22-.14-.25,0-.31.59-.5,1.12-.31.1-.41" style="fill:#191210"/><path id="Path_237" data-name="Path 237" d="M196.92,156.29l-1,.05-.91-.17-.71-.58-.19-.75.19-.28.4-.12.64-.07.61,0,.25,0h.25l.25-.16.16-.25.06-.28c.06-1,.12-2,.17-3a20.34,20.34,0,0,0-.05-2.92L197,147l.06-.76c0-1,.06-2,0-2.92a14.41,14.41,0,0,1,.22-2.93l0-.31,0-.34-.22-.72-.32-.23-.36-.08-.66-.75.25-.58.56-.26.39,0,.43,0a9.78,9.78,0,0,0,1.62.17c.54,0,1.08,0,1.62,0h.66l.31.2.16.39V138l-.22,1.08,0,1.08-.06.85-.13.86a9.18,9.18,0,0,0-.23,1.56c0,.52,0,1,0,1.6s.06,1.2.05,1.8a7.87,7.87,0,0,1-.24,1.8l0,.23,0,.26v2.69l.08.76.11.77.2.47.54.12.77.14.58.49.19.87-.22.31-.35.1-2.46.19c-.81.06-1.62.15-2.44.25v0l-.93,0m.17-25.06,1.11-.91a1.77,1.77,0,0,1,1.46,0,3.83,3.83,0,0,1,1.69,1.13l.45.86,0,.87-.31.8-.58.63-.4.26-.41.23a2.24,2.24,0,0,1-1.53.16l-.47-.11-.43-.17-.44-.41-.39-.95-.11-1a1.89,1.89,0,0,1,.33-1.32" style="fill:#191210"/><path id="Path_238" data-name="Path 238" d="M213.94,155.38l-.34.17a4.55,4.55,0,0,1-2,.89,7.18,7.18,0,0,1-2.17,0,7.32,7.32,0,0,1-1.89-.55,5.1,5.1,0,0,1-1.61-1.11l-.46-.43-.35-.57-.55-1.28-.16-1.37a8.38,8.38,0,0,1,.32-1.92,5.12,5.12,0,0,1,.92-1.74l.47-.5.94-1,1.21-.65,1.4-.47a5,5,0,0,1,1.45-.1l1.05,0,1-.11a2.74,2.74,0,0,0,2.41-2.34V142a2.48,2.48,0,0,0,0-1.7,6,6,0,0,0-.83-1.51l-.8-.66-1.07-.12-.74.05-.73,0-.78.06-.53.43v.61l1,1.46,0,1.06-.15.22-.13.22-.74.75-1,.15-1.17-.31-.86-.87a3.39,3.39,0,0,1-.39-2.05,4.32,4.32,0,0,1,.8-1.91,3.6,3.6,0,0,1,2.28-1.5,10,10,0,0,1,1.53-.27,9,9,0,0,1,1.56,0,4.94,4.94,0,0,1,1.76.58,4.37,4.37,0,0,1,1.46,1.17,7.61,7.61,0,0,1,1.71,3.47l.08.33.08.32a4.12,4.12,0,0,1,.06,1.91l-.14,1.34-.26,1.28-.13.49-.12.48-.2.61-.24.61a7.37,7.37,0,0,0-.45,2.17,17.47,17.47,0,0,0,0,2.17l.06.34.38.46.53.17.37-.07.44-.06.64.27.07.7-.63.93-1.05.47a2.66,2.66,0,0,1-2-.44l-.48-.33-.52-.29-.37.2m-5.22-1.92.72,1,1.19.36a2.32,2.32,0,0,0,1.46-.59l.55-.5.51-.53.35-.53.08-.41,0-.4c.17-.88.32-1.76.44-2.66a11.76,11.76,0,0,1,.69-2.62l0-.51-.61-.08-1,.1-1,.12-.87.15-.87.28-.66.46-.5.63-.36.83-.42.83a3.07,3.07,0,0,0-.25,1.5,7.94,7.94,0,0,0,.5,2.59" style="fill:#191210"/><path id="Path_239" data-name="Path 239" d="M100.77,186.08,101,186l.34-.31.38-.32,1.07-.65,1-.24,1-.23.65,0,.6.13a5.74,5.74,0,0,1,4,3.66,15.11,15.11,0,0,1,.87,3.11,12.93,12.93,0,0,1,.1,3.23l-.22,1.48-.32,1.48A5.37,5.37,0,0,1,109,200l-.63.74-.84.45-.15.1L106,202a5.4,5.4,0,0,1-1.5.06l-1-.16-1-.06-.28-.1-.28-.2-.31,0-.31-.05-.31.1-.13.28c0,1,0,2,0,3s0,2,.07,3l0,.28.07.26.48.27.49.29.28.87-.14.3-.24.14-.65.09c-.6.05-1.19.1-1.75.18a11,11,0,0,1-1.72.07l-.83,0-.82.06-.83-.14-.74-.48-.11-.44.24-.4.65-.19.58-.18.31-.24.14-.37.07-.65,0-.46c0-1,0-2.07,0-3.08s0-2,0-3.05c0-.77,0-1.54,0-2.32s0-1.57.1-2.36v-.53l0-.56c0-.94-.08-1.87-.09-2.8s-.06-1.87-.1-2.83l0-1.5c0-.5,0-1,0-1.53l-.59-.65-.2,0-.23,0-.16-.07-.19-.06-.26-.25-.08-.37.14-.48.41-.22,1.36-.1,1.36-.09h1.15l.94.74.26.56.24.63.2-.09m6.48,6.59-.06-1.2-.25-1.14a10.69,10.69,0,0,0-.7-1.72,6.27,6.27,0,0,0-1.11-1.5l-.34-.32-.44-.11-1.11,0-1.1.23-.79.54-.78,1.09-.28,1.31,0,.49,0,.48c0,.8.09,1.56.13,2.33s.08,1.54.12,2.32l.08.7,0,.7.06.92.14.49.28.36.48.51.32.32a2.18,2.18,0,0,0,2.24.5,2.53,2.53,0,0,0,1.66-1.4l.47-.93.47-.92.5-1.45a4.42,4.42,0,0,0,0-1.54l-.07-.38Z" style="fill:#191210"/><path id="Path_240" data-name="Path 240" d="M114.35,204.42l-1,.05-.91-.17-.72-.58-.18-.75.18-.28.41-.13.64-.06.6,0,.26,0h.25l.24-.16.16-.25.06-.28c.07-1,.12-2,.18-2.95a21.87,21.87,0,0,0,0-2.92l-.06-.8.06-.76c0-1,.06-2,0-2.93a15.06,15.06,0,0,1,.22-2.92l0-.31,0-.35-.22-.71-.33-.24-.36-.07-.65-.75.25-.58.56-.26h.39l.42,0a8.93,8.93,0,0,0,1.63.17c.54,0,1.08,0,1.62,0h.66l.31.21.15.39,0,.08,0,.07-.21,1.09,0,1.07-.07.86-.12.86a10.13,10.13,0,0,0-.24,1.56c0,.52,0,1.05,0,1.6s.06,1.2,0,1.79a9.06,9.06,0,0,1-.24,1.8l0,.23,0,.27v2.68l.08.77.11.77.2.47.54.12.77.14.58.49.19.87-.22.31-.35.1-2.46.19c-.81.06-1.63.14-2.44.24v0l-.93,0m.16-25.06,1.12-.91a1.7,1.7,0,0,1,1.46,0,3.81,3.81,0,0,1,1.69,1.12l.45.87,0,.87-.31.8-.58.62-.4.27-.41.23a2.25,2.25,0,0,1-1.53.16l-.47-.11-.44-.17-.44-.41-.38-1-.11-1a1.88,1.88,0,0,1,.33-1.32" style="fill:#191210"/><path id="Path_241" data-name="Path 241" d="M122,203.25l-.07-.5v-.22l.1-.22a7,7,0,0,0,1.3-1.76c.32-.63.64-1.28,1-1.92l.3-.6.32-.59.43-.67.32-.73c.28-.57.56-1.12.84-1.66a10.82,10.82,0,0,0,.75-1.71A14.45,14.45,0,0,1,128,191c.29-.54.57-1.12.84-1.72l.45-1.19.46-1.21,0-.3-.25-.23-.8-.12-.76.24-.44.23-.47.08-.87,0-.9.08-.6.63-.14.59-.11.53-.23.3-.4.14-.4-.25a8.85,8.85,0,0,1-.17-1.53,7.42,7.42,0,0,1,.14-1.56l.4-.67.72-.36.66,0,.62,0h2.78l1.06-.06,1.07-.15,1.18-.17,1.22-.08.58.22.33.56a3.46,3.46,0,0,1-.1,1.75l-.49,1.22-.64,1.12-.67,1.11-.54,1.2-.55,1.28-.61,1.25-.75,1.68c-.25.56-.48,1.15-.69,1.76l-.47,1.12-.5,1.12-.26.52-.2.51-.29.74-.2.8.2.1.26.05,1,.06,1.05,0h.64l.68.05.48,0,.48,0,.79-.18.21-.75,0-1.22.07-1.19v-.18l.06-.16.16-.17.18-.14.49,0,.48,0,.58.27.26.58.1,1.44-.16,1.43-.1.66,0,.65-.17.33-.33.24-.27.06-.23,0-1,.05h-1l-1.21,0-1.22.19-.47.1-.47,0-1.89-.05-1.86,0-.42,0-.39-.09-.47-.14-.47-.14-.46-.1-.41-.09-.27-.5" style="fill:#191210"/><path id="Path_242" data-name="Path 242" d="M136.78,203.25l-.08-.5v-.22l.1-.22a6.81,6.81,0,0,0,1.3-1.76l1-1.92.3-.6.33-.59.42-.67.33-.73c.27-.57.55-1.12.84-1.66a10.82,10.82,0,0,0,.75-1.71,14.45,14.45,0,0,1,.79-1.69c.28-.54.57-1.12.84-1.72l.45-1.19.45-1.21,0-.3-.25-.23-.8-.12-.77.24-.44.23-.46.08-.88,0-.9.08-.6.63-.13.59-.12.53-.23.3-.39.14-.41-.25a10,10,0,0,1-.17-1.53,8.16,8.16,0,0,1,.14-1.56l.41-.67.72-.36.66,0,.62,0h2.78l1.06-.06,1.06-.15,1.19-.17,1.22-.08.58.22.32.56a3.25,3.25,0,0,1-.1,1.75l-.48,1.22-.64,1.12-.67,1.11-.55,1.2-.54,1.28-.61,1.25-.75,1.68c-.25.56-.48,1.15-.69,1.76l-.47,1.12-.5,1.12-.26.52-.2.51-.3.74-.2.8.2.1.27.05,1,.06,1.05,0H145l.67.05.48,0,.49,0,.78-.18.22-.75,0-1.22.06-1.19v-.18l.06-.16.16-.17.19-.14.48,0,.49,0,.57.27.27.58.1,1.44-.16,1.43-.11.66-.05.65-.17.33-.32.24L149,204l-.24,0-1,.05h-1l-1.22,0-1.22.19-.46.1-.47,0-1.89-.05-1.86,0-.42,0-.39-.09-.47-.14-.47-.14-.47-.1-.4-.09-.27-.5" style="fill:#191210"/><path id="Path_243" data-name="Path 243" d="M161,203.52l-.34.17a4.66,4.66,0,0,1-2,.89,7.51,7.51,0,0,1-2.17,0,7.74,7.74,0,0,1-1.89-.55,5.27,5.27,0,0,1-1.61-1.11l-.46-.44-.35-.56-.55-1.28-.16-1.38a8.21,8.21,0,0,1,.32-1.91,4.94,4.94,0,0,1,.92-1.74l.47-.5.94-1,1.21-.65,1.4-.48a5,5,0,0,1,1.45-.09l1,0,1.05-.11a2.89,2.89,0,0,0,1.62-.77,2.81,2.81,0,0,0,.79-1.58v-.31a2.54,2.54,0,0,0,0-1.7,6.08,6.08,0,0,0-.83-1.52l-.8-.66-1.07-.11-.74,0-.74,0-.77.07-.53.42v.61l1,1.46,0,1.07L158,190l-.13.22-.74.75-1,.16-1.17-.31-.86-.88a3.39,3.39,0,0,1-.39-2.05,4.32,4.32,0,0,1,.8-1.91,3.6,3.6,0,0,1,2.28-1.5,9.8,9.8,0,0,1,1.53-.27,10.16,10.16,0,0,1,1.56,0,5.14,5.14,0,0,1,1.76.58,4.37,4.37,0,0,1,1.46,1.17,7.61,7.61,0,0,1,1.71,3.47l.08.33.08.32a4.12,4.12,0,0,1,.06,1.91l-.14,1.34-.26,1.28-.13.49-.12.48-.2.61-.24.61a7.37,7.37,0,0,0-.45,2.17,17.47,17.47,0,0,0,0,2.17l.06.34.38.46.53.17.37-.06.44-.07.64.27.07.7-.63.94-1.05.47a2.7,2.7,0,0,1-2-.44l-.48-.33-.52-.29-.37.2m-5.22-1.93.72,1,1.19.36a2.38,2.38,0,0,0,1.46-.6l.55-.5.51-.53.35-.53.08-.4,0-.41c.17-.87.32-1.75.44-2.65a11.76,11.76,0,0,1,.69-2.62l0-.52-.61-.08-1,.11-1,.11-.87.16-.88.27-.65.46-.5.64-.36.83-.42.83a3,3,0,0,0-.25,1.5,7.94,7.94,0,0,0,.5,2.59" style="fill:#191210"/><path id="Path_244" data-name="Path 244" d="M111.74,209.72h41.45v1.95H111.74" style="fill:#191210"/><path id="Path_265" data-name="Path 265" d="M121.92,78.71l47.9,25.72L30.54,132,16.2,95.65Z" style="fill:#fdf1d7"/><path id="Path_266" data-name="Path 266" d="M86,113.61a11.53,11.53,0,0,1-1.76.17c-.5-.11-.16-.36-.77-.33l-.76,0-1-.34-.77.11c-.67.09-1.33.06-2,.18-1.25.23-2.66.84-3.93.73-1.63-.14-3.26,0-4.89-.26a13.52,13.52,0,0,0-4.25-.29c-1.07.2-1.71.73-2.86.37-.9-.28-2-2-.33-1.73.52.07,1.57.9,2.05.59a4.91,4.91,0,0,1,1.66-.8,25.13,25.13,0,0,1,4.07-.1c1.43,0,2.86.06,4.29.1a24.18,24.18,0,0,0,2.69-.22,3.63,3.63,0,0,1,1.64-.07,3.89,3.89,0,0,0,1.91-.22c1.52-.29,2.65.59,4.15.77,1.22.16,2.28-.15,3.52.19.58.16-.72,1-.82,1a4.29,4.29,0,0,1-1.85.13" style="fill:#191210"/><path id="Path_267" data-name="Path 267" d="M85.43,99.28c.59.51,2.57,2.19,1.4,3-.53.36-1.3-.21-1.89-.2a7.86,7.86,0,0,1-1.74-.25c-1.21-.2-2.74-.38-1.81-2,.8-1.35,2.8-1,4-.55" style="fill:#191210"/><path id="Path_268" data-name="Path 268" d="M61.43,108.89a7.13,7.13,0,0,0,3.08-.25c1.14-.44,1.35-1.26,1.54-2.36s1.51-1.3.32-2.33l-2,0a3.3,3.3,0,0,0-2.19,1.73c-.95.3-5.38,1.92-3.12,3.47l2.4-.3m3.31-2.48-.43.71c-.59-.3-.27-1.25.43-.71" style="fill:#191210"/><path id="Path_269" data-name="Path 269" d="M90.43,91.28l1.32,0c.85,0,2.55-1.21,3.14-.23s-1.26,1.27-1.56,2.08a2.31,2.31,0,0,1-2.55,1.4c-1.42-.13-2.77-.67-4.2-.68s-.87-1.18,0-1.84c.35-.29,2.47-1.58,2.86-.93.23.38-.67,2,.49,1.32.54-.34.22-.72.55-1.14" style="fill:#191210"/><path id="Path_270" data-name="Path 270" d="M79.3,106.79a9.32,9.32,0,0,0-2.25,1.48c-.92.77-4,.4-4.55-.75s2.35-2,3.16-2.1a26.14,26.14,0,0,1,4.15.06c.79,0-.26,1.2-.51,1.31" style="fill:#191210"/><path id="Path_271" data-name="Path 271" d="M57.19,113.46l-2.45.19a17,17,0,0,1-5.61-.85,16.07,16.07,0,0,0-2.19-.33l-1.79-.39c-.67.1-1.17-.42-1.72-.37s-.42-.27-1-.43a36.78,36.78,0,0,1-3.71-1,6.79,6.79,0,0,1-1.62-1l-1.21-1.07c-.77-1.49,1.23-.88,1.77-.28A4.19,4.19,0,0,0,40,109.12l4.08,1.35a16,16,0,0,0,3.31.44A29.38,29.38,0,0,1,52,112a8.17,8.17,0,0,0,3.76.53c.71-.18,1.45-.54,2.13-.16s-.35,1-.73,1" style="fill:#191210"/><path id="Path_272" data-name="Path 272" d="M66.44,88.73c3.13-.64,6.63-1.49,9.83-.91.8.14-.65,1-.87,1a7,7,0,0,0-2.17.37c-1.4.66-3.32.61-4.83.9-2.51.46-5,1.15-7.46,1.6-.52.09-.56-.36-.44-.75L61.6,90a20.29,20.29,0,0,1,4.83-1.29" style="fill:#191210"/><path id="Path_273" data-name="Path 273" d="M74.41,96.2a6.11,6.11,0,0,1-3.31.87c-.88-.29,0-2.29.41-2.65a3.32,3.32,0,0,1,1.74-.77c.53,0,1,.28,1.55.26.89-.11-.24,2.1-.39,2.29" style="fill:#191210"/><path id="Path_274" data-name="Path 274" d="M60.84,95.4l.67,0c.75.28.6,1.1,0,1.36s-1.45.26-2.15.5a18.86,18.86,0,0,1-3.88.46c-.94.13-.42-1-.15-1.34.51-.56,1.06-1.36,1.83-1.48a6.19,6.19,0,0,1,2.5,0l1.23.46" style="fill:#191210"/><path id="Path_275" data-name="Path 275" d="M139.23,99.2c-.32,1.56-2.18,3.24-3.54,3.89-.7.33-1.31.81-2,1.16s-1.57.6-2.34,1a47.25,47.25,0,0,1-4.72,2.08c-1.89.62-3.77,1.3-5.64,2a116.6,116.6,0,0,1-11.91,3.15c-1.14.28-2.46.12-3.5.77-1.9.38-3.8.85-5.68,1.33a25.23,25.23,0,0,1-6,1c-1.62,0-3.16.7-4.78.63-1.78.33-3.6.27-5.38.47-.94.11-1.91.1-2.85.15a9,9,0,0,1-2.07.13c-1.3-.25-2.62.4-3.87.21a25.14,25.14,0,0,0-4.9.21,22,22,0,0,1-3.25,0c-.81-.08-1.6.21-2.41.13s-1.76,0-2.63.09-1.89-.1-2.84-.2c-2-.21-3.93-.21-5.89-.59-.92-.18-1.76-.15-2.66-.35s-1.73-.17-2.57-.4-1.27-.07-2-.29-1.81-.48-2.7-.76c-.52-.16-1.05-.29-1.59-.4l-.77-.5c-.81-.25-1.57-.65-2.4-.9a11.23,11.23,0,0,1-4.18-2.21,9.42,9.42,0,0,1-2.63-3.64,3.28,3.28,0,0,1-.39-2.06,7.52,7.52,0,0,1,1.11-2.34c1.88-2.64,5.09-4.48,8-5.75a49.18,49.18,0,0,0,5.34-2.53c.76-.45,1.72-.66,2.54-1a30.75,30.75,0,0,1,4.4-1.38,12.81,12.81,0,0,1,3-.49c.76-.06-.49,1-.6,1a7.31,7.31,0,0,0-1.95,1l-1.05.3-1.41.6c-.93.4-1.84.81-2.76,1.22a30.94,30.94,0,0,0-5.26,2.51c-1.43,1-3.29,1.41-4.83,2.31a11.1,11.1,0,0,0-3.68,2.91c-2.1,3.15,1.25,6.25,3.94,7.55A49,49,0,0,0,43.51,113a5.06,5.06,0,0,0,1.74.55c.79,0,1.41.68,2.31.6a24.41,24.41,0,0,1,4.9.52c3.78.49,7.53.5,11.34.62,6.26.18,12.53-.69,18.81-.66a8,8,0,0,1,1.65-.17,7.4,7.4,0,0,0,2.57-.12c1.76-.23,3.64-.1,5.37-.44.84-.17,1.5-.43,2.35-.56s1.8-.24,2.7-.36c1.09-.14,2.16-.33,3.24-.57,2-.44,3.94-.88,5.9-1.35s4.2-1,6.3-1.53c.66-.17,4.57-.75,4.51-1.59a13.5,13.5,0,0,0-5.44.34c-1.75.51-3.4,1.26-5.18,1.7a50.11,50.11,0,0,1-10.33,1.44,12.84,12.84,0,0,0-2.4.23c-.66.17-1.24.73-1.54,0-.44-1.08,3.32-1.49,3.84-1.53a10.82,10.82,0,0,0,2.75-.6,11.74,11.74,0,0,1,2.71-.39,26,26,0,0,0,5.32-1c.81-.27,1.64-.42,2.46-.66l1-.43,1-.15a7.61,7.61,0,0,0,1.72-.59c1,0,2,.12,3,.16l2.62,0c.12.2-.62,1.41.16,1.22,1.91-.47,3.78-1.14,5.64-1.78s4-1.42,5.91-2.26a29.07,29.07,0,0,0,4.81-2.38,20.09,20.09,0,0,0,2.3-1.93c.58-.55,1.15-.79.8-1.58a11.72,11.72,0,0,1-.22-2.51c-.13-.76-1-1.44-1.54-2-2.73-2.62-6.75-3.35-10.27-4.22-2-.48-4-.85-6-1.13a9.79,9.79,0,0,0-2.34-.33,7.32,7.32,0,0,1-2.24,0,82.9,82.9,0,0,0-11.14-.46c-2,0-4.09,0-6.12,0l-2.87.08a8.65,8.65,0,0,0-2.78.07,9.15,9.15,0,0,1-2.81.2,8.73,8.73,0,0,1-2.34,0c-.66.39-1.16.14-1.83.27a23.45,23.45,0,0,1-2.61.38c-.41,0-2.79.29-2.49-.65.18-.58,1.06-1,1.59-1.11a33.84,33.84,0,0,1,4.9-.62c3.37-.45,6.73-.27,10.07-.51a100.58,100.58,0,0,1,12.52,0c3.25.16,6.41.67,9.62.78.77.51,1.87.36,2.73.56s1.8.35,2.71.47c1.58.22,3.44,1.61,5.07,1.27l1.39.66,1.51.64c1.41.65,2.78,1.41,4.16,2.11s2,2.61,2.5,3.8a2.23,2.23,0,0,1,.07,1.92l-.64.9.27.76" style="fill:#191210"/><path id="Path_276" data-name="Path 276" d="M67.55,41A9.81,9.81,0,0,1,66,46.11a6.76,6.76,0,0,1-3.29,3,20.26,20.26,0,0,1-2.9.76c-.76.17-1.52,0-2.3.25-1.42.38-3.68.86-4.53,2.15-.63,1-.44,1.78-.43,2.9,0,.46.19,2.07-.8,1.53s-.54-3.58-.35-4.38c.44-1.93,1.53-2.87,3-4a10.63,10.63,0,0,1,5-1.73A9.6,9.6,0,0,0,64.12,45C65.35,44,65.85,42,66,40.48c.29-3.31-1.85-6.14-4.12-8.29a74.8,74.8,0,0,0-7.6-6.4,5.93,5.93,0,0,1-1.86-2,5.86,5.86,0,0,1-1.51-1.63,4,4,0,0,1-.59-1.87l.83-.86a6.9,6.9,0,0,0,2,3.32c.81.73,1.5,1.57,2.35,2.22,2.13,1.62,4.2,3.41,6.37,4.94a14.51,14.51,0,0,1,4.28,4.9A16.08,16.08,0,0,1,67.55,41" style="fill:#191210"/><path id="Path_277" data-name="Path 277" d="M96.11,105.88c1.14-.71-.27-1.23-.3-1.8a6.47,6.47,0,0,0-5.67.47c-.77.37-2.26.67-2.62,1.52s.28,1.58,1.18,1.84c.7.21,2.19.39,2.66-.35a2.33,2.33,0,0,1,1.89-1.4c.87-.13,2.08.21,2.86-.28m-5.31.6c-.91-.07.06-1.12.57-1,.69.12-.2,1.06-.57,1" style="fill:#191210"/><path id="Path_278" data-name="Path 278" d="M83.64,71.09a17.87,17.87,0,0,1,1.44,1.85,3.83,3.83,0,0,1,.07,3.66A10.12,10.12,0,0,1,82,80.16c-1.74,1.38-1.38,3.32-2.34,5.09-.43.8-1.33,1.35-1.65,2.15L77.29,90l-.49-1.8a5.41,5.41,0,0,1,.7-2.48c-1.4-.23-2.84.35-4.2.57a21.42,21.42,0,0,1-2.77.24,21.68,21.68,0,0,1-2.26.5c-1.62.27-3.38.27-5,.66-.51.13-4,.72-3.14-.8.62-1.11,3.06-.87,4.15-1,1.76-.3,3.53-.55,5.31-.81s3.54-.5,5.3-.8c.66-.12,1.65-.53,2.28-.29L78,85c1,0,.39-2.8.4-3.3a4.89,4.89,0,0,1,1.5-3.53,12.32,12.32,0,0,1,2.21-1.25c.58-.31,1.53-.52,1.91-1.06.89-1.27-.47-2.33-1.34-3-2.15-1.82-3.48-4.29-2.4-7.1.26-.68.94-.87,1.47-1.25s1-.91,1.63-1.29l3-1.71c1,.82-2.31,3.81-2.93,4.32a4,4,0,0,0-1.3,3.8c.22.67,1.06.9,1.45,1.51" style="fill:#191210"/><path id="Path_279" data-name="Path 279" d="M102.78,92.31A1.53,1.53,0,0,1,104,91a2.93,2.93,0,0,1,1.56.51l1-.18a2,2,0,0,1,2.27-.39c.77.23,1.56.62,1.17,1.59-.26.64-1.28.72-1.71,1.34-.6.87-.74.94-1.85.76a4.47,4.47,0,0,1-2.11-.8c-.49-.3-1.77-.75-1.61-1.51" style="fill:#191210"/><path id="Path_280" data-name="Path 280" d="M102.09,100a5.22,5.22,0,0,1-2.85-.56c-.65-.43-.54-.8-1.44-.33s-1-.91-.69-1.39A3.06,3.06,0,0,1,99,96.82a6.83,6.83,0,0,1,2.17-.57,5.17,5.17,0,0,1,2.3.72,1.38,1.38,0,0,1,.56,1.85c-.36,1-1,1.15-2,1.2" style="fill:#191210"/><path id="Path_281" data-name="Path 281" d="M67.89,46.53c.92.79.34,3.3,0,4.23a6.45,6.45,0,0,1-2.66,3.69,41.47,41.47,0,0,1-5.19,2.64c-1.75.67-4.11,1.09-4.93,2.9-.42.91-1.25-.88-1.16-1.3a4.28,4.28,0,0,1,1.25-2.14c1.66-1.36,3.75-2.09,5.59-3.16,1.63-1,3.31-1.65,4.59-3.1A10.47,10.47,0,0,0,67,47.81c-.09-.44.09-2,.9-1.27" style="fill:#191210"/><path id="Path_282" data-name="Path 282" d="M59.87,65.71A9,9,0,0,1,63.19,70c.2.52,1.1,4.74-.61,3.7-.54-.33-.17-1.71-.34-2.3a4.29,4.29,0,0,0-1.22-2,26.84,26.84,0,0,0-4.93-3.16c-.69-.87-1.38-1.72-2.11-2.55-.56-.62-.84-1.38-1.36-2-.38-.49-1.14-1.73-.63-2.34a1,1,0,0,1,1.41-.07l.09.09a10.12,10.12,0,0,0,1.74,2.33,36.72,36.72,0,0,0,4.64,4" style="fill:#191210"/><path id="Path_283" data-name="Path 283" d="M65.18,65.56c.68,1,1.76,1.7,2.46,2.7a8.43,8.43,0,0,1,.74,7.33c-.74,1.93-2.26,4.06-4.3,4.74a29.56,29.56,0,0,1-3.38,1.32c-.72.15-2.29,1.45-2.87,1-1.71-1.46,3.85-4.08,4.7-4.48,2.43-1.12,4.14-2.65,4.35-5.5a6.86,6.86,0,0,0-3-6c-1-.66-2.18-1-3.22-1.56s-.66-2.1.53-1.4,3.28.84,4,1.94" style="fill:#191210"/><path id="Path_284" data-name="Path 284" d="M86.11,67.67l1.3-1.14a3.08,3.08,0,0,0,1.2-3.17c-.76-3.3-3.57-5.39-5.38-8.14a19.76,19.76,0,0,1-2.18-4.9c-.29-.81.37-6.35,1.9-5.27l.29,2a19.5,19.5,0,0,1,.05,2.29,6.73,6.73,0,0,0,1.14,3.95c1.58,2.63,3.69,5,5.1,7.69,1.54,3-.54,5.94-3,7.54-1,.64-1.08-.22-.48-.9" style="fill:#191210"/><path id="Path_285" data-name="Path 285" d="M45.53,15.07,45.31,19A4.94,4.94,0,0,0,46,21.77a43.65,43.65,0,0,0,3.74,4.92c2.41,2.57,5.38,4.41,8.21,6.49a17.62,17.62,0,0,1,2.11,1.65l1.49,1c.55.58,1.27.93,1.82,1.48l.7,1.43-1,.31a5.66,5.66,0,0,0-1.42-1.2c-1.44-.95-3-1.8-4.4-2.74-2.82-1.87-6-3.5-8.55-5.75-2.18-1.91-4.25-4-5-6.86a13.4,13.4,0,0,1-.08-3.95c.1-1.07.64-3.29,2-3.5" style="fill:#191210"/><path id="Path_286" data-name="Path 286" d="M18.31,94.78a4.79,4.79,0,0,1,1.28,1.67c.64,1.23.52,2.5.94,3.74,2.18,6.45,4.21,12.89,6.5,19.31a41.51,41.51,0,0,1,1.24,4,23.3,23.3,0,0,0,.74,2.28c.23.65.26,1.33.51,2,.6,1.52,3.37.38,4.6.18l5.71-.93a40.29,40.29,0,0,1,4.48-.88,50.73,50.73,0,0,0,5.32-1,24.79,24.79,0,0,0,2.58-.43,11.53,11.53,0,0,1,1.86-.07c1.8-.24,3.6-.9,5.4-1.23s3.78-.62,5.66-1c3.74-.75,7.54-1.38,11.32-2.11,4-.76,8-1.46,12-2a26.13,26.13,0,0,0,4.88-.86c1.26-.44,2.94-.09,4.17-.59a25.89,25.89,0,0,1,5.84-1.13c2.08-.32,4.15-.66,6.22-1q5.49-.9,11-1.93L131,110.84c5.93-1.1,11.87-2.08,17.83-3.12,4.11-.71,8.17-1.6,12.3-2.18,2.14-.3,4.28-.6,6.4-1,.4-.07,1.82-.07,1.56-.82s-1.48-.8-2-1.2a19.41,19.41,0,0,0-3.56-1.92l-5.44-2.74-1.25-.63c-.6-.3-1.17-.66-1.8-1l-1-.58-.8-.41a15.4,15.4,0,0,0-2.77-1.49c-.88-.48-1.73-1-2.6-1.52-.71-.42-1.47-.56-2.23-1s-1.6-.93-2.4-1.39c-3.89-2.3-8.09-4-12.08-6.2l-2.59-1.39-.4-.21c-.72,0-1.15-.69-1.76-.88-1.49-.48-2.94-1.76-4.6-1.46-1.88.33-3.82.33-5.7.72-.9.18-1.7.1-2.57.27s-1.7.07-2.54.23a43,43,0,0,1-5.32.68c-1.83.11-3.6.57-5.41.83a17.8,17.8,0,0,1-2.63.19,4.31,4.31,0,0,1-2.31.48,23.66,23.66,0,0,0-4.74.68,11.39,11.39,0,0,0-2.46.34l-1-.12-1.23.35c-.6.09-4.81.69-3.3-1,.87-1,3.41-.66,4.62-.92.94-.2,1.88-.36,2.84-.49a10.24,10.24,0,0,0,2.07-.21,26.75,26.75,0,0,1,5-.82c2.77-.37,5.52-.75,8.27-1.14,3-.42,6-.8,9-1.16,1-.13,2-.29,3-.45.79-.14,1.55,0,2.35-.21,1.51-.34,2.9-.78,4.43-.23l.63.4,1.21.75,1.35.58c.85.4,1.68.83,2.51,1.28a44.07,44.07,0,0,1,4.69,2.4,28,28,0,0,0,4.14,2.24,15.26,15.26,0,0,0,2.11,1.13l1.84,1.08.74.41.91.21c.86.5,1.72,1,2.59,1.45,1.61.87,3.32,1.57,4.89,2.47.81.46,1.57.89,2.4,1.33s1.59.5,2.32,1c1.45.92,3,1.7,4.52,2.48,2.11,1,4.13,2.35,6.27,3.34a12.41,12.41,0,0,1,4.78,3.22c.55.65,1.1,1.08.83,2l-.9,1.14-4.93,1.12c-1,.24-2.08.39-3.14.53-1.81.24-3.54.72-5.32,1-1.62.28-3.27.29-4.88.69l-.76-.09-.86.25a13.07,13.07,0,0,0-2.57.38c-1.62.49-3.42.3-5,1a12.52,12.52,0,0,1-2.36.4l-3.2.57c-.71,0-1.42.1-2.12.2l-1,.45-1.21.11a8.65,8.65,0,0,0-2.31.38c-1.77.65-3.92.66-5.79,1a42.49,42.49,0,0,1-6,.69,25.29,25.29,0,0,1-5.64,1.19c-2.09.26-4.09.66-6.14,1.09-1.78.37-3.57.48-5.34.86a6.83,6.83,0,0,1-1.61.25c-.53,0-.38-.27-.89,0a8.71,8.71,0,0,1-2.17.58c-.83.18-1.67.23-2.5.45a16.13,16.13,0,0,1-2.41.24c-.54.06-.88.33-1.42.34l-1.31.1a11.44,11.44,0,0,0-2.38.56,15.3,15.3,0,0,1-2.13.37q-3.42.6-6.83,1.25-3.2.59-6.37,1.24l-1.59.22c-.76,0-1.35.37-2.06.42-1.88.12-3.58.73-5.43,1s-3.75.64-5.63.94a33.4,33.4,0,0,1-5.45.85c-.33,0-.36.64-.29,1.41a7.72,7.72,0,0,0-2.71.12l-.07-.26c-.34-.76-1.65-.47-2.17-.15l-3,.54c-2,.35-4,.6-6,.92s-4.16.85-6.24,1.27c-.95.2-1.9.37-2.85.52A3.66,3.66,0,0,1,28.36,130a27,27,0,0,1-1.93-5.55c-.62-1.92-1.3-3.82-1.95-5.74-1.21-3.58-2.18-7.14-3.32-10.77-.66-2.09-1.17-4.33-2-6.35a30.08,30.08,0,0,1-1.62-5.25c-.09-.41-.22-2.3.8-1.58" style="fill:#191210"/><path id="Path_287" data-name="Path 287" d="M88.51,55.34l-.23-.67a14.18,14.18,0,0,0-.68-1.78,11.5,11.5,0,0,1-.88-2l.1-.56.41,0a10.5,10.5,0,0,1,1.48,2.3A6.58,6.58,0,0,1,89.13,55l-.62.32" style="fill:#191210"/><path id="Path_288" data-name="Path 288" d="M129,101.55A15.06,15.06,0,0,0,133.68,99c.3-.29,2.24-2.92,2.84-2.28,1,1.08-1.39,3.12-2.13,3.73a14.68,14.68,0,0,1-4.77,2.52c-1.88.62-3.81,1.08-5.73,1.53a12,12,0,0,0-2.52.51l-1.85.46c-.65-1.22,3.33-2.05,4-2.16a28.25,28.25,0,0,0,5.47-1.72" style="fill:#191210"/><path id="Path_289" data-name="Path 289" d="M111.32,101.64a3,3,0,0,1-3-.93c-.64-.83.54-2,1.4-1.43.46.31.59.09,1.13.36a3.72,3.72,0,0,0,1.73.4c.45.92-.4,1.45-1.21,1.6" style="fill:#191210"/><path id="Path_290" data-name="Path 290" d="M114.59,94.16c1.31-1,2.84-1.73,4.44-1,.62.65,1.61.48,2.2,1a1,1,0,0,1,.08,1.44,1,1,0,0,1-.62.33,5.61,5.61,0,0,0-1.53-.05l-1-.26c-.69,0-1,.64-1.71.75-1.21.22-3.39-1.1-1.87-2.21" style="fill:#191210"/><path id="Path_291" data-name="Path 291" d="M55.25,101.44c.42.51,3.16,1.85,1.09,2.45a17.18,17.18,0,0,1-1.78.11l-1.5.36c-.54-.15-1.2.06-1.48-.69A1.63,1.63,0,0,1,52,102a2.62,2.62,0,0,1,3.21-.56" style="fill:#191210"/><path id="Path_292" data-name="Path 292" d="M85.56,47.67c-.78.45-1.25-1.77-1.37-2.19-.28-1-1.46-2-2.07-2.81-1.74-2.18-3.6-4.28-5.55-6.28-1-1-1.88-2-2.9-3L72.53,32l-1-1.37a6.77,6.77,0,0,1-.76-3.48c0-.46,0-2.71,1-2.16.53.29.28,1.32.32,1.81a5.39,5.39,0,0,0,.35,1.54c.22.56.68,1,.82,1.52l.7.87A13.23,13.23,0,0,1,76.41,33c.73.78,1.79,1.28,2.36,2.21A17.11,17.11,0,0,0,81.1,38a17.57,17.57,0,0,1,2.4,3.34c.54.91,3.56,5.46,2.06,6.35" style="fill:#191210"/></g></g></g></g></svg>