<svg id="圖層_1" data-name="圖層 1" xmlns="http://www.w3.org/2000/svg" xmlns:xlink="http://www.w3.org/1999/xlink" viewBox="0 0 267.57 267.57"><defs><clipPath id="clip-path"><rect x="7.43" y="58.19" width="260.14" height="158.41" style="fill:none"/></clipPath></defs><g id="Group_15" data-name="Group 15"><rect id="Rectangle_223" data-name="Rectangle 223" width="267.57" height="267.57" style="fill:none"/><g id="Group_14" data-name="Group 14"><g style="clip-path:url(#clip-path)"><g id="Group_13" data-name="Group 13"><path id="Path_148" data-name="Path 148" d="M213.22,166.67c24.07-29.34,58.14-74.85-4.1-91.66S70.94,79.22,39.8,92.52s-38.1,33.81-1.94,58.29S130.77,213.08,155,209.15c18.8-3.06,46.59-28.27,58.24-42.48" style="fill:#ba95a2"/><path id="Path_149" data-name="Path 149" d="M135.35,69.82c26.45,0,54.41,3.48,79.46,13.25,60.6,23.62,22.61,66-4,93.12C198,189.32,168,211.84,149,212.94l-1.16,0c-25,0-77.14-43.32-110.52-71.47C3.44,112.9,12.18,92.9,44.4,82.76c18.91-6,53.41-12.94,90.95-12.94m0-3.62c-37.13,0-71.88,6.76-92,13.1C25.08,85,14.72,93.51,12.52,104.5c-2.37,11.81,5.2,25.19,22.49,39.77,41.49,35,87.86,72.33,112.85,72.33l1.37,0c21.49-1.23,53.09-26.49,64.2-37.83,21.85-22.3,41.44-45.93,36.76-67.7C247.37,98,235.91,87.4,216.12,79.69c-23-9-50.14-13.5-80.78-13.5" style="fill:#6c2241"/><path id="Path_150" data-name="Path 150" d="M74.84,190.86c2.59,2.92,5.37,5.83,8.22,8.75-.27,2.19-4.17,4.57-6.7,4.71-2.58-2.59-5.1-5.31-7.49-8-6.1,4.63-13.19,7.49-20.48,7.42-14-.2-23.53-11.73-19.49-25.32,2.72-9,9.68-13.52,17.1-17A42.62,42.62,0,0,1,44,153c-3.71-18.42,7-31.95,21.48-29.3,11.73,2.26,15,13.39,12.19,22.8C74.51,156.85,65.29,161,56.35,164.87a125.65,125.65,0,0,0,13.06,19.5,43.15,43.15,0,0,0,9.14-17.83c2.46-.47,6.17,1.26,7.76,3.57a50.08,50.08,0,0,1-11.47,20.75m-11.33-.8a125.07,125.07,0,0,1-14.59-21.87c-5.23,2.65-9.54,5.9-11.27,11.2-3,8.68,2.72,16.3,11.54,16.3,4.71,0,9.74-2.12,14.32-5.63M53.29,158.12c7.1-3.12,13.46-6.43,15.91-12.93,2.19-5.9.8-13-5.63-14.38-8.88-1.86-14.78,9.8-11.8,21.74a37.32,37.32,0,0,0,1.52,5.57" style="fill:#fdf1d7"/><path id="Path_151" data-name="Path 151" d="M76.22,204.69l-.12-.11c-2.36-2.37-4.81-5-7.27-7.78-6.38,4.77-13.35,7.29-20.19,7.29h-.25C41.27,204,35,201,31.22,195.81c-3.62-4.92-4.56-11.14-2.67-17.52,2.77-9.18,9.78-13.67,17-17.12a41.88,41.88,0,0,1-2-8.11c-1.85-9.15-.2-17.71,4.5-23.46A17.51,17.51,0,0,1,61.85,123a21.16,21.16,0,0,1,3.64.34,15.79,15.79,0,0,1,10.92,7.24c2.66,4.37,3.24,10.36,1.57,16-3.19,10.6-12.66,14.8-21.12,18.44a126.64,126.64,0,0,0,12.55,18.72,42.42,42.42,0,0,0,8.78-17.33l.06-.23.24-.05.92-.08a9.67,9.67,0,0,1,7.2,3.81l.1.15,0,.16a50.54,50.54,0,0,1-11.33,20.65c2.18,2.46,4.66,5.09,8,8.49l.12.13,0,.17c-.29,2.37-4.28,4.89-7.05,5Zm-7.29-8.9.22.26c2.5,2.84,5,5.49,7.36,7.88,2.34-.21,5.74-2.31,6.16-4.2-3.39-3.45-5.89-6.12-8.1-8.62l-.22-.25.22-.25a49.87,49.87,0,0,0,11.34-20.42,9,9,0,0,0-6.5-3.36l-.55,0a43.27,43.27,0,0,1-9.17,17.75l-.29.34-.28-.35A128.27,128.27,0,0,1,56,165.05l-.18-.35.37-.16c8.4-3.61,17.92-7.7,21.06-18.13,1.62-5.47,1.07-11.24-1.49-15.44a15,15,0,0,0-10.42-6.89,20.44,20.44,0,0,0-3.5-.33,16.79,16.79,0,0,0-13.19,6.31c-4.57,5.58-6.15,13.92-4.35,22.88a42.56,42.56,0,0,0,2,8.31l.11.31-.3.14C39,165.1,32,169.48,29.27,178.5c-1.83,6.15-.92,12.14,2.55,16.87,3.65,5,9.7,7.88,16.59,8h.24c6.77,0,13.69-2.54,20-7.35Zm-19.74.28A12.17,12.17,0,0,1,36.4,184.54a12.35,12.35,0,0,1,.9-5.27c1.94-6,7.14-9.23,11.46-11.41l.33-.17.16.34a125.46,125.46,0,0,0,14.54,21.81l.24.29-.3.23c-4.79,3.68-10,5.71-14.54,5.71m-.43-27.38C44.64,170.81,39.81,174,38,179.51a11.42,11.42,0,0,0,6.12,15,11.54,11.54,0,0,0,5.06.87c4.32,0,9.21-1.89,13.79-5.33a125.14,125.14,0,0,1-14.22-21.31m4.32-10.08-.13-.36a35.83,35.83,0,0,1-1.54-5.63c-1.7-6.78-.57-14,2.87-18.44,2.46-3.15,5.8-4.48,9.37-3.74a8.18,8.18,0,0,1,5.62,4.13c1.6,2.9,1.7,6.92.28,10.75-2.53,6.71-9.06,10-16.1,13.13ZM61.72,131a8.61,8.61,0,0,0-6.85,3.66c-3.32,4.23-4.39,11.23-2.74,17.82a37.05,37.05,0,0,0,1.38,5.16c6.75-3,13-6.23,15.35-12.56,1.34-3.62,1.26-7.41-.24-10.14a7.43,7.43,0,0,0-5.13-3.75,8.72,8.72,0,0,0-1.77-.19" style="fill:#fdf1d7"/><path id="Path_152" data-name="Path 152" d="M72.77,190.86c2.59,2.92,5.37,5.83,8.22,8.75-.27,2.19-4.17,4.57-6.7,4.71-2.58-2.59-5.1-5.31-7.49-8-6.1,4.63-13.19,7.49-20.48,7.42-14-.2-23.53-11.73-19.49-25.32,2.72-9,9.68-13.52,17.1-17a42.62,42.62,0,0,1-2-8.35c-3.71-18.42,7-31.95,21.48-29.3,11.73,2.26,15,13.39,12.19,22.8C72.44,156.85,63.22,161,54.28,164.87a125.65,125.65,0,0,0,13.06,19.5,43.15,43.15,0,0,0,9.14-17.83c2.46-.47,6.17,1.26,7.76,3.57a50.08,50.08,0,0,1-11.47,20.75m-11.33-.8a125.07,125.07,0,0,1-14.59-21.87c-5.23,2.65-9.54,5.9-11.27,11.2-3,8.68,2.72,16.3,11.54,16.3,4.71,0,9.74-2.12,14.32-5.63M51.23,158.11c7.09-3.12,13.46-6.43,15.91-12.93,2.18-5.9.8-13-5.64-14.38-8.88-1.86-14.78,9.81-11.8,21.74a35.88,35.88,0,0,0,1.53,5.57" style="fill:#191210"/><path id="Path_153" data-name="Path 153" d="M211.56,174.25a13.58,13.58,0,0,0-3.83,3.29,1.9,1.9,0,0,0,0,2.62,1.88,1.88,0,0,0,2.62,0,10.69,10.69,0,0,1,3.08-2.72,1.85,1.85,0,0,0-1.87-3.19" style="fill:#fdf1d7"/><path id="Path_154" data-name="Path 154" d="M40.17,80.45l-2.93,3.72a1.9,1.9,0,0,0,0,2.62,1.87,1.87,0,0,0,2.61,0l2.94-3.72a1.94,1.94,0,0,0,0-2.62,1.86,1.86,0,0,0-2.62,0" style="fill:#fdf1d7"/><path id="Path_155" data-name="Path 155" d="M50.5,83.27c-1.68.18-5.54-.31-11.5.25-.87,3.23-2,7.51-3.35,11.92,2.11-.31,4.28-.55,6.52-.74,3.61-.12.56,7-2.49,7.39-2.11.26-4,.5-6.15.69-2.18,7.7-4.16,14.42-4.53,15.53-1.12,2-6.28.38-6.22-1.17.56-2.37,2-7.7,3.54-13.61l-1.12.12c-1.49-.19-1.05-6,1-6.77.56-.07,1.24-.13,2-.25,1.18-4.41,2.3-8.64,3.23-12-1.8.37-3.67.87-5.71,1.43-1.44.5-1.62-6.34.8-7.58,13.36-4.17,21.63-2.61,25.1-2.18,1.56,1.37.06,6.59-1.11,7" style="fill:#fdf1d7"/><path id="Path_156" data-name="Path 156" d="M26.88,119.61a6.18,6.18,0,0,1-4-1.45l-.46-1c.45-1.9,1.42-5.58,2.54-9.83l.88-3.33h0l-.53.06h-.1c-.36,0-1-.34-1.16-1.78-.25-1.95.42-5.06,2.06-5.71l.1,0,.34,0,1.4-.18.66-2.47c.84-3.17,1.64-6.16,2.34-8.7-1.64.36-3.35.82-5.1,1.3l-.24,0c-.35,0-.83-.23-1.09-1.33-.44-1.82-.18-5.93,1.87-7a58.49,58.49,0,0,1,17.3-2.86,50.09,50.09,0,0,1,7.24.55l.78.1h.12l.09.08c1.11,1,.78,3.24.58,4.17-.23,1.13-.89,3.12-1.83,3.42l-1.2.06-1.6,0c-.8,0-1.74,0-2.8,0-2,0-3.85.08-5.72.25-1.09,4-2.14,7.77-3.13,11.14,1.94-.28,3.94-.5,6-.67h.12A1.78,1.78,0,0,1,44.17,96a1.27,1.27,0,0,1,0,.2c.14,2.35-2.13,6-4.44,6.28l-1.3.16c-1.55.18-3,.36-4.61.51-2.11,7.46-4.09,14.13-4.48,15.3a2.6,2.6,0,0,1-2.46,1.18m-.06-16.55-1.16,4.41c-1.12,4.25-2.09,7.92-2.52,9.75l.26.42a5.55,5.55,0,0,0,3.48,1.23,2,2,0,0,0,1.79-.74c.36-1.11,2.37-7.9,4.5-15.45l.07-.25.25,0c1.67-.15,3.22-.33,4.85-.53l1.3-.15c1.86-.23,3.9-3.58,3.79-5.5-.06-.79-.42-1.16-1.17-1.16h-.08c-2.21.19-4.39.44-6.49.75l-.57.08.17-.56c1.05-3.57,2.18-7.58,3.35-11.92l.06-.25.26,0c2-.19,4-.28,6-.28,1.08,0,2,0,2.82.05a23.06,23.06,0,0,0,2.63,0,5.15,5.15,0,0,0,1.27-2.85c.33-1.56.22-2.84-.28-3.39l-.67-.09a51.63,51.63,0,0,0-7.14-.53,57.56,57.56,0,0,0-17,2.8c-1.4.72-1.89,4.23-1.43,6.12.15.62.34.76.37.76,2-.55,4-1.07,5.79-1.44l.59-.13-.16.58C31,87.4,30.18,90.61,29.27,94L28.49,97l-.24,0c-.61.1-1.18.17-1.67.22l-.29,0c-1.11.5-1.78,3.09-1.55,4.91.09.7.3,1.06.48,1.13l.52-.06.53-.06Z" style="fill:#fdf1d7"/><path id="Path_157" data-name="Path 157" d="M70,106.26a43.87,43.87,0,0,1-4,8.33c-2.3,3.29-5,5.53-8.52,4.35-3-1-4-4.6-3.11-9.63.26-1.37.75-3.48,1.37-5.6-2.23,1-5.53.62-6.09-.62-.55,1.37-1.24,3.36-2,5.23-.56,1.3-3.79.68-3.23-1a53.84,53.84,0,0,0,2.67-16c.13-1.06,7.09-.32,7.34,3.91-.44.62-1.3,1.3-1.86,2,.93,1.06,4.41.43,6.15-1.3,4-3.85,8.45-2.36,7.64-.19-.31.75-4.41,12.06-4.79,13.18-1.55,5,.63,5.71,3.54.12.63-1.24,1.31-2.61,1.87-4a1.7,1.7,0,0,1,3,1.24" style="fill:#fdf1d7"/><path id="Path_158" data-name="Path 158" d="M59.25,119.63a6,6,0,0,1-2-.34c-3.12-1-4.34-4.7-3.35-10.05.19-1.08.6-2.89,1.17-4.92a8,8,0,0,1-2.33.33,5.12,5.12,0,0,1-3.09-.83c-.21.54-.44,1.14-.67,1.78-.34.91-.71,1.9-1.09,2.85a1.77,1.77,0,0,1-1.73.94,2.53,2.53,0,0,1-2-.88l-.19-1.3a53.49,53.49,0,0,0,2.66-15.86c.05-.39.36-.8,1.62-.8,2.49,0,6.26,1.49,6.45,4.69v.13l-.08.11-1,1.11-.6.61,1.08.2a6.66,6.66,0,0,0,4.27-1.72,8.12,8.12,0,0,1,5.39-2.49,3.19,3.19,0,0,1,2.68,1.11,1.68,1.68,0,0,1,.18,1.58c-.27.67-4.38,12-4.78,13.17-.63,2-.57,3.12-.33,3.45l.16.09c.39,0,1.5-.77,3-3.71.6-1.2,1.29-2.58,1.84-4a1.87,1.87,0,0,1,1.63-1,2.3,2.3,0,0,1,1.8.88,1.75,1.75,0,0,1,.32,1.56,44.12,44.12,0,0,1-4.09,8.44c-2.27,3.25-4.55,4.83-7,4.83m-3-16.57-.23.76c-.67,2.29-1.14,4.37-1.36,5.56-.91,4.94.13,8.3,2.86,9.21s5.43-.38,8.09-4.21a41,41,0,0,0,4-8.24l-.2-.88-1.21-.6-1,.56c-.54,1.4-1.24,2.78-1.86,4-.8,1.54-2.34,4.11-3.69,4.11l-.75-.39c-.48-.66-.41-2.12.22-4.12.43-1.28,4.5-12.5,4.8-13.2l-.11-.89a2.56,2.56,0,0,0-2.07-.8,7.36,7.36,0,0,0-4.87,2.28,7.34,7.34,0,0,1-4.79,1.93,2.48,2.48,0,0,1-1.9-.65l-.2-.23.2-.25.91-1,.86-.9c-.28-2.89-4-3.86-5.7-3.86a1.92,1.92,0,0,0-.89.14,54.13,54.13,0,0,1-2.7,16l.09.63a1.77,1.77,0,0,0,1.41.57l1.05-.47c.37-.94.73-1.92,1.07-2.83s.64-1.72.91-2.39l.33-.8.35.78c.26.57,1.46,1,2.87,1a6.72,6.72,0,0,0,2.73-.54Z" style="fill:#fdf1d7"/><path id="Path_159" data-name="Path 159" d="M81.26,106.26a38.83,38.83,0,0,1-4,8.33c-2.37,3.17-5.1,5.53-8.52,4.35-3-1-4.1-4.6-3.11-9.63a114.93,114.93,0,0,1,4.23-15c.5-1.06,2.54-.81,4-.31s3.17,1.55,3.1,3.1c-.62,1.69-3.1,8.39-4.16,11.87-1.55,5,.56,5.72,3.48.12.68-1.24,1.31-2.6,1.93-4,.87-1.55,3.41-.38,3,1.24M71.81,87.93a4.23,4.23,0,0,1,5.41-2.56,4.31,4.31,0,0,1,.81.39,1.39,1.39,0,0,1-.13,1.49,3.27,3.27,0,0,1,1.68,4.16,3.93,3.93,0,0,1-5.06,2.3,3.65,3.65,0,0,1-.53-.25,4.3,4.3,0,0,1-2.18-5.53m3.48,2.67a1.18,1.18,0,0,0,1.63-.35l0-.08c.31-.69-.62-1.5-1.18-1.62l.06-.62A1.62,1.62,0,0,0,74.61,89a1.23,1.23,0,0,0,.66,1.6h0" style="fill:#fdf1d7"/><path id="Path_160" data-name="Path 160" d="M70.54,119.62a6.11,6.11,0,0,1-1.89-.33c-3.19-1-4.41-4.71-3.35-10.05A113.4,113.4,0,0,1,69.56,94.1c.2-.42.71-.94,2-.94l1.45.17a4.69,4.69,0,0,1-1.56-5.53,4.58,4.58,0,0,1,4.24-3,5.2,5.2,0,0,1,2.49.65l.12.06.05.11,0,1.49a3.7,3.7,0,0,1,1.52,4.42,4.07,4.07,0,0,1-4,2.78l-.49,0a3.28,3.28,0,0,1,1.93,2.82l0,.11c-2.57,7-3.68,10.27-4.16,11.85-.63,2-.58,3.15-.34,3.48l.14.08c.37,0,1.47-.78,3-3.71.72-1.3,1.37-2.76,1.92-4a1.78,1.78,0,0,1,1.58-1,2.27,2.27,0,0,1,1.77.88,1.79,1.79,0,0,1,.33,1.56,40.74,40.74,0,0,1-4,8.45c-1.54,2.06-3.94,4.81-7,4.81m1-25.72-1.35.52A116.31,116.31,0,0,0,66,109.36c-1,5,.06,8.31,2.85,9.23s5.23-.35,8.1-4.22a37.55,37.55,0,0,0,3.93-8.24l-.2-.88-1.19-.59-.92.54c-.54,1.24-1.2,2.72-1.92,4-.8,1.53-2.34,4.1-3.66,4.1l-.73-.38c-.65-.87-.14-3,.23-4.13.48-1.58,1.59-4.92,4.15-11.82,0-1.25-1.47-2.21-2.86-2.69a7.38,7.38,0,0,0-2.23-.41m4.13-8.39a3.82,3.82,0,0,0-3.55,2.55,3.94,3.94,0,0,0,2,5.06,4,4,0,0,0,1.81.42,3.31,3.31,0,0,0,3.27-2.25,2.92,2.92,0,0,0-1.46-3.7l-.47-.19.32-.39.12-1a4.66,4.66,0,0,0-2-.51m.3,5.63h0l-.87-.2a1.61,1.61,0,0,1-.88-2.09h0a2,2,0,0,1,1.54-1.28l1.07-.13-.76.76-.05.06,1.2,1,0,1a1.33,1.33,0,0,1-1.3.81m-.65-2.59-.4.58.49,1.14.56.13.62-.36,0-.4-.89-.72-.1,0-.08-.07-.17-.27" style="fill:#fdf1d7"/><path id="Path_161" data-name="Path 161" d="M99.09,106.32a52.06,52.06,0,0,1-4,8.21c-5.4,8.7-20.82,5.16-18.08-8.76.86-4.17,1.92-7,4-9.58,4-4.22,12.06-2.66,13.24-.74.81,1.18.43,4.42-.62,7-1.43,3.54-4.54,8.7-10,8-.3,4.41,7.15,5.47,10.57-1.43.62-1.24,1.3-2.61,1.86-4a1.68,1.68,0,0,1,2.36-.38,1.66,1.66,0,0,1,.68,1.62M84.18,104.9c1.62.68,3,0,4.16-2.37,1.06-2.11,1.18-3.91.5-4.28-1.36-.25-3.16,2-4.65,6.65" style="fill:#fdf1d7"/><path id="Path_162" data-name="Path 162" d="M86.5,119.62a10.11,10.11,0,0,1-7.87-3.6c-1.49-1.81-3-5.07-2-10.32.8-3.83,1.81-7,4.12-9.74a10.28,10.28,0,0,1,7.43-2.82c2.91,0,5.66.91,6.4,2.12.94,1.37.44,4.82-.59,7.36-1.25,3.1-4.14,8.31-9.38,8.31l-.61,0a2.69,2.69,0,0,0,.71,1.71,3.68,3.68,0,0,0,2.71,1c2,0,4.72-1.25,6.45-4.75.61-1.21,1.3-2.58,1.86-4a1.83,1.83,0,0,1,1.62-1,2.28,2.28,0,0,1,1.8.88,1.79,1.79,0,0,1,.33,1.56,53.28,53.28,0,0,1-4.09,8.3,10.36,10.36,0,0,1-8.88,4.9m1.67-25.74c-1.66,0-4.77.33-6.88,2.57-1.9,2.3-3,4.94-4,9.4-1,5,.48,8,1.87,9.7a9.4,9.4,0,0,0,7.29,3.34,9.63,9.63,0,0,0,8.25-4.55,52.66,52.66,0,0,0,4-8.15l-.2-.87-1.21-.59-1,.55c-.55,1.35-1.24,2.73-1.85,3.95-1.89,3.8-4.92,5.16-7.12,5.16a4.33,4.33,0,0,1-3.25-1.27,3.41,3.41,0,0,1-.9-2.65l0-.39.39,0,.92.07c4.81,0,7.51-4.92,8.69-7.85,1.06-2.6,1.36-5.66.66-6.68-.53-.87-3-1.78-5.78-1.78m-2.84,11.64h0L84,105.25l-.31-.13.12-.33c1.48-4.66,3.4-7.22,5.07-6.9l.12,0c.93.51.78,2.52-.35,4.77-.88,1.88-2,2.82-3.35,2.82m-.68-.84c1.34.4,2.45-.36,3.37-2.3s1-3.49.69-3.77c-.93-.09-2.54,1.47-4.06,6.06" style="fill:#fdf1d7"/><path id="Path_163" data-name="Path 163" d="M122.14,106.2a31.33,31.33,0,0,1-4.16,8.27c-2.35,3.23-4.84,5.22-8.38,4.53-2.06-.37-2.92-2.42-3.36-4-2.18,3.41-4.42,4.6-7.52,4s-5.1-3.66-3.86-9.69a77.85,77.85,0,0,1,2.18-9.2c2.12-8,10.81-8.08,12.74-3.24,1.8-6.09,3.6-12.3,4.1-13.79.31-1.12,2.74-.81,4.16-.31s3.17,1.56,3.11,3.11c-.87,2.42-6.52,19.57-7.58,23.05-1.56,5,.5,6,3.42.38.62-1.25,1.37-2.93,2-4.29.88-1.62,3.61-.43,3.17,1.24M104,102.47c-.56,2-1.24,4.35-1.93,6.4-1.55,5,1.93,5.35,3.79.62.5-1.3,1.44-3.85,1.8-5.16v-.06c1.44-4.41-2.11-6.21-3.66-1.8" style="fill:#fdf1d7"/><path id="Path_164" data-name="Path 164" d="M111,119.51l-1.43-.15c-1.54-.27-2.7-1.47-3.4-3.54-2.15,3.06-4.38,4.1-7.47,3.48a5.14,5.14,0,0,1-3.39-2.23c-1.19-1.8-1.45-4.53-.76-7.9a76.89,76.89,0,0,1,2.19-9.23c1.32-5,5.06-6.76,7.86-6.76a5.92,5.92,0,0,1,5.14,2.65L111,91.25c1.15-3.92,2.14-7.3,2.49-8.34.13-.46.58-1,2-1a8.71,8.71,0,0,1,2.62.47c.8.28,3.44,1.37,3.35,3.48l0,.1c-.84,2.37-6.51,19.56-7.57,23-.66,2.1-.59,3.26-.34,3.6l.15.09c.39,0,1.44-.76,2.92-3.6.5-1,1.11-2.33,1.63-3.5l.35-.76a1.81,1.81,0,0,1,1.65-1,2.46,2.46,0,0,1,1.88.91,1.79,1.79,0,0,1,.34,1.56,32.65,32.65,0,0,1-4.23,8.4c-1.64,2.23-4,4.82-7.33,4.82m-4.57-5.46.22.82c.61,2.27,1.62,3.5,3.06,3.77,3,.58,5.31-.68,8-4.39a31.37,31.37,0,0,0,4.12-8.17l-.21-.9-1.3-.62-1,.57-.33.75c-.53,1.17-1.14,2.51-1.65,3.53-.78,1.5-2.28,4-3.58,4L113,113c-.5-.68-.42-2.19.22-4.26,1.06-3.46,6.66-20.44,7.57-23,0-1.25-1.46-2.21-2.86-2.69a7.7,7.7,0,0,0-2.38-.43l-1.3.49c-.35,1-1.34,4.42-2.49,8.33-.51,1.74-1.07,3.62-1.61,5.47l-.3,1-.4-1a5.05,5.05,0,0,0-4.89-3c-2.54,0-5.93,1.63-7.15,6.22a77.64,77.64,0,0,0-2.17,9.16c-.65,3.19-.43,5.73.66,7.36a4.38,4.38,0,0,0,2.91,1.92l1.42.15c2.2,0,4-1.22,5.71-4Zm-3.54-.85h0l-1.1-.57c-.56-.75-.56-2.12,0-3.87.73-2.18,1.45-4.69,1.93-6.4s1.64-2.81,2.74-2.81a1.74,1.74,0,0,1,1.42.78,4.54,4.54,0,0,1,.23,4l0,.1c-.39,1.36-1.35,4-1.81,5.19-.85,2.17-2.18,3.57-3.37,3.57m3.55-12.9c-.59,0-1.44.6-2,2.3s-1.2,4.2-1.92,6.4c-.46,1.46-.5,2.66-.1,3.21l.5.25c.7,0,1.85-1,2.69-3.1.45-1.16,1.38-3.72,1.78-5.07v-.12a4,4,0,0,0-.1-3.4l-.83-.47" style="fill:#fdf1d7"/><path id="Path_165" data-name="Path 165" d="M160.24,102.35c-.25,1.8-2.8,10.62-3.67,14.1-1.11,4.29-6,2.86-5.53.87.19-1,.56-2.23.87-3.85-4.41,4.6-9.63,7-14.66,5.1-4.85-1.8-8-9.07-7.34-16.22,1-10.07,4.23-16.59,8.14-20.75,7-7.52,14.42-6.4,17.47-4.6,1.55,1,3.79,5.65,3.73,7.71a20.91,20.91,0,0,1-6.34,11.37c-2.55,2.3-7.33-2.3-5.72-3.92,2.36-2.55,5.47-6.34,4-7.64-3.6-3.23-9.7,1.36-12.92,11.56-5,15.84,3.16,19.51,10.06,10.74-2.05.25-4.17.44-6.15.63s-.56-6.09,1.55-6.71c3.79-.44,10-1,13.67-1.12a2.53,2.53,0,0,1,2.8,2.22,2.17,2.17,0,0,1,0,.51" style="fill:#fdf1d7"/><path id="Path_166" data-name="Path 166" d="M153.38,119.62a3.06,3.06,0,0,1-2.38-1l-.31-1.36c.09-.5.22-1,.37-1.64l.24-1c-4.68,4.46-9.71,6-14.18,4.29-5-1.83-8.28-9.13-7.57-16.6.89-9,3.67-16.11,8.24-21s9.28-6,12.33-6a11.25,11.25,0,0,1,5.59,1.38c1.65,1,4,5.85,3.92,8a21.22,21.22,0,0,1-6.46,11.63,2.75,2.75,0,0,1-1.92.73,5.55,5.55,0,0,1-4.54-3.16,1.74,1.74,0,0,1,.23-2c3.61-3.89,4.32-5.71,4.29-6.54l-.24-.57a3.45,3.45,0,0,0-2.34-.92c-2.93,0-7.3,3.85-10,12.31-1.94,6.13-2,11-.27,13.45a3.39,3.39,0,0,0,2.82,1.47c1.94,0,4.2-1.38,6.3-3.8-1.49.16-3,.3-4.44.44l-.81.07h-.16c-.28,0-.93-.12-1.1-1.27-.25-1.75.8-5.63,2.68-6.18,4-.46,10.14-1,13.76-1.13a3.2,3.2,0,0,1,2.56,1.08,2.64,2.64,0,0,1,.61,2.09c-.15,1.16-1.22,5-2.25,8.8-.57,2.09-1.1,4.06-1.42,5.32a3.68,3.68,0,0,1-3.56,3.08m-.86-7.3-.24,1.23c-.16.85-.34,1.58-.5,2.23s-.28,1.12-.36,1.61l.17.76a2.33,2.33,0,0,0,1.79.73,2.91,2.91,0,0,0,2.85-2.51c.31-1.27.85-3.25,1.42-5.34,1-3.56,2.08-7.61,2.23-8.73l-.45-1.5a2.44,2.44,0,0,0-2-.81c-3.59.12-9.71.66-13.63,1.12-1.18.35-2.34,3.62-2.09,5.34l.37.64h.1L143,107c1.75-.17,3.56-.33,5.33-.55l.89-.11-.56.7c-2.39,3-5.11,4.79-7.45,4.79a4.13,4.13,0,0,1-3.43-1.77c-1.94-2.65-1.87-7.66.17-14.11,2.44-7.68,6.74-12.84,10.7-12.84a4.14,4.14,0,0,1,2.83,1.12l.48,1.09c.06,1.44-1.41,3.75-4.5,7.08l-.08,1.21a4.83,4.83,0,0,0,3.86,2.72,2.06,2.06,0,0,0,1.42-.54,20.28,20.28,0,0,0,6.22-11.15c.06-1.88-2.14-6.43-3.56-7.34a10.51,10.51,0,0,0-5.2-1.27c-2.9,0-7.31,1-11.79,5.81s-7.17,11.65-8.05,20.54c-.67,7,2.52,14.13,7.1,15.83s9.55-.09,14.27-5Z" style="fill:#fdf1d7"/><path id="Path_167" data-name="Path 167" d="M183.92,106.32a53,53,0,0,1-4,8.21c-5.4,8.7-20.82,5.16-18.08-8.76.87-4.17,1.92-7,4-9.58,4-4.22,12.06-2.66,13.23-.74.81,1.18.44,4.42-.62,7-1.43,3.54-4.54,8.7-10,8-.31,4.41,7.15,5.47,10.56-1.43.62-1.24,1.3-2.61,1.86-4a1.7,1.7,0,0,1,3,1.24M169,104.9c1.61.68,3,0,4.16-2.37,1.06-2.11,1.18-3.91.5-4.28-1.37-.25-3.17,2-4.66,6.65" style="fill:#fdf1d7"/><path id="Path_168" data-name="Path 168" d="M171.32,119.62a10.09,10.09,0,0,1-7.86-3.6c-1.49-1.81-3.05-5.07-2-10.32.8-3.83,1.8-7,4.11-9.74A10.31,10.31,0,0,1,173,93.14c2.91,0,5.66.91,6.4,2.12.93,1.37.43,4.82-.59,7.36-1.25,3.1-4.14,8.31-9.38,8.31l-.61,0a2.59,2.59,0,0,0,.71,1.71,3.68,3.68,0,0,0,2.7,1c2,0,4.72-1.25,6.46-4.75.61-1.21,1.29-2.58,1.86-4a1.82,1.82,0,0,1,1.62-1,2.3,2.3,0,0,1,1.8.88,1.75,1.75,0,0,1,.32,1.56,53.28,53.28,0,0,1-4.09,8.3,10.35,10.35,0,0,1-8.87,4.9M173,93.89c-1.66,0-4.78.33-6.88,2.57-1.91,2.3-3,4.94-4,9.4-1,5,.48,8,1.87,9.7a9.36,9.36,0,0,0,7.29,3.33,9.65,9.65,0,0,0,8.25-4.55,52.66,52.66,0,0,0,4-8.15l-.2-.87-1.22-.59-1,.55c-.55,1.35-1.24,2.73-1.85,4-1.89,3.8-4.92,5.16-7.12,5.16a4.32,4.32,0,0,1-3.25-1.27,3.41,3.41,0,0,1-.9-2.65l0-.39.38,0,.93.06c4.8,0,7.51-4.91,8.69-7.84,1-2.6,1.35-5.66.66-6.68-.54-.87-3-1.78-5.78-1.78m-2.84,11.64h0l-1.29-.28-.31-.13.11-.32c1.4-4.4,3.15-6.93,4.8-6.93l.27,0,.12,0c.93.52.78,2.53-.35,4.78-.88,1.87-2,2.82-3.35,2.82m-.68-.84c1.34.4,2.45-.37,3.37-2.3,1-2.09,1-3.5.69-3.78-.94-.09-2.54,1.48-4.06,6.07" style="fill:#fdf1d7"/><path id="Path_169" data-name="Path 169" d="M201.75,106.32a52.11,52.11,0,0,1-4,8.21c-5.4,8.7-20.81,5.16-18.08-8.76.87-4.17,1.93-7,4-9.58,4-4.22,12.06-2.66,13.24-.74.8,1.18.43,4.42-.62,7-1.43,3.54-4.54,8.7-10,8-.31,4.41,7.15,5.47,10.57-1.43.62-1.24,1.3-2.61,1.86-4a1.69,1.69,0,0,1,3,1.24m-14.91-1.42c1.62.68,3,0,4.16-2.37,1.06-2.11,1.19-3.91.5-4.28-1.36-.25-3.17,2-4.66,6.65" style="fill:#fdf1d7"/><path id="Path_170" data-name="Path 170" d="M189.15,119.62a10.09,10.09,0,0,1-7.86-3.6c-1.49-1.81-3-5.07-2-10.32.8-3.83,1.81-7,4.12-9.73a10.23,10.23,0,0,1,7.44-2.83c2.91,0,5.66.91,6.4,2.12.93,1.36.43,4.81-.59,7.36-1.25,3.1-4.14,8.31-9.38,8.31l-.61,0a2.59,2.59,0,0,0,.71,1.71,3.68,3.68,0,0,0,2.7,1c2,0,4.72-1.25,6.46-4.75.62-1.24,1.3-2.6,1.86-4a1.82,1.82,0,0,1,1.62-1,2.3,2.3,0,0,1,1.8.88,1.75,1.75,0,0,1,.32,1.56,52.41,52.41,0,0,1-4.09,8.3,10.33,10.33,0,0,1-8.87,4.9m1.67-25.74c-1.66,0-4.78.33-6.88,2.57-1.91,2.3-3,4.94-3.95,9.4-1,5,.48,8,1.87,9.7a9.39,9.39,0,0,0,7.29,3.34,9.65,9.65,0,0,0,8.25-4.55,53.52,53.52,0,0,0,4-8.15l-.2-.87-1.21-.59-1,.55c-.53,1.32-1.23,2.7-1.84,3.92-1.9,3.83-4.92,5.19-7.13,5.19a4.35,4.35,0,0,1-3.25-1.27,3.45,3.45,0,0,1-.9-2.65l0-.39.39,0,.92.07c4.81,0,7.51-4.92,8.69-7.85,1.06-2.6,1.36-5.66.66-6.68-.53-.87-3-1.78-5.78-1.78M188,105.53h0l-1.29-.29-.31-.13.11-.32c1.4-4.4,3.16-6.93,4.8-6.93l.28,0,.11,0c.93.51.78,2.53-.34,4.78-.89,1.87-2,2.82-3.35,2.82m-.69-.84c1.35.4,2.46-.37,3.37-2.3,1-2.1,1-3.5.69-3.78-.93-.09-2.53,1.48-4.06,6.07" style="fill:#fdf1d7"/><path id="Path_171" data-name="Path 171" d="M220.15,106.2a47.51,47.51,0,0,1-4,8.33c-2,2.86-5.59,5-9.13,4.66a11,11,0,0,1-9.57-6.09,2.2,2.2,0,0,1-1.12-2.67c1.74-3.17,4.1-11.13,4.16-19.14.12-1.06,7.28-.38,7.52,3.85-.44.62-1.8,2-2.36,2.68,1.68,2,7.46,6.58,9.63,11.06.62-1.25,1.25-2.56,1.86-3.92.87-1.56,3.42-.37,3,1.24m-17.09,6.47c2.67,2.8,7.27.55,6-2.68-.75-2.3-4.17-5.09-5.9-7-.62,1.56-1.24,3.73-2.12,5.85a7.09,7.09,0,0,0,2.05,3.79" style="fill:#fdf1d7"/><path id="Path_172" data-name="Path 172" d="M207.84,119.6l-.84,0a11.46,11.46,0,0,1-9.8-6.16,2.11,2.11,0,0,1-1-1.07,2.57,2.57,0,0,1-.16-2c1.69-3.08,4.07-11,4.13-19,.05-.39.38-.81,1.7-.81,2,0,6.35,1.14,6.56,4.64v.13l-.07.11c-.35.49-1.2,1.41-1.88,2.14l-.3.33c.48.52,1.2,1.21,2,2,2.31,2.22,5.43,5.21,7.12,8.25.51-1,1-2.13,1.54-3.26a1.76,1.76,0,0,1,1.57-.94,2.31,2.31,0,0,1,1.79.88,1.82,1.82,0,0,1,.32,1.56,49.91,49.91,0,0,1-4,8.44,11.21,11.21,0,0,1-8.64,4.86m-7-28.23c-.08,8.12-2.5,16.13-4.21,19.23l.16,1.41.73.73.17.05.07.16a10.67,10.67,0,0,0,9.24,5.87l.8,0a10.48,10.48,0,0,0,8-4.55,49.39,49.39,0,0,0,3.93-8.24l-.2-.88-1.2-.59-.92.54c-.61,1.34-1.24,2.66-1.85,3.9l-.34.67L215,109c-1.52-3.14-4.86-6.35-7.31-8.69-1-.92-1.78-1.72-2.27-2.3l-.21-.25.22-.24.52-.57c.58-.63,1.37-1.48,1.73-2-.27-2.85-4.08-3.81-5.8-3.81a2,2,0,0,0-1,.15M206,114.29h0a4.29,4.29,0,0,1-3.15-1.38,7.48,7.48,0,0,1-2.15-4l0-.11,0-.11c.49-1.18.9-2.4,1.27-3.48.29-.86.57-1.67.84-2.36l.22-.54.4.43c.43.46,1,1,1.54,1.53,1.81,1.76,3.85,3.75,4.44,5.57a3,3,0,0,1-.25,2.85,3.84,3.84,0,0,1-3.18,1.57m-4.55-5.4a6.52,6.52,0,0,0,1.93,3.5,3.61,3.61,0,0,0,2.62,1.17,3.11,3.11,0,0,0,2.57-1.25,2.25,2.25,0,0,0,.17-2.19c-.54-1.66-2.61-3.67-4.27-5.28l-1.15-1.14c-.2.54-.41,1.15-.63,1.78-.36,1.06-.77,2.25-1.24,3.42" style="fill:#fdf1d7"/><path id="Path_173" data-name="Path 173" d="M237.61,106.32a53,53,0,0,1-4,8.21c-5.4,8.7-20.82,5.16-18.08-8.76.87-4.17,1.92-7,4-9.58,4-4.22,12.06-2.66,13.24-.74.8,1.18.43,4.42-.62,7-1.44,3.54-4.54,8.7-10,8-.31,4.41,7.15,5.47,10.56-1.43.62-1.24,1.3-2.61,1.86-4a1.69,1.69,0,0,1,3.05,1.24M222.7,104.9c1.62.68,3.05,0,4.16-2.37,1.06-2.1,1.19-3.91.5-4.28-1.36-.25-3.17,2-4.66,6.65" style="fill:#fdf1d7"/><path id="Path_174" data-name="Path 174" d="M225,119.62a10.09,10.09,0,0,1-7.86-3.6c-1.49-1.81-3.05-5.07-2-10.32.81-3.83,1.81-7,4.12-9.74a10.26,10.26,0,0,1,7.44-2.82c2.91,0,5.66.91,6.4,2.12.93,1.36.43,4.81-.59,7.36-1.25,3.1-4.14,8.31-9.38,8.31l-.61,0a2.63,2.63,0,0,0,.7,1.71,3.64,3.64,0,0,0,2.71,1c2,0,4.72-1.25,6.45-4.75.61-1.22,1.3-2.59,1.86-4a1.83,1.83,0,0,1,1.62-1,2.28,2.28,0,0,1,1.8.88,1.79,1.79,0,0,1,.33,1.56,53.28,53.28,0,0,1-4.09,8.3,10.34,10.34,0,0,1-8.87,4.9m1.67-25.74c-1.67,0-4.78.33-6.89,2.57-1.9,2.3-3,4.93-3.94,9.4-1,5,.48,8,1.86,9.7a9.41,9.41,0,0,0,7.3,3.34,9.66,9.66,0,0,0,8.25-4.55,53.52,53.52,0,0,0,4-8.15l-.2-.87-1.22-.59-1,.55c-.54,1.34-1.24,2.72-1.85,3.95-1.89,3.8-4.92,5.16-7.12,5.16a4.33,4.33,0,0,1-3.25-1.27,3.41,3.41,0,0,1-.9-2.65l0-.39.38,0,.93.07c4.81,0,7.51-4.92,8.69-7.85,1.06-2.6,1.35-5.66.66-6.68-.54-.87-3-1.78-5.78-1.78m-2.84,11.64h0l-1.29-.28-.31-.13.1-.32c1.49-4.65,3.4-7.21,5.08-6.9l.12,0c.93.51.78,2.52-.35,4.78-.88,1.87-2,2.82-3.35,2.82m-.68-.85c1.34.41,2.45-.36,3.37-2.3,1-2.09,1-3.49.69-3.77-.94-.09-2.54,1.47-4.06,6.07" style="fill:#fdf1d7"/><path id="Path_175" data-name="Path 175" d="M48.42,83.27c-1.68.18-5.53-.31-11.49.25-.88,3.23-2.06,7.51-3.36,11.92,2.11-.31,4.28-.55,6.52-.74,3.61-.12.56,7-2.48,7.39-2.12.26-4,.5-6.15.69-2.18,7.7-4.17,14.42-4.54,15.53-1.12,2-6.27.38-6.21-1.17.56-2.37,2-7.7,3.54-13.61l-1.12.12c-1.49-.19-1.06-6,1-6.77.56-.07,1.24-.13,2-.25,1.19-4.41,2.3-8.64,3.23-12-1.8.37-3.66.87-5.71,1.43-1.43.5-1.62-6.34.81-7.58,13.36-4.17,21.62-2.61,25.1-2.18,1.56,1.37.06,6.59-1.12,7" style="fill:#191210"/><path id="Path_176" data-name="Path 176" d="M67.88,106.26a43.87,43.87,0,0,1-4,8.33c-2.3,3.29-5,5.53-8.52,4.35-3-1-4-4.6-3.1-9.63a57.42,57.42,0,0,1,1.37-5.6c-2.24,1-5.54.62-6.09-.62-.56,1.37-1.24,3.36-2,5.23-.56,1.3-3.79.68-3.24-1a53.58,53.58,0,0,0,2.68-16c.12-1.06,7.08-.32,7.33,3.91-.44.62-1.3,1.3-1.86,2,.93,1.06,4.41.43,6.15-1.3,4-3.85,8.45-2.37,7.64-.19-.31.74-4.41,12.06-4.79,13.18-1.55,5,.63,5.71,3.55.12.62-1.24,1.3-2.61,1.86-4a1.7,1.7,0,0,1,3,1.24" style="fill:#191210"/><path id="Path_177" data-name="Path 177" d="M79.18,106.26a38.37,38.37,0,0,1-4,8.33c-2.36,3.17-5.1,5.53-8.52,4.35-3-1-4.1-4.6-3.11-9.63a114.93,114.93,0,0,1,4.23-15c.5-1.06,2.55-.81,4-.31S75,95.51,75,97.06c-.62,1.69-3.1,8.39-4.16,11.87-1.55,5,.56,5.72,3.48.12.68-1.24,1.31-2.6,1.93-4,.87-1.55,3.42-.38,3,1.24M69.74,87.93a4.22,4.22,0,0,1,5.4-2.56,3.79,3.79,0,0,1,.81.39,1.41,1.41,0,0,1-.12,1.49,3.27,3.27,0,0,1,1.67,4.16,3.92,3.92,0,0,1-5,2.3,3.32,3.32,0,0,1-.54-.25,4.28,4.28,0,0,1-2.17-5.53m3.48,2.67a1.18,1.18,0,0,0,1.63-.35.56.56,0,0,1,.05-.08c.31-.69-.63-1.5-1.19-1.62l.06-.62A1.63,1.63,0,0,0,72.53,89a1.22,1.22,0,0,0,.67,1.6h0" style="fill:#191210"/><path id="Path_178" data-name="Path 178" d="M97,106.32a53,53,0,0,1-4,8.21c-5.4,8.7-20.82,5.16-18.08-8.76.87-4.17,1.92-7,4-9.58,4-4.22,12-2.66,13.23-.74.81,1.18.44,4.42-.62,7-1.43,3.54-4.54,8.7-10,8-.31,4.41,7.14,5.47,10.56-1.43.62-1.24,1.3-2.61,1.86-4a1.71,1.71,0,0,1,2.38-.35,1.68,1.68,0,0,1,.67,1.59M82.11,104.9c1.61.68,3,0,4.16-2.37,1-2.11,1.18-3.91.5-4.28-1.37-.25-3.17,2-4.66,6.65" style="fill:#191210"/><path id="Path_179" data-name="Path 179" d="M120.08,106.2a31.67,31.67,0,0,1-4.17,8.27c-2.36,3.23-4.84,5.22-8.38,4.53-2.06-.37-2.92-2.42-3.36-4-2.18,3.41-4.42,4.6-7.52,4s-5.1-3.66-3.86-9.69a77.85,77.85,0,0,1,2.18-9.2c2.12-8,10.81-8.08,12.74-3.24,1.8-6.09,3.6-12.3,4.1-13.79.31-1.12,2.74-.81,4.16-.31s3.17,1.56,3.11,3.11c-.87,2.42-6.52,19.57-7.58,23.05-1.55,5,.5,6,3.42.38.62-1.25,1.37-2.93,2-4.29.87-1.62,3.61-.43,3.17,1.24m-18.15-3.73c-.56,2-1.24,4.35-1.93,6.4-1.55,5,1.93,5.35,3.79.62.5-1.3,1.44-3.85,1.8-5.16v-.06c1.44-4.41-2.11-6.21-3.66-1.8" style="fill:#191210"/><path id="Path_180" data-name="Path 180" d="M158.17,102.35c-.25,1.8-2.8,10.62-3.66,14.1-1.12,4.29-6,2.86-5.54.87.19-1,.56-2.23.87-3.85-4.41,4.6-9.63,7-14.66,5.1-4.85-1.8-8-9.07-7.34-16.22,1-10.07,4.23-16.59,8.14-20.75,7-7.52,14.42-6.4,17.47-4.6,1.55,1,3.79,5.65,3.73,7.71a20.91,20.91,0,0,1-6.34,11.37c-2.55,2.3-7.33-2.3-5.72-3.92,2.36-2.55,5.47-6.34,4-7.64-3.6-3.23-9.7,1.36-12.92,11.56-5,15.84,3.16,19.51,10.06,10.74-2.05.25-4.16.44-6.15.63s-.56-6.09,1.55-6.71c3.79-.44,10-1,13.67-1.12a2.53,2.53,0,0,1,2.8,2.22,2.18,2.18,0,0,1,0,.51" style="fill:#191210"/><path id="Path_181" data-name="Path 181" d="M181.85,106.32a53,53,0,0,1-4,8.21c-5.4,8.7-20.82,5.16-18.08-8.76.87-4.17,1.92-7,4-9.58,4-4.22,12.06-2.66,13.23-.74.81,1.18.44,4.42-.62,7-1.43,3.54-4.54,8.7-10,8-.31,4.41,7.15,5.47,10.56-1.43.62-1.24,1.3-2.61,1.86-4a1.7,1.7,0,0,1,3,1.24m-14.91-1.42c1.61.68,3,0,4.16-2.37,1.06-2.11,1.18-3.91.5-4.28-1.37-.25-3.17,2-4.66,6.65" style="fill:#191210"/><path id="Path_182" data-name="Path 182" d="M199.68,106.32a52.11,52.11,0,0,1-4,8.21c-5.4,8.7-20.81,5.16-18.08-8.76.87-4.17,1.93-7,4-9.58,4-4.22,12.06-2.66,13.24-.74.8,1.18.43,4.42-.62,7-1.43,3.54-4.54,8.7-10,8-.31,4.41,7.15,5.47,10.57-1.43.62-1.24,1.3-2.61,1.86-4a1.69,1.69,0,0,1,3,1.24m-14.91-1.42c1.62.68,3,0,4.16-2.37,1.06-2.11,1.19-3.91.5-4.28-1.36-.25-3.17,2-4.65,6.65" style="fill:#191210"/><path id="Path_183" data-name="Path 183" d="M218.08,106.2a47.51,47.51,0,0,1-4,8.33c-2,2.86-5.59,5-9.13,4.66a11,11,0,0,1-9.57-6.09,2.2,2.2,0,0,1-1.12-2.67c1.74-3.17,4.1-11.13,4.16-19.14.12-1.06,7.28-.38,7.52,3.85-.44.62-1.8,2-2.36,2.68,1.68,2,7.46,6.58,9.63,11.06.62-1.25,1.24-2.56,1.86-3.92.87-1.56,3.42-.37,3,1.24M201,112.67c2.67,2.8,7.27.55,6-2.68-.75-2.3-4.17-5.09-5.9-7-.62,1.56-1.25,3.73-2.12,5.85a7.09,7.09,0,0,0,2.05,3.79" style="fill:#191210"/><path id="Path_184" data-name="Path 184" d="M235.54,106.32a53,53,0,0,1-4,8.21c-5.4,8.7-20.81,5.16-18.08-8.76.87-4.17,1.92-7,4-9.58,4-4.22,12.06-2.66,13.24-.74.8,1.18.43,4.42-.62,7-1.44,3.54-4.54,8.7-10,8-.31,4.41,7.15,5.47,10.56-1.43.62-1.24,1.3-2.61,1.87-4a1.69,1.69,0,0,1,3,1.24m-14.91-1.42c1.62.68,3.05,0,4.16-2.37,1.06-2.11,1.19-3.91.5-4.28-1.36-.25-3.17,2-4.66,6.65" style="fill:#191210"/><path id="Path_185" data-name="Path 185" d="M125.11,160.26c-3.14,10.21-9,20.48-28.68,14.66-2.57-.88-.63-7.2,2.13-6.51,2.25-8.83,6.32-23.86,7.26-27.37a64.81,64.81,0,0,0-6.51,1.19c-1.19-1.19-.88-6.07.81-7.7a43.62,43.62,0,0,1,15.53-1.75c8.7.69,15.21,8.95,9.45,27.48m-12.27-20c-.87,4.2-5.38,21.16-7.76,29.42,6.07,1.07,11.52-1.75,14.28-10.64,4.44-14.34.87-20.1-6.52-18.78" style="fill:#fdf1d7"/><path id="Path_186" data-name="Path 186" d="M125.11,160.26l.35.12C123,168.55,118.61,177,106.74,177a37.18,37.18,0,0,1-10.41-1.71h0a2.45,2.45,0,0,1-1.45-2.54c0-2.05,1.25-4.66,3.28-4.74l.51.06-.09.36-.36-.1c2.26-8.83,6.33-23.85,7.26-27.36l.36.1,0,.37a59.75,59.75,0,0,0-6.47,1.18l-.2,0-.14-.14a4.51,4.51,0,0,1-.82-3c0-1.89.5-4.07,1.64-5.19l.06-.06.09,0a46.87,46.87,0,0,1,12.67-1.88c1.07,0,2.07,0,3,.11,6.59.5,12,5.37,12,15.32a42.87,42.87,0,0,1-2.19,12.65l-.36-.11-.35-.11a42.38,42.38,0,0,0,2.17-12.43c0-9.68-5.06-14.06-11.3-14.58h0c-.9-.07-1.88-.12-2.94-.12a46.13,46.13,0,0,0-12.46,1.87l-.1-.36.26.26c-.88.83-1.43,2.92-1.42,4.66a4,4,0,0,0,.61,2.52l-.26.26-.08-.36a60.62,60.62,0,0,1,6.54-1.2l.55-.07-.15.53c-.93,3.51-5,18.53-7.26,27.36l-.09.35-.35-.09-.33,0A2.26,2.26,0,0,0,96.38,170a5.65,5.65,0,0,0-.79,2.71c0,1,.33,1.64,1,1.85l-.12.35.1-.36a36.07,36.07,0,0,0,10.21,1.68c11.42,0,15.49-7.95,18-16.08Zm-12.28-20,.36.08c-.88,4.22-5.38,21.17-7.76,29.45l-.36-.1.07-.37a12.7,12.7,0,0,0,2.3.21c4.93,0,9.17-3,11.55-10.6a36.75,36.75,0,0,0,1.94-10.54c-.05-5.57-2.32-7.9-6.16-8a11.84,11.84,0,0,0-1.87.18l-.06-.36.36.07-.36-.07-.07-.37a12.2,12.2,0,0,1,2-.19,6.27,6.27,0,0,1,5.06,2.17c1.2,1.47,1.84,3.64,1.84,6.51a37.58,37.58,0,0,1-2,10.77c-2.4,7.8-7,11.13-12.26,11.11A13.23,13.23,0,0,1,105,170l-.41-.07.11-.39c2.38-8.25,6.89-25.24,7.76-29.4l0-.25.25-.05Z" style="fill:#fdf1d7"/><path id="Path_187" data-name="Path 187" d="M157,155.57c-1.07,3.44-4.26,5.88-6.58,7.26-.63,7.39-6.14,15.16-14.71,13.59-12.46-2.25-7.83-27.73,7.07-25.48,4.45.62,6.83,3.88,7.52,7.89a10.09,10.09,0,0,0,5-4c.69-1.32,2.32-1.13,1.7.75m-13.16,9.2c-3.37.13-6.38-1.12-7.32-3.75-2.25,3.38-2.19,8.14,1.44,9.14,3-.19,5.07-2.63,5.88-5.39m-3.19-7.07c-.56,2,1,2.88,3.26,2.88.25-2.56-1.88-4-3.26-2.88" style="fill:#fdf1d7"/><path id="Path_188" data-name="Path 188" d="M157,155.57l.35.11c-1.12,3.6-4.39,6.07-6.74,7.47l-.19-.32.37,0c-.58,6.86-5.3,14.11-12.9,14.13a12.16,12.16,0,0,1-2.25-.21c-5.16-.93-7.5-5.7-7.49-10.79,0-7.24,4.62-15.54,12.8-15.56a13.36,13.36,0,0,1,1.89.14l-.06.37.06-.37c4.62.64,7.13,4.09,7.82,8.19l-.36.07-.11-.36a9.81,9.81,0,0,0,4.79-3.82,1.76,1.76,0,0,1,1.47-1.05l.76.34.29.87-.15.87-.35-.11.35.11-.35-.11-.36-.12.12-.64-.31-.47-.82.65a10.35,10.35,0,0,1-5.23,4.19l-.4.12-.07-.41c-.69-3.91-2.93-7-7.2-7.59h0a11.75,11.75,0,0,0-1.78-.13,10.79,10.79,0,0,0-8.86,4.77A17.46,17.46,0,0,0,128.87,166c0,4.92,2.18,9.21,6.88,10.06a10.8,10.8,0,0,0,2.12.2c7,0,11.6-6.83,12.16-13.45v-.19l.17-.1c2.29-1.35,5.4-3.76,6.41-7h0Zm-13.16,9.2,0,.37h-.48c-3.27,0-6.22-1.3-7.21-4l.35-.13.31.21a8.48,8.48,0,0,0-1.46,4.57c0,1.94.83,3.49,2.69,4l-.1.36,0-.37c2.8-.17,4.76-2.46,5.55-5.12l.36.1,0,.37,0-.37.35.11c-.83,2.84-3,5.44-6.21,5.65h-.06l-.07,0a4.52,4.52,0,0,1-3.23-4.72,9.22,9.22,0,0,1,1.59-5l.4-.62.25.7c.81,2.3,3.41,3.52,6.52,3.52h.45l.51,0-.15.5Zm-3.19-7.07.36.1-.1.67a1.37,1.37,0,0,0,.77,1.28,4.66,4.66,0,0,0,2.23.46v.37l-.37,0,0-.37c0-1.58-1-2.49-1.85-2.49l-.82.3-.24-.29.36.1-.36-.1-.23-.28,1.29-.47c1.37,0,2.59,1.34,2.59,3.22l0,.45,0,.33h-.34a5.33,5.33,0,0,1-2.6-.55,2.15,2.15,0,0,1-1.14-1.93l.13-.87,0-.11.09-.07Z" style="fill:#fdf1d7"/><path id="Path_189" data-name="Path 189" d="M176,163.52a42,42,0,0,1-4.07,8.39c-2.32,3.2-5,5.83-8.27,4.2-2.7-1.32-3.2-5.51-1.87-10.58v.12c-1.76,3.63-4.7,9.9-5.2,10.39-2.07,1.39-6.45,0-6.39-2.43.32-3.7,5.13-21,5.32-22.17,1.19-.88,5.45.06,5.89,2.31-.44,1.94-2.82,9.71-3.32,11.34.94-1.82,5-10.65,6.08-12.84.55-1.06,2-1.5,3.57-1.44,2.25,0,4.69,1,4.63,2.5-.44,1.38-4.32,10.77-4.95,12.9-1.51,5,.69,5.83,3.63.12.63-1.24,1.32-2.62,1.88-4.06a1.7,1.7,0,0,1,3.07,1.25" style="fill:#fdf1d7"/><path id="Path_190" data-name="Path 190" d="M176,163.53l.34.13a42.21,42.21,0,0,1-4.11,8.47h0c-1.85,2.54-4,4.83-6.59,4.85a4.71,4.71,0,0,1-2.14-.54h0c-1.94-1-2.79-3.21-2.79-6a20.13,20.13,0,0,1,.72-5l.72.09v.21l0,.08c-.88,1.82-2,4.29-3.07,6.37-.51,1.05-1,2-1.36,2.71a8.16,8.16,0,0,1-.84,1.42l0,0,0,0a4.18,4.18,0,0,1-2.28.61c-2.14,0-4.63-1.2-4.69-3.31v-.08c.33-3.78,5.16-21.07,5.33-22.19l0-.15.12-.09a2.73,2.73,0,0,1,1.58-.4c1.82,0,4.43.93,4.88,2.94l0,.08,0,.08c-.44,2-2.82,9.72-3.32,11.35l-.36-.1-.32-.18c.92-1.79,4.93-10.62,6.07-12.83h0a3.88,3.88,0,0,1,3.6-1.65h.3v0a7.73,7.73,0,0,1,3.31.71,2.55,2.55,0,0,1,1.7,2.1v.13l0,0c-.45,1.42-4.33,10.81-4.94,12.89h0a9.18,9.18,0,0,0-.47,2.6l.15.85.21.16c.38.08,1.7-1.05,3.06-3.76l.33.17-.33-.16c.62-1.26,1.3-2.62,1.86-4v-.06a1.85,1.85,0,0,1,1.62-.91,2.14,2.14,0,0,1,2.19,2l-.06.47v0l-.35-.14-.35-.1,0-.27a1.45,1.45,0,0,0-1.45-1.24l-1,.55-.31-.19.34.13c-.57,1.46-1.26,2.85-1.89,4.1h0c-1.46,2.75-2.6,4.08-3.71,4.16l-.87-.55-.23-1.21a9.94,9.94,0,0,1,.5-2.8c.64-2.17,4.52-11.56,4.94-12.9l.36.11h-.37v-.05c0-.5-.44-1-1.27-1.43a7,7,0,0,0-3-.64h-.29a3.2,3.2,0,0,0-2.95,1.25l-.33-.17.33.17c-1.12,2.17-5.13,11-6.08,12.83l-.68-.28c.5-1.62,2.88-9.4,3.31-11.3l.36.08-.36.07c-.2-1.37-2.55-2.36-4.16-2.34a2.09,2.09,0,0,0-1.15.25l-.22-.3.37.06c-.2,1.25-5,18.53-5.32,22.14l-.36,0h.36v0a2.25,2.25,0,0,0,1.23,1.81,5.22,5.22,0,0,0,2.72.76,3.43,3.43,0,0,0,1.87-.49l.2.3-.26-.26a10.63,10.63,0,0,0,.71-1.23c1.11-2.13,3.1-6.33,4.42-9.06l.33.16h-.37v-.12h.37l.35.1a20.08,20.08,0,0,0-.68,4.81c0,2.68.8,4.58,2.37,5.35a4,4,0,0,0,1.82.45c2.14,0,4.17-2,6-4.54a41.59,41.59,0,0,0,4-8.3l.34.13-.35-.1Z" style="fill:#fdf1d7"/><path id="Path_191" data-name="Path 191" d="M195.8,163.46a39.44,39.44,0,0,1-4,8.39c-2.38,3.19-5.2,5.7-8.58,4.26-1.75-.69-3.82-3.7-5.14-8.46-1.37,4.38-2.5,7.64-3.06,8.39-.94,1.5-5.26-.06-5.2-2.5.13-1.5,9.27-37.56,10-39.76.31-1.06,2.69-.75,4.2-.24s3.19,1.56,3.13,3.13c-.32.81-3.13,11.14-6,21a43.42,43.42,0,0,0,6.57-6.57c2-2.38,4.82,3,4.2,4.82-1,2.94-4.7,5.76-8.45,6.76,1.75,9.64,4.82,8.76,7.45,3.63.69-1.25,1.31-2.63,1.94-4.07.87-1.56,3.44-.37,3,1.25" style="fill:#fdf1d7"/><path id="Path_192" data-name="Path 192" d="M195.8,163.46l.35.13a39.16,39.16,0,0,1-4.07,8.48c-1.92,2.57-4.16,4.8-6.92,4.82a5.19,5.19,0,0,1-2.09-.44l.14-.34-.14.34c-2-.8-4-3.88-5.35-8.7l.36-.1.35.11c-1.39,4.41-2.48,7.61-3.12,8.5L175,176l.31.19a1.88,1.88,0,0,1-1.67.77c-1.74,0-4.15-1.32-4.21-3.41v-.08h0c.14-1.63,9.26-37.58,10-39.84l.36.11-.36-.1c.27-.81,1.13-1,2-1a9.65,9.65,0,0,1,2.71.48l-.12.36.11-.36c1.47.46,3.35,1.57,3.4,3.4v.17l0,0c-.29.75-3.12,11.13-6,21l-.35-.11-.22-.3a42.76,42.76,0,0,0,6.52-6.52l.27.25-.28-.24,1.39-.73a3.35,3.35,0,0,1,2.49,1.93,6.91,6.91,0,0,1,1.06,3.25l-.11.73c-1.09,3.12-4.85,6-8.71,7l-.1-.36.36-.06a19.88,19.88,0,0,0,1.67,5.57c.62,1.14,1.22,1.53,1.74,1.53.9,0,2.19-1.27,3.35-3.57h0c.69-1.23,1.3-2.6,1.93-4v0a1.75,1.75,0,0,1,1.57-.92,2.13,2.13,0,0,1,2.17,2l-.06.47v0h0l-.35-.13-.36-.1,0-.27-.44-.87-1-.37-.93.54-.32-.18.34.14c-.63,1.45-1.26,2.84-2,4.1l-.32-.17.33.17c-1.23,2.34-2.48,3.92-4,4-.93,0-1.74-.69-2.4-1.92a20.39,20.39,0,0,1-1.75-5.79l-.05-.34.32-.09c3.66-1,7.28-3.76,8.2-6.52h0l.07-.49a6.18,6.18,0,0,0-.94-2.86c-.56-1-1.33-1.6-1.87-1.57l-.82.46h0a44.28,44.28,0,0,1-6.64,6.63l-.88.63.3-1c2.89-9.84,5.69-20.12,6-21l.34.14-.37,0v-.07c0-1.21-1.51-2.3-2.87-2.7h0a8.34,8.34,0,0,0-2.47-.44c-.78,0-1.22.21-1.25.45h0c-.68,2.12-9.84,38.3-9.94,39.67l-.37,0h.37v0a2.43,2.43,0,0,0,1.17,1.88,4.22,4.22,0,0,0,2.3.79,1.15,1.15,0,0,0,1-.41v0h0c.47-.61,1.65-3.92,3-8.28l.37-1.2.34,1.21c1.28,4.7,3.38,7.64,4.91,8.21h0a4.66,4.66,0,0,0,1.8.39c2.31,0,4.45-2,6.33-4.52a38.8,38.8,0,0,0,4-8.3l.35.13-.36-.1Z" style="fill:#fdf1d7"/><path id="Path_193" data-name="Path 193" d="M213.83,163.59a54.11,54.11,0,0,1-4.07,8.26c-5.45,8.76-21,5.19-18.22-8.83.88-4.19,1.94-7.07,4.07-9.64,4-4.26,12.15-2.69,13.33-.75.82,1.19.44,4.44-.62,7.07-1.44,3.57-4.57,8.76-10.08,8.08-.31,4.45,7.2,5.51,10.65-1.44.62-1.25,1.31-2.63,1.87-4a1.71,1.71,0,0,1,3.07,1.26m-15-1.45c1.63.69,3.07,0,4.2-2.38,1.06-2.12,1.19-3.94.5-4.32-1.38-.25-3.2,2-4.7,6.7" style="fill:#fdf1d7"/><path id="Path_194" data-name="Path 194" d="M213.83,163.59l.34.13a53.64,53.64,0,0,1-4.1,8.33l-.31-.2.32.2a10.56,10.56,0,0,1-14.57,3.3,11.33,11.33,0,0,1-1.47-1.11,10.72,10.72,0,0,1-3.2-8,17.74,17.74,0,0,1,.33-3.25h0c.88-4.22,2-7.18,4.15-9.8h0a10.13,10.13,0,0,1,7.48-2.83c3,0,5.61.88,6.44,2.14l-.32.2.3-.21a4.07,4.07,0,0,1,.51,2.24,14.65,14.65,0,0,1-1.1,5.18c-1.36,3.38-4.25,8.34-9.44,8.37l-1-.07,0-.37.37,0v.24c0,1.79,1.45,2.9,3.44,2.92s4.81-1.37,6.52-4.79h0c.62-1.25,1.31-2.62,1.86-4l0,0v0a1.82,1.82,0,0,1,1.61-.9,2.14,2.14,0,0,1,2.19,2l-.06.47v0l0,0-.34-.14-.35-.1,0-.27a1.45,1.45,0,0,0-1.45-1.25l-1,.55-.32-.19.35.14c-.57,1.4-1.27,2.78-1.89,4-1.8,3.63-4.73,5.2-7.18,5.2-2.25,0-4.17-1.4-4.17-3.66v-.29l0-.39.39,0,.93.07c4.63,0,7.43-4.59,8.76-7.91a14,14,0,0,0,1-4.9,3.42,3.42,0,0,0-.38-1.83h0c-.43-.8-3-1.81-5.81-1.78a9.45,9.45,0,0,0-6.94,2.6l-.27-.26.29.24c-2.08,2.5-3.12,5.31-4,9.48l-.36-.08.36.07a16.32,16.32,0,0,0-.31,3.11c0,6.63,4.71,10,9.54,10a9.69,9.69,0,0,0,8.32-4.58h0a53.33,53.33,0,0,0,4-8.2l.34.14-.35-.1Zm-15-1.45.15-.34,1,.22c1,0,1.87-.67,2.71-2.42h0a7.42,7.42,0,0,0,.89-3c0-.51-.15-.75-.23-.78l.18-.33-.07.37-.14,0c-.46,0-1.17.44-1.91,1.53a18.73,18.73,0,0,0-2.23,4.93l-.35-.11.14-.34-.14.34-.35-.11a19.74,19.74,0,0,1,2.31-5.13c.81-1.16,1.63-1.83,2.53-1.85l.27,0,.06,0,0,0a1.54,1.54,0,0,1,.62,1.43,8,8,0,0,1-1,3.38l-.33-.17.34.16c-.87,1.85-2,2.84-3.38,2.85l-1.3-.29-.31-.13.1-.32Z" style="fill:#fdf1d7"/><path id="Path_195" data-name="Path 195" d="M237.43,164c-2.5,7.2-7.27,10.33-11.27,11.58l-.19.07-.06.19c-3.7,7.88-8.51,12.95-13.84,13.9-1.94.38-4.63.06-5.2-1.69-1.25-3.64,1.69-8.89,8.39-11.65l-.68-.06c-3.13-.63-6.39-3.7-5.14-9.83a115.49,115.49,0,0,1,4.26-15.15c.56-1.07,2.63-.82,4.07-.32s3.19,1.57,3.13,3.13c-.57,1.7-3.07,8.46-4.2,12-1.56,5,3.38,5.57,5.07.62a86,86,0,0,0,3.07-14.46c.06-3.26,7.82-.94,7.51,1.75-.31,1.94-1.75,11.21-4.44,17l-.07.19c3-1.13,4.82-4.39,6.2-7.7s4.2-1.63,3.39.5M217,179.3a26.29,26.29,0,0,0-4,3.82c-.62.76-1.5,2.26-.75,1.94A19.71,19.71,0,0,0,217,179.3" style="fill:#fdf1d7"/><path id="Path_196" data-name="Path 196" d="M237.43,164l.35.12c-2.54,7.31-7.42,10.55-11.51,11.82h0v0c-3.72,7.93-8.59,13.12-14.11,14.11l-.06-.37.07.36a7.54,7.54,0,0,1-1.57.16c-1.67,0-3.51-.5-4-2.09l.35-.12-.35.12a5.78,5.78,0,0,1-.3-1.85c0-3.64,3.12-7.87,8.9-10.25l.14.33,0,.38-.69-.07h0c-2.81-.54-5.72-3-5.71-7.62a13,13,0,0,1,.29-2.64l.36.07-.36-.06a112.26,112.26,0,0,1,4.3-15.26,2.18,2.18,0,0,1,2.07-.94,7.8,7.8,0,0,1,2.44.45c1.45.52,3.34,1.56,3.38,3.4v.2c-.57,1.7-3.07,8.46-4.19,12h0a5.46,5.46,0,0,0-.29,1.66c0,1.37.66,1.9,1.48,1.92,1,0,2.42-1,3.17-3.19a86,86,0,0,0,3.06-14.38l.37,0h-.38c0-1.41,1.3-2,2.58-2a8,8,0,0,1,3.67,1,3.33,3.33,0,0,1,2,2.55v.22c-.33,1.94-1.75,11.22-4.48,17.06l-.34-.16.35.12-.06.19-.35-.12-.13-.35c2.82-1,4.62-4.19,6-7.5.58-1.4,1.51-2.07,2.4-2.07a1.89,1.89,0,0,1,1.83,1.94v0l-.17.89-.34-.14.35.13-.35-.13-.35-.13.12-.62a1.15,1.15,0,0,0-1.07-1.22h0c-.5,0-1.19.37-1.72,1.62-1.4,3.33-3.22,6.69-6.42,7.9l-.72.28.32-1v0c2.67-5.68,4.11-14.93,4.42-16.87l.37.06-.37,0v-.12c0-.6-.63-1.35-1.64-1.91a7.4,7.4,0,0,0-3.31-.91c-1.17,0-1.82.37-1.84,1.23v0a86.88,86.88,0,0,1-3.09,14.54h0c-.83,2.42-2.43,3.67-3.88,3.68a2.06,2.06,0,0,1-1.59-.71,3,3,0,0,1-.62-2,6.34,6.34,0,0,1,.32-1.88c1.13-3.52,3.64-10.28,4.2-12l.35.11h-.37v-.07c0-1.2-1.5-2.23-2.89-2.7a7.08,7.08,0,0,0-2.19-.41c-.74,0-1.25.2-1.42.56a116.78,116.78,0,0,0-4.22,15v0a12.26,12.26,0,0,0-.28,2.49c0,4.27,2.61,6.38,5.12,6.9l-.07.36,0-.37.69.06.11.71c-5.6,2.3-8.46,6.37-8.45,9.57a5.23,5.23,0,0,0,.26,1.62h0c.31,1.07,1.77,1.58,3.34,1.58l1.43-.13h0c5.13-.89,9.9-5.85,13.57-13.69l.34.16-.35-.12.06-.19.06-.18.37-.12c3.92-1.23,8.56-4.26,11-11.35h0ZM217,179.3l.22.29a26.45,26.45,0,0,0-3.94,3.76l-1,1.61h-.22l.17-.13.05.13h-.22l.17-.13-.2.16v-.26l.2.1-.2.16v-.26h0v0h0l.14.34-.23-.29a19.91,19.91,0,0,0,4.67-5.66l.32.19.22.29-.22-.29.32.18a20.63,20.63,0,0,1-4.85,5.87l0,0,0,0-.31.07-.38-.17-.11-.34a4.93,4.93,0,0,1,1.13-2.08,26.09,26.09,0,0,1,4.06-3.87l.55.47Z" style="fill:#fdf1d7"/><path id="Path_197" data-name="Path 197" d="M122.88,160.26c-3.13,10.21-8.95,20.48-28.67,14.66-2.57-.88-.63-7.2,2.13-6.51,2.25-8.83,6.32-23.86,7.26-27.37a64.81,64.81,0,0,0-6.51,1.19c-1.19-1.19-.88-6.07.81-7.7a43.62,43.62,0,0,1,15.53-1.75c8.7.69,15.21,8.95,9.45,27.48m-12.27-20c-.87,4.2-5.38,21.16-7.76,29.42,6.07,1.07,11.52-1.75,14.28-10.64,4.44-14.34.87-20.1-6.52-18.78" style="fill:#191210"/><path id="Path_198" data-name="Path 198" d="M154.75,155.57c-1.06,3.44-4.25,5.88-6.57,7.26-.63,7.39-6.14,15.16-14.72,13.59-12.45-2.25-7.82-27.73,7.08-25.48,4.45.62,6.83,3.88,7.51,7.89a10.07,10.07,0,0,0,5-4c.69-1.32,2.32-1.13,1.69.75m-13.15,9.2c-3.38.13-6.38-1.12-7.32-3.75-2.25,3.38-2.19,8.14,1.44,9.14,3-.19,5.07-2.63,5.88-5.39m-3.19-7.07c-.56,2,1,2.88,3.26,2.88.25-2.56-1.88-4-3.26-2.88" style="fill:#191210"/><path id="Path_199" data-name="Path 199" d="M173.73,163.52a41.45,41.45,0,0,1-4.08,8.39c-2.31,3.2-5,5.83-8.26,4.2-2.7-1.32-3.2-5.51-1.88-10.58v.12c-1.75,3.63-4.7,9.9-5.2,10.39-2.06,1.39-6.44,0-6.38-2.43.32-3.7,5.13-21,5.32-22.17,1.19-.88,5.45.06,5.89,2.31-.44,1.94-2.82,9.71-3.32,11.34.94-1.82,5-10.65,6.07-12.84.57-1.06,2-1.5,3.57-1.44,2.25,0,4.7,1,4.63,2.5-.44,1.38-4.32,10.77-4.94,12.9-1.51,5,.69,5.83,3.63.12.63-1.24,1.31-2.62,1.88-4.06a1.7,1.7,0,0,1,3.07,1.25" style="fill:#191210"/><path id="Path_200" data-name="Path 200" d="M193.57,163.46a38.5,38.5,0,0,1-4,8.39c-2.37,3.19-5.19,5.7-8.57,4.26-1.75-.69-3.82-3.7-5.14-8.46-1.37,4.38-2.5,7.64-3.06,8.39-.94,1.5-5.26-.06-5.2-2.5.13-1.5,9.27-37.56,10-39.76.31-1.06,2.69-.75,4.2-.24s3.19,1.56,3.13,3.13c-.32.81-3.13,11.14-6,21a43,43,0,0,0,6.58-6.57c2-2.38,4.82,3,4.2,4.82-1,2.94-4.7,5.76-8.45,6.76,1.75,9.64,4.82,8.76,7.45,3.63.68-1.25,1.31-2.63,1.94-4.07.87-1.56,3.44-.37,3,1.25" style="fill:#191210"/><path id="Path_201" data-name="Path 201" d="M211.6,163.59a53.15,53.15,0,0,1-4.06,8.26c-5.45,8.76-21,5.19-18.22-8.83.88-4.19,1.94-7.07,4.07-9.64,4-4.26,12.15-2.69,13.33-.75.82,1.19.44,4.44-.62,7.07-1.44,3.57-4.57,8.76-10.08,8.08-.31,4.45,7.2,5.51,10.65-1.44.61-1.25,1.31-2.63,1.87-4a1.7,1.7,0,0,1,2.38-.38,1.68,1.68,0,0,1,.68,1.64m-15-1.45c1.63.69,3.07,0,4.2-2.38,1.06-2.12,1.19-3.94.5-4.32-1.38-.25-3.2,2-4.7,6.7" style="fill:#191210"/><path id="Path_202" data-name="Path 202" d="M235.21,164c-2.5,7.2-7.26,10.33-11.27,11.58l-.18.07-.07.19c-3.69,7.88-8.52,12.95-13.83,13.9-1.94.38-4.64.06-5.2-1.69-1.26-3.64,1.69-8.89,8.39-11.65l-.69-.06c-3.13-.63-6.39-3.7-5.13-9.83a114,114,0,0,1,4.26-15.15c.55-1.07,2.62-.82,4.06-.32s3.19,1.57,3.13,3.13c-.56,1.7-3.07,8.46-4.2,12-1.56,5,3.39,5.57,5.07.62,1.82-5.2,2.88-13,3.08-14.46.06-3.26,7.82-.94,7.51,1.75-.32,1.94-1.76,11.21-4.45,17l-.06.19c3-1.13,4.82-4.39,6.2-7.7s4.2-1.63,3.38.5M214.8,179.3a26.36,26.36,0,0,0-4,3.82c-.62.76-1.5,2.26-.75,1.94a19.87,19.87,0,0,0,4.76-5.76" style="fill:#191210"/></g></g></g></g></svg>