<svg id="圖層_1" data-name="圖層 1" xmlns="http://www.w3.org/2000/svg" xmlns:xlink="http://www.w3.org/1999/xlink" viewBox="0 0 267.57 267.57"><defs><clipPath id="clip-path"><rect x="15.19" y="27.15" width="234.68" height="201.37" style="fill:none"/></clipPath></defs><g id="Group_9" data-name="Group 9"><rect id="Rectangle_218" data-name="Rectangle 218" x="0.13" y="0.13" width="267.32" height="267.32" style="fill:none"/><path id="Path_56" data-name="Path 56" d="M129.92,27.15l-8,8.76-9.44-7.24-6.4,10L95.48,33.22l-4.55,11L79.58,40.63,77,52.24,65.2,50.7l-.53,11.88-11.88.53L54.34,74.9,42.73,77.48,46.3,88.83l-11,4.56,5.5,10.55-10,6.4L38,119.78l-8.77,8,8.77,8-7.25,9.44,10,6.4-5.5,10.55,11,4.56-3.57,11.35,11.61,2.58-1.55,11.79,11.88.53L65.2,205,77,203.41,79.58,215l11.35-3.58,4.55,11L106,217l6.4,10,9.44-7.24,8.05,8.77,8-8.77,9.44,7.24,6.4-10,10.56,5.48,4.55-11L180.27,215l2.58-11.62,11.8,1.56.53-11.89,11.88-.53-1.55-11.79,11.62-2.58-3.57-11.35,11-4.56L219,151.72l10-6.4-7.24-9.44,8.77-8-8.77-8,7.24-9.44L219,104l5.49-10.55-11-4.56,3.57-11.35L205.5,74.9l1.55-11.79-11.88-.52-.53-11.88-11.8,1.54-2.58-11.62-11.35,3.58-4.55-11L153.8,38.7l-6.4-10L138,35.91Z" style="fill:#84b9c1"/><g id="Group_8" data-name="Group 8"><g style="clip-path:url(#clip-path)"><g id="Group_7" data-name="Group 7"><path id="Path_57" data-name="Path 57" d="M132.53,45.09c-.94,0-1.88-.06-2.82-.06-1.23,0-2.45,0-3.67.09l3.25,89.44Z" style="fill:#afd1d6"/><path id="Path_58" data-name="Path 58" d="M126.57,209.44c1,0,2.09.06,3.14.06l2.29,0-2.71-74.91Z" style="fill:#afd1d6"/><path id="Path_59" data-name="Path 59" d="M117,46q-3.21.49-6.35,1.25l18.68,87.29Z" style="fill:#afd1d6"/><path id="Path_60" data-name="Path 60" d="M139.64,208.91q2.72-.33,5.38-.83l-15.73-73.51Z" style="fill:#afd1d6"/><path id="Path_61" data-name="Path 61" d="M101.89,49.86c-2,.73-4,1.53-6,2.42l33.37,82.28Z" style="fill:#afd1d6"/><path id="Path_62" data-name="Path 62" d="M152.5,206.3q2.64-.77,5.2-1.69l-28.41-70.05Z" style="fill:#afd1d6"/><path id="Path_63" data-name="Path 63" d="M87.89,56.45c-1.84,1.09-3.63,2.24-5.38,3.47l46.78,74.64Z" style="fill:#afd1d6"/><path id="Path_64" data-name="Path 64" d="M164.84,201.64q2.5-1.19,4.9-2.52l-40.45-64.56Z" style="fill:#afd1d6"/><path id="Path_65" data-name="Path 65" d="M75.45,65.48c-1.59,1.39-3.12,2.85-4.6,4.36l58.43,64.72Z" style="fill:#afd1d6"/><path id="Path_66" data-name="Path 66" d="M176.37,195c1.53-1,3-2.16,4.47-3.31l-51.55-57.11Z" style="fill:#afd1d6"/><path id="Path_67" data-name="Path 67" d="M65,76.52c-1.28,1.64-2.51,3.34-3.67,5.08l68,53Z" style="fill:#afd1d6"/><path id="Path_68" data-name="Path 68" d="M186.79,186.47q2-2,3.92-4.05l-61.42-47.86Z" style="fill:#afd1d6"/><path id="Path_69" data-name="Path 69" d="M56.83,89.15q-1.44,2.75-2.67,5.59l75.12,39.83Z" style="fill:#afd1d6"/><path id="Path_70" data-name="Path 70" d="M195.78,176.23q1.71-2.29,3.25-4.7l-69.74-37Z" style="fill:#afd1d6"/><path id="Path_71" data-name="Path 71" d="M51.15,102.88c-.6,1.93-1.13,3.9-1.59,5.89l79.73,25.79Z" style="fill:#afd1d6"/><path id="Path_72" data-name="Path 72" d="M203.06,164.47c.88-1.71,1.69-3.47,2.45-5.26l-76.22-24.65Z" style="fill:#afd1d6"/><path id="Path_73" data-name="Path 73" d="M48.09,117.19c-.24,2-.42,4-.51,6l81.71,11.37Z" style="fill:#afd1d6"/><path id="Path_74" data-name="Path 74" d="M208.32,151.46c.57-1.87,1.09-3.77,1.53-5.7l-80.56-11.2Z" style="fill:#afd1d6"/><path id="Path_75" data-name="Path 75" d="M47.59,131.6c.1,2,.27,4,.52,5.91l81.18-2.95Z" style="fill:#afd1d6"/><path id="Path_76" data-name="Path 76" d="M211.31,137.53c.24-2,.42-4,.52-6l-82.54,3Z" style="fill:#afd1d6"/><path id="Path_77" data-name="Path 77" d="M49.54,145.66c.43,1.91.94,3.79,1.51,5.64l78.24-16.74Z" style="fill:#afd1d6"/><path id="Path_78" data-name="Path 78" d="M211.84,123.07c-.1-2-.28-4.06-.53-6.06l-82,17.55Z" style="fill:#afd1d6"/><path id="Path_79" data-name="Path 79" d="M53.81,159c.74,1.78,1.55,3.51,2.4,5.22l73.07-29.63Z" style="fill:#afd1d6"/><path id="Path_80" data-name="Path 80" d="M209.8,108.52c-.47-2-1-4-1.63-6l-78.88,32Z" style="fill:#afd1d6"/><path id="Path_81" data-name="Path 81" d="M60.17,171.19q1.52,2.4,3.2,4.68l65.91-41.3Z" style="fill:#afd1d6"/><path id="Path_82" data-name="Path 82" d="M205.09,94.38q-1.25-2.86-2.72-5.63l-73.08,45.81Z" style="fill:#afd1d6"/><path id="Path_83" data-name="Path 83" d="M68.37,182c1.24,1.39,2.52,2.74,3.86,4l57.06-51.51Z" style="fill:#afd1d6"/><path id="Path_84" data-name="Path 84" d="M197.81,81.16c-1.18-1.74-2.43-3.44-3.74-5.08l-64.78,58.48Z" style="fill:#afd1d6"/><path id="Path_85" data-name="Path 85" d="M78.09,191.28q2.14,1.72,4.41,3.33l46.79-60.05Z" style="fill:#afd1d6"/><path id="Path_86" data-name="Path 86" d="M188.12,69.39c-1.5-1.51-3-3-4.66-4.36l-54.17,69.54Z" style="fill:#afd1d6"/><path id="Path_87" data-name="Path 87" d="M89.05,198.77c1.59.9,3.2,1.75,4.85,2.55l35.39-66.76Z" style="fill:#afd1d6"/><path id="Path_88" data-name="Path 88" d="M176.32,59.51c-1.77-1.21-3.57-2.36-5.43-3.44l-41.6,78.49Z" style="fill:#afd1d6"/><path id="Path_89" data-name="Path 89" d="M101,204.34q2.54.94,5.16,1.73l23.14-71.51Z" style="fill:#afd1d6"/><path id="Path_90" data-name="Path 90" d="M162.78,52c-2-.87-4-1.66-6-2.37l-27.48,85Z" style="fill:#afd1d6"/><path id="Path_91" data-name="Path 91" d="M113.59,207.92c1.77.35,3.55.64,5.36.88l10.33-74.24Z" style="fill:#afd1d6"/><path id="Path_92" data-name="Path 92" d="M148,47.08c-2.1-.47-4.22-.87-6.37-1.18l-12.34,88.66Z" style="fill:#afd1d6"/><path id="Path_93" data-name="Path 93" d="M129.66,212.48h-.37a1.61,1.61,0,0,1,0-3.22h.35a1.61,1.61,0,1,1,0,3.22m6.44-.24A1.61,1.61,0,0,1,136,209l.35,0a1.6,1.6,0,1,1,.41,3.18l-.16,0-.36,0h-.12m-13.23-.05h-.13l-.37,0a1.61,1.61,0,0,1,.11-3.22l.17,0,.35,0a1.61,1.61,0,0,1-.13,3.22m20-.75a1.61,1.61,0,0,1-.25-3.2l.35-.06a1.61,1.61,0,1,1,.52,3.18l-.36.06h-.26m-26.73-.07-.26,0-.37-.06a1.61,1.61,0,0,1,.54-3.18l.34.06a1.61,1.61,0,0,1-.25,3.2m33.4-1.26a1.61,1.61,0,0,1-.38-3.17l.35-.08a1.6,1.6,0,1,1,.79,3.11h0l-.35.08-.38.05M109.45,210l-.38-.05-.36-.08a1.61,1.61,0,0,1,.74-3.14l0,0,.35.09a1.6,1.6,0,0,1-.4,3.16m46.6-1.76a1.61,1.61,0,0,1-.5-3.14l.33-.11a1.61,1.61,0,0,1,1.1,3l-.08,0-.34.11-.51.09m-53.13-.15-.51-.08-.35-.12a1.61,1.61,0,1,1,1-3l.33.12a1.61,1.61,0,0,1-.52,3.13m59.49-2.27a1.61,1.61,0,0,1-.64-3.08l.33-.14a1.61,1.61,0,0,1,1.31,2.94h0l-.33.15-.63.12m-65.84-.18-.63-.13-.34-.15a1.61,1.61,0,0,1,1.29-2.94l.32.14a1.61,1.61,0,0,1-.64,3.08m72-2.73a1.61,1.61,0,0,1-.75-3l.31-.16a1.61,1.61,0,1,1,1.52,2.84l-.33.17-.75.19m-78.1-.23-.76-.19-.32-.17a1.61,1.61,0,1,1,1.53-2.83h0l.31.17a1.6,1.6,0,0,1-.76,3m84-3.19a1.6,1.6,0,0,1-.87-3l.29-.2a1.61,1.61,0,1,1,1.79,2.68l0,0-.3.2-.86.24m-89.85-.25-.87-.26-.3-.2a1.61,1.61,0,0,1,1.7-2.73l0,0,.3.18a1.61,1.61,0,0,1-.88,3M180,195.6l-1.28-.63a1.61,1.61,0,0,1,.31-2.25h0l.28-.21a1.61,1.61,0,1,1,2,2.55h0l-.3.22-1,.33m-101-.3L78,195l-.28-.22a1.61,1.61,0,0,1,2-2.55l.28.22a1.6,1.6,0,0,1,.3,2.25h0L79,195.3m106.24-4-1.2-.53a1.62,1.62,0,0,1,.11-2.27h0l.25-.23a1.61,1.61,0,1,1,2.16,2.39l-.27.24-1.07.41M73.79,191l-1.08-.42-.27-.24a1.61,1.61,0,0,1,2.11-2.43l.06.06.26.23a1.61,1.61,0,0,1,.11,2.27h0l-1.19.53m116.35-4.4-1.11-.44a1.61,1.61,0,0,1-.06-2.27l.24-.26a1.61,1.61,0,1,1,2.35,2.21l-.25.26-1.17.5m-121.21-.36-1.17-.51-.25-.27a1.61,1.61,0,0,1,2.35-2.19l.25.26a1.62,1.62,0,0,1-.08,2.28l-1.1.43m125.69-4.76-1-.35a1.59,1.59,0,0,1-.24-2.25h0l.23-.28a1.61,1.61,0,1,1,2.51,2h0l-.23.28-1.26.6m-130.14-.39-1.26-.6-.22-.29a1.61,1.61,0,1,1,2.52-2h0l.22.27a1.62,1.62,0,0,1-.26,2.27l-1,.34M198.68,176l-.91-.28a1.62,1.62,0,0,1-.41-2.24l.2-.28a1.61,1.61,0,1,1,2.67,1.79l-.21.3a1.62,1.62,0,0,1-1.33.71m-138.23-.42a1.62,1.62,0,0,1-1.33-.71l-.2-.31a1.6,1.6,0,1,1,2.67-1.78l.2.29a1.62,1.62,0,0,1-.43,2.24l-.9.27m141.82-5.37-.8-.2a1.62,1.62,0,0,1-.6-2.2l.17-.31a1.61,1.61,0,0,1,2.81,1.58h0l-.18.32a1.62,1.62,0,0,1-1.4.81m-145.38-.42A1.6,1.6,0,0,1,55.5,169l-.18-.32a1.61,1.61,0,1,1,2.81-1.56h0l.17.31a1.59,1.59,0,0,1-.61,2.18l-.79.2m148.49-5.62-.68-.15a1.62,1.62,0,0,1-.78-2.14h0l.14-.32a1.61,1.61,0,0,1,2.93,1.35l-.16.33a1.6,1.6,0,0,1-1.46.93m-151.57-.43a1.63,1.63,0,0,1-1.46-1l-.15-.32A1.61,1.61,0,1,1,55.1,161a.25.25,0,0,1,0,.07l.15.32a1.59,1.59,0,0,1-.79,2.12h0l-.67.15M208,157.85l-.56-.1a1.61,1.61,0,0,1-.95-2.07l.11-.33a1.61,1.61,0,0,1,3,1.1l-.12.35a1.61,1.61,0,0,1-1.51,1m-156.75-.44a1.6,1.6,0,0,1-1.51-1.06l-.13-.34a1.61,1.61,0,1,1,3-1.08h0l.12.33a1.61,1.61,0,0,1-1,2.06l-.55.09m158.83-6-.43-.06a1.59,1.59,0,0,1-1.12-2h0l.1-.33a1.61,1.61,0,0,1,3.1.84l-.1.35a1.61,1.61,0,0,1-1.55,1.18M49.2,150.92a1.58,1.58,0,0,1-1.55-1.19l-.1-.35a1.61,1.61,0,0,1,3.11-.83l.09.35a1.6,1.6,0,0,1-1.13,2l-.42,0m162.42-6.17-.3,0a1.62,1.62,0,0,1-1.28-1.88l.07-.35a1.61,1.61,0,0,1,3.16.59h0l-.07.36a1.6,1.6,0,0,1-1.58,1.31M47.7,144.29A1.6,1.6,0,0,1,46.12,143l-.07-.36a1.61,1.61,0,0,1,3.17-.57l.05.34A1.61,1.61,0,0,1,48,144.27h0l-.29,0M212.62,138h-.17a1.61,1.61,0,0,1-1.44-1.77l0-.35a1.61,1.61,0,1,1,3.2.32h0l0,.37a1.61,1.61,0,0,1-1.6,1.44m-165.88-.46a1.63,1.63,0,0,1-1.6-1.45l0-.36a1.61,1.61,0,1,1,3.18-.45s0,.1,0,.14l0,.35a1.6,1.6,0,0,1-1.43,1.76h-.17m166.33-6.33h0a1.59,1.59,0,0,1-1.56-1.65v-.53a1.61,1.61,0,0,1,1.6-1.57h0a1.61,1.61,0,0,1,1.58,1.63l0,.56a1.6,1.6,0,0,1-1.6,1.56m-166.74-.45a1.61,1.61,0,0,1-1.61-1.58v-.37a1.61,1.61,0,0,1,3.21-.11v.42a1.6,1.6,0,0,1-1.56,1.64h0ZM213,124.26a1.62,1.62,0,0,1-1.6-1.52l0-.36a1.61,1.61,0,0,1,3.21-.2l0,.38a1.6,1.6,0,0,1-1.5,1.69H213M46.48,124h-.1a1.62,1.62,0,0,1-1.51-1.7l0-.38a1.61,1.61,0,0,1,3.21.22h0l0,.35a1.62,1.62,0,0,1-1.6,1.51m165.82-6.49a1.64,1.64,0,0,1-1.6-1.4l0-.34a1.61,1.61,0,0,1,3.18-.46l.06.37a1.62,1.62,0,0,1-1.38,1.81l-.22,0m-165.14-.28h-.22a1.6,1.6,0,0,1-1.37-1.81h0l0-.37a1.61,1.61,0,0,1,3.18.47l0,.35a1.59,1.59,0,0,1-1.59,1.38m163.93-6.41a1.61,1.61,0,0,1-1.57-1.26l-.08-.34a1.61,1.61,0,1,1,3.14-.72l.08.36a1.62,1.62,0,0,1-1.21,1.92l-.36,0M48.4,110.52l-.36,0a1.62,1.62,0,0,1-1.22-1.93l.09-.35a1.61,1.61,0,1,1,3.13.72l-.08.34a1.58,1.58,0,0,1-1.56,1.25m160.93-6.3a1.59,1.59,0,0,1-1.53-1.12l-.1-.34a1.61,1.61,0,1,1,3.06-1h0l.11.34a1.62,1.62,0,0,1-1.05,2l-.49.06M50.18,104l-.49-.07a1.61,1.61,0,0,1-1-2h0l.11-.35a1.61,1.61,0,0,1,3.06,1h0l-.1.34A1.6,1.6,0,0,1,50.18,104m156.87-6.13a1.6,1.6,0,0,1-1.49-1l-.13-.32a1.59,1.59,0,0,1,.84-2.11,1.61,1.61,0,0,1,2.11.84.14.14,0,0,1,0,.06l.14.33a1.61,1.61,0,0,1-.88,2.09h0l-.6.12M52.48,97.57l-.6-.12a1.6,1.6,0,0,1-.88-2.1h0l.13-.35a1.61,1.61,0,0,1,3,1.23l-.14.33a1.61,1.61,0,0,1-1.49,1m151.76-5.92a1.62,1.62,0,0,1-1.44-.89l-.16-.31A1.61,1.61,0,1,1,205.51,89h0l.16.33a1.61,1.61,0,0,1-.71,2.16l-.72.17M55.31,91.37l-.72-.17a1.61,1.61,0,0,1-.7-2.17h0l.16-.32a1.61,1.61,0,0,1,2.89,1.42l0,.05-.17.31a1.6,1.6,0,0,1-1.43.88M200.94,85.7a1.6,1.6,0,0,1-1.37-.77l-.18-.3a1.61,1.61,0,1,1,2.7-1.75l0,.06.18.31a1.61,1.61,0,0,1-.53,2.22l-.84.23M58.65,85.43l-.85-.24a1.61,1.61,0,0,1-.53-2.2h0l.19-.3a1.61,1.61,0,0,1,2.74,1.69l-.19.29a1.63,1.63,0,0,1-1.37.78m138.51-5.39-1.3-.67-.21-.28a1.61,1.61,0,1,1,2.55-1.95.1.1,0,0,1,0,0l.22.29a1.61,1.61,0,0,1-.34,2.24h0l-1,.31M62.45,79.79l-1-.32a1.6,1.6,0,0,1-.35-2.24h0l.21-.3A1.61,1.61,0,1,1,64,78.85l-.21.28-1.3.66m130.5-5.07-1.22-.57-.23-.26a1.61,1.61,0,1,1,2.4-2.14l0,0,.24.27a1.63,1.63,0,0,1-.17,2.28l-1.05.39M66.69,74.47l-1-.39a1.6,1.6,0,0,1-.17-2.27h0l.25-.27A1.59,1.59,0,0,1,68,71.39a1.61,1.61,0,0,1,.16,2.25l-.24.28-1.21.55m121.6-4.73-1.12-.47-.25-.24a1.61,1.61,0,0,1,2.25-2.3l.26.25a1.62,1.62,0,0,1,0,2.28l-1.15.48M71.35,69.51,70.2,69a1.6,1.6,0,0,1,0-2.26h0l.26-.26a1.61,1.61,0,0,1,2.24,2.31l-.25.24-1.13.46m111.92-4.34-1-.38-.28-.23A1.61,1.61,0,1,1,184,62.09l.28.23a1.61,1.61,0,0,1,.2,2.27l-1.23.58M76.41,65l-1.24-.59a1.61,1.61,0,0,1,.2-2.27l.29-.22a1.59,1.59,0,0,1,2.24.19l0,0a1.62,1.62,0,0,1-.22,2.27l-.27.22-1,.38m101.48-4-.94-.3-.28-.2a1.61,1.61,0,1,1,1.85-2.63l.3.21a1.62,1.62,0,0,1,.38,2.25l-1.31.67m-96.08-.18-1.32-.68a1.61,1.61,0,0,1,.38-2.24l.3-.21A1.61,1.61,0,0,1,83,60.34l-.28.2-.93.29m90.37-3.52-.82-.23-.3-.18a1.61,1.61,0,0,1,1.62-2.78l.33.19a1.62,1.62,0,0,1-.83,3m-84.66-.16a1.61,1.61,0,0,1-.81-3L87,54a1.6,1.6,0,0,1,2.19.57h0a1.61,1.61,0,0,1-.57,2.2l-.3.18-.82.22m78.66-3.07-.7-.17-.31-.15a1.6,1.6,0,1,1,1.31-2.93l.08,0,.33.15a1.61,1.61,0,0,1-.71,3.06M93.52,54a1.61,1.61,0,0,1-.7-3.06l.32-.16a1.61,1.61,0,1,1,1.39,2.9l-.32.16-.69.16m66.42-2.6-.57-.11-.34-.13a1.61,1.61,0,1,1,1.16-3l.34.14a1.61,1.61,0,0,1-.59,3.11m-60.19-.11a1.6,1.6,0,0,1-.58-3.1l.34-.13a1.61,1.61,0,0,1,1.15,3l-.34.13-.57.1m53.76-2.09-.46-.07-.34-.1a1.61,1.61,0,0,1,.9-3.09L154,46a1.59,1.59,0,0,1,1.09,2h0a1.61,1.61,0,0,1-1.54,1.16m-47.33-.08a1.62,1.62,0,0,1-.44-3.17l.35-.09A1.61,1.61,0,1,1,107,48.9l-.35.1-.45.07m40.73-1.58-.32,0-.35-.07a1.61,1.61,0,1,1,.65-3.15l.35.07a1.61,1.61,0,0,1-.33,3.19m-34.13-.07a1.61,1.61,0,0,1-.32-3.18l.35-.08a1.61,1.61,0,0,1,.65,3.16l-.35.07-.33,0m27.43-1.06H140l-.35-.05a1.61,1.61,0,0,1,.39-3.19l.36,0a1.61,1.61,0,0,1-.2,3.21m-20.71,0a1.6,1.6,0,1,1-.19-3.2l.36,0a1.61,1.61,0,0,1,.38,3.2l-.35,0-.2,0m13.94-.53h-.08l-.35,0a1.61,1.61,0,0,1,.08-3.21h.41a1.61,1.61,0,0,1-.07,3.22m-7.16,0a1.61,1.61,0,0,1-.07-3.22l.38,0a1.61,1.61,0,0,1,.11,3.22h-.42" style="fill:#191210"/><path id="Path_94" data-name="Path 94" d="M91.82,105.36l1.35,7.78c-2.94.5-8.63,1.81-11.87,2.65l-2-7.65,3.25,7.2-2.51-5.56,5.06,3.48a6,6,0,0,1-2.55,2.08l-2.51-5.56,5.06,3.48-2.3-1.58,2.76.68a2.48,2.48,0,0,1-.46.9l-2.3-1.58,2.76.68v.11H81.83l3.45-1.3a3.46,3.46,0,0,1,.29,1.3H81.83l3.45-1.3L79,113.54l4.65-4.79a6.7,6.7,0,0,1,1.62,2.42L79,113.54l4.65-4.79L78.58,114l2.91-6.69a7.6,7.6,0,0,1,2.17,1.46L78.58,114l2.91-6.69-2.94,6.77v-7.37a7.61,7.61,0,0,1,2.94.6l-2.94,6.77v-.14L76.38,107a7.29,7.29,0,0,1,2.17-.34v7.23L76.38,107l.56-.16c1.84-.42,3.7-.85,5.4-1.3a7.89,7.89,0,0,1,8.82,11.61A21.31,21.31,0,0,1,86,123.33a13.34,13.34,0,0,1-8.16,3,11.27,11.27,0,0,1-6-1.71,13.16,13.16,0,0,1-5.24-6.67A22.61,22.61,0,0,1,65.26,110a39.72,39.72,0,0,1,.62-6.8h0a32.32,32.32,0,0,1,4.73-12.65,17.58,17.58,0,0,1,4.45-4.61,12.42,12.42,0,0,1,7-2.29,11.57,11.57,0,0,1,6.44,2l.06,0a9.06,9.06,0,0,1,3.14,3.82,9.39,9.39,0,0,1,.75,3.74,11.79,11.79,0,0,1-.76,4.07,31.57,31.57,0,0,1-3.88,7l-.18.25-5.46-4.14h6.85a6.86,6.86,0,0,1-1.39,4.14l-5.46-4.14h.86l5-3.4a6,6,0,0,1,1,3.4h-6l5-3.4-2.62,1.78L87,96a2.88,2.88,0,0,1,1,1l-2.62,1.79L87,96,85.3,99V95.58A3.27,3.27,0,0,1,87,96L85.3,99v1.85L83.24,96a5.21,5.21,0,0,1,2.06-.43v5.31L83.24,96l2.19,5.19-4.32-3.63A5.77,5.77,0,0,1,83.24,96l2.19,5.19-4.32-3.63,6,5.08L81,97.71a13.65,13.65,0,0,0,2-3.45,8.66,8.66,0,0,0,.66-3l7.9,0-7.85.85,3.89-.42L83.87,93a4.36,4.36,0,0,1-.16-.8l3.89-.41L83.87,93l.62-.2-.61.23v0l.62-.2-.61.23L83,91.56l-.37-.45,2.85-2.89-1.67,3.63a3.62,3.62,0,0,1-1.18-.74l2.85-2.89-1.67,3.63,3.3-7.17L84.07,92l.3-.71-.22.73-.08,0,.3-.71-.22.73-.57,0a4.53,4.53,0,0,0-2.16.58A9.77,9.77,0,0,0,78,95.71l0,0c-1.77,2.53-3.43,6.54-3.45,13.58,0,.57,0,1.16,0,1.76v0a11.39,11.39,0,0,0,1.57,5.3,5.53,5.53,0,0,0,1.07,1.29l.21.15-.33.63.15-.69.18.06-.33.63.15-.69.08,0,.34,0a2.7,2.7,0,0,0,1.46-.57,12.24,12.24,0,0,0,2.92-3,7.9,7.9,0,0,1,14.28,5c-.11,2-.32,3.34-.3,3.55l0,.55-6.76-.73h6.8l0,.73-6.75-.73h0l5.8-3.58a6.79,6.79,0,0,1,1,3.58H89.24l5.8-3.58-5.33,3.29,2.57-5.75A6.21,6.21,0,0,1,95,119.06l-5.33,3.29,2.57-5.75-2.12,4.75v-5.22a5,5,0,0,1,2.12.47l-2.12,4.75v-.21l-3.25-3.79a5,5,0,0,1,3.25-1.22v5l-3.25-3.79,2.78,3.25-4.36-.52a4.5,4.5,0,0,1,1.58-2.73l2.78,3.25-4.36-.52,7.84.93-7.85-.84c.2-1.87.6-4.79.94-7.52.17-1.36.33-2.65.44-3.66l.13-1.23,0-.32v0l2.82.1H86.85v-.1l2.82.1H86.85v-.27l6.31.22H86.85v-.22l6.31.22h-.5l-4.22,4a5.66,5.66,0,0,1-1.59-4h5.81l-4.22,4,3.86-3.7v5.4a5.57,5.57,0,0,1-3.86-1.7l3.86-3.7v1.09l.59,4.27-.59,0v-4.31l.59,4.27-1.08-7.83,1.35,7.78-1.35-7.78-1.09-7.82a14,14,0,0,1,1.58-.11,10.45,10.45,0,0,1,7.54,3.17,9.94,9.94,0,0,1,2.8,6.88v.32l-7.9-.27h7.9c0,.66,0,1.08-.08,1.6-.14,1.72-.45,4.12-.77,6.59s-.64,4.89-.77,6.17v.08a11.45,11.45,0,0,1-3.83,7.4,10.83,10.83,0,0,1-7,2.59,10.45,10.45,0,0,1-5.79-1.72,9.45,9.45,0,0,1-2.77-2.86,9.07,9.07,0,0,1-1.34-4.71l0-1,7.85.85-7.89-.3c.09-1.78.28-2.7.32-3.78l7.89.42,6.4,4.63a27.69,27.69,0,0,1-7,6.92,18.39,18.39,0,0,1-10.15,3.17,16.69,16.69,0,0,1-3.91-.44h.08a15.84,15.84,0,0,1-6.62-3.3,22.11,22.11,0,0,1-6-8.1,27.14,27.14,0,0,1-2.38-10v0c0-.81,0-1.6,0-2.39,0-9.58,2.43-17.21,6.36-22.71l0,0a25.71,25.71,0,0,1,9-8.1,20.42,20.42,0,0,1,9.5-2.38,17.41,17.41,0,0,1,6.61,1.25l.24.11a12.27,12.27,0,0,1,3.8,2.87,22.88,22.88,0,0,1,3.12,4.31,20.59,20.59,0,0,1,1.2,2.45,12.44,12.44,0,0,1,.86,3.34l0,.88A24.25,24.25,0,0,1,97.7,100a29.26,29.26,0,0,1-4.38,7.58l-.11.13a10.19,10.19,0,0,1-3.82,2.83,10.61,10.61,0,0,1-4.08.81A12.83,12.83,0,0,1,75,105.86a9.72,9.72,0,0,1-1.75-5.47A9,9,0,0,1,75.09,95l6.29,4.77L74.9,95.24a26.47,26.47,0,0,0,1.66-2.63l.3-.63,3.47,1.24H76.71A3.72,3.72,0,0,1,76.88,92l3.47,1.24h2.73l-5.83,2.52a6.44,6.44,0,0,1-.54-2.52h6.37l-5.83,2.52L83.57,93l-3.9,5.68a6.89,6.89,0,0,1-2.42-3L83.57,93l-3.9,5.67.06,0L82.1,95.2v4.23a4.35,4.35,0,0,1-2.37-.7L82.1,95.2v.88l2,2.83a3.6,3.6,0,0,1-2,.52V96.08l2,2.83-.5-.72.55.67-.05,0-.5-.72.56.67-.08.09c-.5.44-2,3-2.59,6.9h0a24.78,24.78,0,0,0-.4,4.12,9.89,9.89,0,0,0,.18,2l.08.31,0,.07-2.49,1.13,1.58-2.14a2.91,2.91,0,0,1,.91,1l-2.49,1.14,1.58-2.14-2.63,3.56v-4.42a4.52,4.52,0,0,1,2.63.86l-2.63,3.56V114l-1.31-3.27a3.45,3.45,0,0,1,1.31-.23V114l-1.31-3.27.51,1.28-.78-1.15.27-.13.51,1.28-.78-1.15a5.77,5.77,0,0,0,1.32-1.7l6.82,4,2,7.63c-2,.54-4,1-5.81,1.42l-1.8-7.69,2.36,7.54a8.46,8.46,0,0,1-9.6-3.38A9.84,9.84,0,0,1,70,115.07a14,14,0,0,1-.24-2.59,16.3,16.3,0,0,1,.85-5.18,12.82,12.82,0,0,1,1.48-3,9.7,9.7,0,0,1,4-3.36l1.28-.45c3.66-.93,9.31-2.25,13.12-2.91l.26,0Z" style="fill:#191210"/><path id="Path_95" data-name="Path 95" d="M172.14,112.19l-6.3-4.75,5.55,4.18-6.26-3a6.26,6.26,0,0,1,.71-1.15l5.55,4.18-6.26-3,2.72,1.32-2.8-1.16.08-.16,2.72,1.32-2.8-1.16s.23-.6.45-1.25c.7-2,1.78-5.44,2.54-7.82a7.9,7.9,0,0,1,15.37,3.26,11.27,11.27,0,0,0-.08,1.42,6.45,6.45,0,0,0,.08,1.17l.06.27-2.23.8,1.74-1.55.49.75-2.23.8,1.74-1.55-3.21,2.86,1.33-4.07a4.39,4.39,0,0,1,1.88,1.21l-3.21,2.86,1.33-4.07.07,0L180,107.28v-3.6l1.15.18L180,107.28v.46l-1.83-3.63a4.14,4.14,0,0,1,1.83-.43v4.06l-1.83-3.63,1.14,2.27-1.7-1.91.56-.36,1.15,2.28-1.7-1.92.32.36-.34-.34,0,0,.32.36-.34-.34a9.48,9.48,0,0,0,1.11-1.76l0,0a14.46,14.46,0,0,0,.86-2.3c.38-1.19.75-2.62,1.08-4l7.67,1.83-7.83-1,6.48.81h-6.54l.06-.81,6.48.81h.1l-5.88,3.08a6.87,6.87,0,0,1-.76-3.08h6.63l-5.87,3.08,5.62-3-3.06,5.58a6.34,6.34,0,0,1-2.56-2.62l5.62-3-3.06,5.58,2.91-5.3v6a6,6,0,0,1-2.91-.75l2.91-5.3v-.36L190,103.6a6.36,6.36,0,0,1-3.29.92V98.11L190,103.6,186.65,98l6,2.55a6.62,6.62,0,0,1-2.65,3L186.65,98l6,2.55-7.26-3.1,7.68,1.85c-.45,1.84-1,3.41-1.41,4.67l0,.08a20.53,20.53,0,0,1-2.4,4.94,10.87,10.87,0,0,1-2.25,2.44,9,9,0,0,1-2.11,1.27,8.63,8.63,0,0,1-3.36.69,8.51,8.51,0,0,1-5.42-2,9,9,0,0,1-2.9-4.65,12.17,12.17,0,0,1-.4-3.23,21,21,0,0,1,.24-3v0c.16-1,.38-2,.66-3.23.43-1.83,1-4.06,1.44-6l.6-2.46.18-.8,0-.21v0l2.93.57L176,88v-.07l2.93.56L176,88l7.79,1.32-7.87.76,6.52-.63-4.85,4.41a6.68,6.68,0,0,1-1.67-3.78l6.52-.63-4.85,4.41,3.69-3.35-1.47,4.85a5,5,0,0,1-2.22-1.5l3.69-3.36-1.47,4.85.42-1.4v1.49l-.42-.09.42-1.4v1l.07.48h-.07V95l.07.48-.31,0-.27-2.79L181,95.1a2.79,2.79,0,0,1-1.05.36l-.27-2.79L181,95.1l-2.42-4.46,3.66,3.5-1.24,1-2.42-4.46,3.66,3.5L178,90.08l5.53,2a6,6,0,0,1-1.27,2L178,90.08l5.53,2-7.42-2.7,7.45,2.6c-.11.33-.42,1.27-.76,2.37-.52,1.66-1.17,3.81-1.76,5.7s-1.07,3.49-1.42,4.5a7.9,7.9,0,0,1-15.25-3.88c.13-.78.49-3,.83-5.25.18-1.12.35-2.25.48-3.17s.22-1.71.23-1.82l7.86.67-7.46,2.56,5.49-1.88-4,4.28a5.67,5.67,0,0,1-1.54-2.4l5.49-1.88-4,4.28,2.79-3-1.21,4a4.2,4.2,0,0,1-1.58-1l2.79-3-1.21,4L170,95.2v1.91L169.4,97,170,95.2V93.64l.89,3.34a3,3,0,0,1-.89.13V93.64l.89,3.34-1.59-6,4.31,4.43a6.17,6.17,0,0,1-2.72,1.6l-1.59-6,4.31,4.42-5.51-5.65,7.9.15c0,.6,0,.73-.07,1-.17,1.72-.7,5.94-1.2,10.31l-.22,1.16c-.42,1.54-.89,3-1.29,4.13v0c-2.1,6.47-7.64,10.89-13.78,10.89a11.35,11.35,0,0,1-7.24-2.51,10.79,10.79,0,0,1-3.92-7.68,7.88,7.88,0,0,1,7.33-8.4l.43,0,0,1.09-.54-.93.52-.16,0,1.09-.54-.93.36.62-.46-.55.1-.07.36.62-.46-.55.15-.18a8.5,8.5,0,0,0,1.14-2.77h0l.19-1.47v-.26h0l2.54-.36-2.41.86-.13-.5,2.54-.36-2.41.86,5.4-1.93-4.22,3.84A5.56,5.56,0,0,1,157,94.81l5.4-1.93-4.22,3.84-.25-.29,4.59-3.78-2.79,5.28a5.78,5.78,0,0,1-1.8-1.5l4.59-3.78-2.78,5.28,1.67-3.17-1.11,3.42-.56-.25,1.67-3.17-1.11,3.42.37-1.17-.26,1.2-.11,0,.37-1.16-.26,1.2-.52,0-1.48.25-.24.12-.42-.59.58.42-.16.17-.42-.59.58.42-6.44-4.57L158.58,98a6.77,6.77,0,0,0-.83,2,21.66,21.66,0,0,0-.51,3.76l-7.88-.54,7.88.43v.49l0,.7a8,8,0,0,1-.35,3.25l-.29.89-.07.21a20.56,20.56,0,0,1-2.35,4.8,11.36,11.36,0,0,1-2.22,2.42,9.41,9.41,0,0,1-2.09,1.25,8.67,8.67,0,0,1-3.36.69,8.48,8.48,0,0,1-5.46-2,9,9,0,0,1-2.85-4.63,12.2,12.2,0,0,1-.39-3.18,20.14,20.14,0,0,1,.29-3.2v0c.3-1.87,1.18-6.79,2.07-11.69.45-2.43.89-4.84,1.25-6.8s.65-3.4.8-4.17L150,84.29l-7.86.76,5.93-.58L143.23,88a6,6,0,0,1-1.12-3l5.92-.58L143.23,88l3.62-2.66-2,4.1A4.4,4.4,0,0,1,143.23,88l3.62-2.66-2,4.1.51-1.07-.23,1.18-.28-.11.51-1.07-.23,1.18h0v0h0V86l1.2,3.29a3.27,3.27,0,0,1-1.2.26V86l1.2,3.29-2.21-6.06,4.45,4.65a6.4,6.4,0,0,1-2.24,1.41l-2.21-6.06,4.45,4.65-4.93-5.15,7.05,1a7.31,7.31,0,0,1-2.12,4.2l-4.93-5.15,7.05.94-.06.4c-.08.41-.38,2.35-.74,4.71s-.8,5.36-1.24,8.3A7.9,7.9,0,0,1,134,99.81l2.85-1.62-1.53,2.9A3.32,3.32,0,0,1,134,99.81l2.85-1.62-1.53,2.9,1.14-2.17v2.47l-1.14-.3,1.14-2.16v1.16l.9,1-.9.3v-1.31l.9,1-.49-.54.58.44-.09.1-.49-.54.58.44-.21-.16.24.13,0,0-.21-.16.23.13-.13.52,0,.29c-.25,1.54-.47,3.47-.6,5.23a8.11,8.11,0,0,1-.3,1.62c-.31,1.06-.66,2.21-1.13,3.43l-7.38-2.81,7.44,2.65a20.48,20.48,0,0,1-2.33,4.77,10.92,10.92,0,0,1-2.23,2.42,9.52,9.52,0,0,1-2.1,1.26,8.44,8.44,0,0,1-8.95-1.47,9.13,9.13,0,0,1-2.76-4.67,13,13,0,0,1-.37-3.23,19.52,19.52,0,0,1,.21-2.85l7.82,1.13-7.84-1c.25-2,1.16-8.36,2.09-14.72.46-3.16.93-6.29,1.31-8.79.2-1.25.37-2.35.5-3.23s.25-1.49.36-2.06L128.78,81l-7.88.43,6.13-.33-5,3.64a6.17,6.17,0,0,1-1.17-3.31l6.13-.33-5,3.64,3.67-2.7-2,4.17a4.47,4.47,0,0,1-1.7-1.47l3.67-2.7-2,4.17.81-1.71-.3,1.87-.51-.16.8-1.72-.3,1.88-.3-.05,0-.06v.06h0v0h0V82.86l1.13,3.24a2.9,2.9,0,0,1-1.13.24V82.86l1.13,3.24-2.11-6,4.23,4.76a6.52,6.52,0,0,1-2.12,1.26l-2.11-6,4.23,4.76-4.72-5.31,7,1.4a7.18,7.18,0,0,1-2.24,3.91l-4.72-5.32,7,1.4-7.74-1.56,7.77,1.4s-.17,1.14-.34,2.5c-.53,4.21-1.43,12.11-2.16,18.57a7.73,7.73,0,0,1-1.4,3.68,18.14,18.14,0,0,1-3.06,3.31,15.4,15.4,0,0,1-3.42,2.24,7.89,7.89,0,0,1-10.47-3.89,7.46,7.46,0,0,1-.35-.89l-.31-.73-.11-.15.32-.32-.17.42-.15-.1.32-.32-.17.41.11-.25-.06.27,0,0,.11-.25-.06.27h-.3a2.32,2.32,0,0,0-1.15.24,3.49,3.49,0,0,0-1.34,1.62,8.75,8.75,0,0,0-.78,3.63,6,6,0,0,0,.68,3l.09.12-.39.4.22-.51.17.11-.39.4.22-.51-.26.6L105,114l.12,0-.26.6L105,114l0,.18,0-.18h0l0,.18,0-.18h.22a2.23,2.23,0,0,0,1.13-.25,3.7,3.7,0,0,0,1.44-1.71,8.41,8.41,0,0,0,.81-3.63V108a7.88,7.88,0,0,1,2.95-6.59l1.3-1.21a7.9,7.9,0,0,1,13.69,6.18c-.28,2.55-.49,4.51-.57,5.3l-7.85-.81,7.87.46V112a5.53,5.53,0,0,0,.1,1.22l0,.16-.09,0,.08,0h0l-.09,0,.08,0-2.4,1,1.68-1.92.72.9-2.4,1,1.68-1.92-2.44,2.8.66-3.67a4,4,0,0,1,1.78.86l-2.44,2.8.66-3.66.13,0-.5,2.57v-2.62l.5,0-.5,2.57v.56l-1.25-2.92,1.25-.25v3.19l-1.25-2.92.86,2-1.34-1.74.48-.27.86,2-1.34-1.74.39.51-.43-.48,0,0,.39.51-.43-.48a7,7,0,0,0,1-1.46,7.9,7.9,0,0,1,14.21,1l-2.43,1,1.52-2a3,3,0,0,1,.91,1.08l-2.43,1,1.52-2-2,2.65.2-3.34a3.43,3.43,0,0,1,1.78.68l-2,2.66.2-3.34h0v1.89l-.58-1.78.58-.11v1.89l-.58-1.78.77,2.37-1.85-1.72,1.08-.65.77,2.37-1.85-1.72.24.23-.27-.2,0,0,.24.23-.27-.2a4.44,4.44,0,0,0,.45-.83,7.9,7.9,0,0,1,14.45.19l.1.23-2.3,1.34,1.63-2.05a2.39,2.39,0,0,1,.67.71l-2.3,1.34,1.63-2.05-2.94,3.7.19-4.71a4.82,4.82,0,0,1,2.75,1l-2.94,3.7.19-4.71h.09l0,.67v-.68h0l0,.67v1.11L142.74,109l1.17-.42v1.79L142.74,109l0,.06,0-.06,0,.06,0-.06a7.14,7.14,0,0,0,1-1.54l6.95,3.74-7-3.58.35-.67a7.91,7.91,0,0,1,13.65-.73l.3.28.6.12a1.53,1.53,0,0,0,1.22-.54,7.89,7.89,0,0,1,14,3.3l-5.81,1.16,4.5-3.87a6,6,0,0,1,1.31,2.71l-5.81,1.16,4.5-3.87-3.51,3,1.61-4.39a4.56,4.56,0,0,1,1.9,1.37l-3.51,3,1.62-4.39-.93,2.53v-2.7l.93.17-.93,2.53v.47l-.94-3,.94-.15v3.17l-.94-3,1.44,4.64-3.21-3.61a4.75,4.75,0,0,1,1.78-1l1.43,4.64-3.21-3.61,5.24,5.9-6.31-4.75,6.31,4.75,5.24,5.9a10.73,10.73,0,0,1-4,2.26,12.7,12.7,0,0,1-3.72.55,12.85,12.85,0,0,1-6-1.48,10.61,10.61,0,0,1-3.1-2.47,9.85,9.85,0,0,1-2.21-4.48l7.74-1.56,6.23,4.85a17.27,17.27,0,0,1-13.68,6.63,16.91,16.91,0,0,1-7.77-1.85,16.43,16.43,0,0,1-6.36-5.71l6.61-4.32,7,3.58-.34.67-.08.16a20.88,20.88,0,0,1-4.72,6.12,13.82,13.82,0,0,1-9,3.31h-.8l.42-7.89-.33,7.89a11.12,11.12,0,0,1-4.65-1.25,12.13,12.13,0,0,1-4.15-3.68,16.59,16.59,0,0,1-1.75-3.17l7.27-3.09,7.18,3.28a16.71,16.71,0,0,1-4.84,6.47,13.3,13.3,0,0,1-8.29,2.8l-1,0h0a12.52,12.52,0,0,1-6.71-2.41,13.18,13.18,0,0,1-4.36-5.8l7.34-2.9,6.87,3.9a21,21,0,0,1-4.28,5.5,13.82,13.82,0,0,1-3.74,2.38,12.56,12.56,0,0,1-4.95,1,12.92,12.92,0,0,1-2.56-.25l1.53-7.74-1.39,7.77a12,12,0,0,1-5.16-2.26,13.16,13.16,0,0,1-4.43-6.23,19.88,19.88,0,0,1-1-6.66c0-.53,0-1.06,0-1.58l0-.36c.09-.88.3-2.83.59-5.4l7.85.87,5.84,5.31a27.8,27.8,0,0,1-3.12,2.92l-4.93-6.17,7.89-.42,0,1.28a23.55,23.55,0,0,1-4.41,13.87,18.71,18.71,0,0,1-6.13,5.37,18,18,0,0,1-8.64,2.14l-.85,0h0a15.3,15.3,0,0,1-7.24-2.12,16.54,16.54,0,0,1-6.6-7.67,22.37,22.37,0,0,1-1.8-9A23.41,23.41,0,0,1,93,97.24a18.32,18.32,0,0,1,6.13-5.38,18,18,0,0,1,8.62-2.13h.16a15.61,15.61,0,0,1,10.2,3.69,17.55,17.55,0,0,1,5.22,8.09l-7.52,2.39-3.3-7.18,1.1,2.4-1.48-2.19.38-.2,1.1,2.4-1.48-2.19.57-.53,6.44,4.56-7.85-.88c.49-4.32,1-9.27,1.53-13.4.24-2,.47-3.9.65-5.38s.32-2.47.47-3.32l0-.17a8.8,8.8,0,0,1,2.75-4.77,9.66,9.66,0,0,1,4.37-2.18,13.85,13.85,0,0,1,2.87-.3,17,17,0,0,1,3.1.3l-1.54,7.75,1.24-7.8a13.57,13.57,0,0,1,5.11,1.9,11,11,0,0,1,2.93,2.71,9.71,9.71,0,0,1,1.87,5.18,7.83,7.83,0,0,1-.15,2s-.11.66-.24,1.45c-.46,2.86-1.34,8.7-2.13,14.16s-1.53,10.64-1.7,12l0,.14-.05.65h-1.53l1.5-.22,0,.22h-1.53l1.5-.22-5.61.82,4.72-3.06a5.84,5.84,0,0,1,.9,2.24l-5.62.82,4.72-3.06-6,3.89,3.81-6a7.18,7.18,0,0,1,2.18,2.14l-6,3.89,3.81-6-4,6.24v-7.39a7.57,7.57,0,0,1,4,1.15l-4,6.24v-.16l-2.82-6.66a7.36,7.36,0,0,1,2.82-.57v7.23l-2.82-6.66,2.46,5.8-4.58-4.37a6.25,6.25,0,0,1,2.12-1.43l2.46,5.8-4.58-4.37,2.74,2.61L120,107.73l.4-.48,2.74,2.61L120,107.73l1.09.74-1.12-.69,0,0,1.09.74-1.12-.69.14-.28.36-.9.06-.16c.22-.57.46-1.34.73-2.24l7.58,2.21-7.88-.6c.17-2.16.43-4.42.75-6.5l7.8,1.24-7.84-1a16.26,16.26,0,0,1,5.11-10.2,14.45,14.45,0,0,1,9.68-3.76,13.29,13.29,0,0,1,6.24,1.52,12.52,12.52,0,0,1,5,4.88l-6.87,3.9-7.81-1.18c.44-2.91.88-5.87,1.24-8.29s.64-4.22.83-5.25l7.76,1.45-7.82-1a8.66,8.66,0,0,1,2.6-5.11,9.48,9.48,0,0,1,4.53-2.39,13.35,13.35,0,0,1,3-.32,16,16,0,0,1,3.09.3h0a14.07,14.07,0,0,1,4.84,1.9,11.06,11.06,0,0,1,2.87,2.67,10,10,0,0,1,1.88,4.88,7.91,7.91,0,0,1-.13,2.38c-.09.41-.38,1.93-.73,3.83-1.07,5.74-2.9,15.81-3.26,18.07v.06l-.08.61h-4.3l3.89-1.65a4.14,4.14,0,0,1,.41,1.65h-4.3l3.89-1.65-6.39,2.71,4.49-5.26a6.73,6.73,0,0,1,1.9,2.55l-6.39,2.71,4.49-5.26-4.79,5.62v-7.39a7.44,7.44,0,0,1,4.79,1.77l-4.79,5.62v-.16l-2.84-6.65a7.29,7.29,0,0,1,2.84-.58v7.23l-2.84-6.65,2.46,5.77-4.56-4.35a6,6,0,0,1,2.1-1.42l2.46,5.77-4.56-4.35,2.69,2.56L141.2,105l.38-.47,2.69,2.57L141.2,105l1,.69-1.05-.64,0,0,1,.69-1.05-.64.16-.3.36-.9,7.43,2.66L141.6,104l.3-.9,7.5,2.46-7.85.8a22,22,0,0,1-.12-2.29l0-1.37v-.1a36.87,36.87,0,0,1,1-6.61,22.68,22.68,0,0,1,2.7-6.37l.27-.41a15.89,15.89,0,0,1,7.22-5.52,20.25,20.25,0,0,1,7.22-1.33,17.72,17.72,0,0,1,4.7.6,13,13,0,0,1,2.52,1,9.87,9.87,0,0,1,3,2.43l-6.1,5,5.84-5.31A10.53,10.53,0,0,1,172.26,91a16.64,16.64,0,0,1,.38,3.65,22.29,22.29,0,0,1-.66,5.33h0a23.54,23.54,0,0,1-3.85,8.44,16.18,16.18,0,0,1-4.73,4.26,14.53,14.53,0,0,1-7.19,2l-.11-7.9,7.88-.53-5,.34,3.13-3.83a5.11,5.11,0,0,1,1.85,3.5l-5,.33,3.13-3.83L159.39,106v-4.4a4.37,4.37,0,0,1,2.74,1L159.39,106v-2.25L158,102a2.23,2.23,0,0,1,1.39-.39v2.15L158,102l.36.45-.43-.4.07,0,.36.45-.43-.4L158,102l.2-.45v0c.37-1.11.73-2.22,1-3.17l7.63,2.05L159,99.49c.29-2.56.6-5.09.83-7,.12-1,.21-1.79.28-2.38l.07-.67v-.1l5.09.4-5.1-.1v-.3l5.1.4-5.1-.1a7.83,7.83,0,0,1,2.38-5.5,9.43,9.43,0,0,1,4.26-2.37,12.42,12.42,0,0,1,3.15-.4,13.81,13.81,0,0,1,5.49,1.14,11.5,11.5,0,0,1,3.09,2,9.93,9.93,0,0,1,2.68,4.09,7.75,7.75,0,0,1,.4,3.24c-.07.81-.19,1.62-.33,2.67-.44,3.06-1.15,7.54-1.35,8.72L172.14,102l-7.45-2.62c.07-.2.36-1.08.68-2.13.5-1.6,1.15-3.73,1.75-5.67s1.12-3.64,1.5-4.73l0-.09a10,10,0,0,1,2.15-3.45,11.05,11.05,0,0,1,4-2.62,13.45,13.45,0,0,1,3.63-.87l.78,7.86-1.09-7.82a16.46,16.46,0,0,1,2.1-.14,13.67,13.67,0,0,1,5.68,1.17,10.1,10.1,0,0,1,3.36,2.42,9.19,9.19,0,0,1,2.37,5.32,8.06,8.06,0,0,1-.07,2.08c-.09.52-.16.82-.26,1.27-.34,1.48-.95,3.91-1.52,6.24-.28,1.17-.54,2.29-.75,3.19l-.25,1.14-.07.35,0,.11V103l0,.54h-4.27l3.84-1.65a4.34,4.34,0,0,1,.43,1.65h-4.27l3.84-1.65-6.35,2.73,4.44-5.28a6.76,6.76,0,0,1,1.91,2.55l-6.35,2.73,4.44-5.28L181.51,105V97.63a7.4,7.4,0,0,1,4.74,1.72L181.51,105v-.16l-2.83-6.63a7.23,7.23,0,0,1,2.83-.57v7.2l-2.83-6.63,2.44,5.72-4.51-4.32a6.12,6.12,0,0,1,2.07-1.4l2.44,5.72-4.51-4.32,2.58,2.47-3-2,.38-.46,2.58,2.47-3-2,.86.58-.89-.54,0,0,.86.58-.89-.54a8.69,8.69,0,0,0,.54-1.26l7.45,2.62-7.48-2.54c.41-1.2.78-2.33,1-3.27l.42-1.26a9.23,9.23,0,0,1,8.58-5.65,9.66,9.66,0,0,1,6.09,2.14,9.25,9.25,0,0,1,3.47,7.2l-.07,1.14-.16.84c-.37,1.61-.82,3.34-1.35,5a29.54,29.54,0,0,1-2.05,5.1l0,0a23,23,0,0,1-3.81,5.43,13.64,13.64,0,0,1-3.57,2.63,11.58,11.58,0,0,1-5.26,1.26,12.32,12.32,0,0,1-3.9-.65l.07,0a11.5,11.5,0,0,1-4.57-2.83,13.63,13.63,0,0,1-3.33-5.86,21,21,0,0,1-.75-5.79,29.32,29.32,0,0,1,.17-3.11l7.85.84,7.52,2.42c-.57,1.75-1.33,4.16-2,6.23-.35,1-.67,2-1,2.81l-.45,1.19-.32.72a8.46,8.46,0,0,1-.89,1.47l-1.07,1.15ZM159.36,94.7l2.77-7.39a8.49,8.49,0,0,1,3.5,2.47,9.05,9.05,0,0,1,1.88,3.72,11.11,11.11,0,0,1,.31,2.69,15.84,15.84,0,0,1-.89,5.06l-7.48-2.52L167,101.1a12.85,12.85,0,0,1-3.13,5.37,10.28,10.28,0,0,1-3.26,2.19,10.13,10.13,0,0,1-3.92.79,11.2,11.2,0,0,1-2.82-.38,7.91,7.91,0,0,1-5.73-9,25.49,25.49,0,0,1,2.31-7.37,12.21,12.21,0,0,1,2.66-3.48,9.37,9.37,0,0,1,6.22-2.43h.33a7.88,7.88,0,0,1,2.49.5l-2.77,7.4-.28,7.89.23-6.58v6.58h-.23l.23-6.58v.19l4.3,4.81a6.53,6.53,0,0,1-4.3,1.58V96.21l4.3,4.81-2.66-3,3.42,2.11a4.15,4.15,0,0,1-.76.86l-2.66-3,3.42,2.1h0a12,12,0,0,0-.69,2.63l-7.78-1.34L158,93.82l-1.28,4.78V93.66a5,5,0,0,1,1.28.16l-1.28,4.78v.74l-2.21-5.23a5.78,5.78,0,0,1,2.21-.45v5.68l-2.21-5.24,2,4.81-4.24-3.1a5.28,5.28,0,0,1,2.21-1.7l2,4.81-4.24-3.11,2.54,1.86L152,96.32l.31-.51,2.54,1.86L152,96.32l1,.49-1.08-.42,0-.07,1,.49-1.07-.42v0l0-.16.07-.27,1.42.26H152v-.26l1.42.26h3.69L152.4,98a5.26,5.26,0,0,1-.37-1.8h5.12L152.4,98l6.38-2.41-5.2,4.4a6.47,6.47,0,0,1-1.18-2l6.38-2.42-5.2,4.4,5.57-4.72-2.56,6.84a7.35,7.35,0,0,1-3-2.12l5.57-4.72-2.56,6.84,2.77-7.4-.28,7.89Zm-53.43,21.17-1,7.83a11.45,11.45,0,0,1-9.08-6.85,13.9,13.9,0,0,1-1.12-5.55,16.28,16.28,0,0,1,1.64-7.06,7.89,7.89,0,0,1,14.11-.22l-2.84,1.48,1.4-2.92a3.36,3.36,0,0,1,1.44,1.45l-2.84,1.47,1.4-2.92-.64,1.33.29-1.46.35.13-.64,1.33.29-1.46h.12l.49,0a7.9,7.9,0,0,1,9.15,6.4,7.8,7.8,0,0,1,0,2.55,15.7,15.7,0,0,1-3,7.26,13.3,13.3,0,0,1-7.92,5,7.63,7.63,0,0,1-2.61.09l1-7.83-1.57-7.73.48,2.34L102.9,109a2.54,2.54,0,0,1,1.45-.85l.48,2.34L102.9,109l.55.43-.65-.26.1-.17.55.43-.66-.26,0-.15,7.81,1.18L112,118a18.59,18.59,0,0,1-3.24.29,15.4,15.4,0,0,1-6.61-1.43,12.51,12.51,0,0,1-5.73-5.5l7-3.65,7.11,3.43-.06.17v0h-2.56l2-1.38a2.49,2.49,0,0,1,.52,1.38h-2.56l2-1.38-3.64,2.44,2.33-3.7a4.5,4.5,0,0,1,1.31,1.26l-3.64,2.44,2.33-3.7-2.24,3.57.55-4.19a4.21,4.21,0,0,1,1.69.62l-2.24,3.57.55-4.19-1,7.83-1.58-7.74Zm.88-11.77L101,98.73a9.51,9.51,0,0,1,6.92-3,9.84,9.84,0,0,1,7.38,3.38,11.05,11.05,0,0,1,2.73,6.93,7.92,7.92,0,0,1-6.81,8.14,14.83,14.83,0,0,1-2,.14,10.81,10.81,0,0,1-6.32-1.9,9.53,9.53,0,0,1-3-3.54,9.91,9.91,0,0,1-1-4.35A10.67,10.67,0,0,1,99,103a7.89,7.89,0,0,1,2-4.28l5.79,5.37,7.82,1.08-4.91-.68h5l0,.68-4.91-.68h-1l5.34-2.63a5.86,5.86,0,0,1,.63,2.63h-6l5.34-2.63-5.54,2.73L111,98.9a6.29,6.29,0,0,1,3.06,3l-5.54,2.73,2.48-5.7-1.74,4V98.49a4.56,4.56,0,0,1,1.74.4l-1.74,4V99.7l-.16-1.2h.16V99.7l-.16-1.2,1.08,7.82-7.89.31,4.75-.18-3.5,3.1a4.68,4.68,0,0,1-1.24-2.92l4.74-.18-3.5,3.1,4.43-3.93v5.86a5.83,5.83,0,0,1-4.43-1.93l4.43-3.93v-.48l4.65,4.32a6.37,6.37,0,0,1-4.65,2v-6.34l4.65,4.32-5.78-5.36,7.82,1.08Zm33.05-1,7.81-1.19v0a8.51,8.51,0,0,1,0,2.31c-.14,1-.34,1.95-.55,3s-.42,2-.58,2.67l0,.1a14.87,14.87,0,0,1-2.58,5.59,10.8,10.8,0,0,1-2.72,2.5,9.12,9.12,0,0,1-4.89,1.43,8.77,8.77,0,0,1-4.69-1.36,9.26,9.26,0,0,1-3.7-4.64,11.65,11.65,0,0,1-.7-4.09,17.21,17.21,0,0,1,.23-2.68l0-.14c.33-1.75.64-3.93.9-5.79l.09-.5a12.41,12.41,0,0,1,2.52-5.5,9.5,9.5,0,0,1,7.26-3.49A9.1,9.1,0,0,1,143,92.65a9.87,9.87,0,0,1,3.9,4.5,12,12,0,0,1,1,4.8,15.24,15.24,0,0,1-.23,2.52l-7.78-1.38,7.81-1.19-7.81,1.19-7.78-1.38,1.34.24h-1.35v-.24l1.34.24h3l-3.56,2.39a4.31,4.31,0,0,1-.83-2.39h4.38l-3.55,2.39,5.11-3.43-3.17,5.26a6.06,6.06,0,0,1-1.94-1.83l5.11-3.43-3.17,5.26,3.44-5.71v6.66a6.63,6.63,0,0,1-3.44-1l3.44-5.71v.39l4.89,4.07a6.41,6.41,0,0,1-4.89,2.2v-6.27l4.89,4.07-2.57-2.14,3.38.69a3.65,3.65,0,0,1-.81,1.45l-2.57-2.14,3.38.69-7.74-1.58,7.82,1.08c-.27,2-.6,4.32-1,6.54l-7.76-1.45,7.79,1.3,0,.13-.68-.06h.68v.06l-.68-.06H138.3l4-2.36a4.83,4.83,0,0,1,.75,2.36h-4.76l4-2.36-5.78,3.41,3.58-5.67a6.61,6.61,0,0,1,2.2,2.26l-5.78,3.41,3.58-5.67-3.75,5.94v-7a7.08,7.08,0,0,1,3.75,1.08l-3.75,5.93v-.41l-3.53-5.61a6.56,6.56,0,0,1,3.53-1v6.6l-3.53-5.61,2.46,3.9-4-2.37a4.75,4.75,0,0,1,1.58-1.54l2.46,3.9-4-2.37,1.18.7-1.28-.5.1-.19,1.18.69-1.28-.5.05-.17,7.67,1.86-7.7-1.76c.14-.58.33-1.48.51-2.34s.34-1.73.38-2l7.82,1.11-7.81,1.2v-.06a7.85,7.85,0,0,1,0-2.56Z" style="fill:#191210"/><path id="Path_96" data-name="Path 96" d="M38.84,138.44l1.09,7.82-5.68.79,2,14.71L42,161h0l.17,1.23-.62-1L42,161l.17,1.23-.62-1,.75,1.26-1-1.08.24-.18.76,1.26-1-1.08.37.4-.44-.33.07-.07.37.4-.44-.33h0l.23.17-.25-.13,0,0,.23.17-.25-.13,1.25.67H41l.17-.67,1.25.67h-.68l-.73.1v-.1h.74l-.73.1h0l-2.34-16.88,1.2-.17-1,.6-.17-.44,1.2-.16-1,.6,1.23-.72L39,146l-.17-.24,1.23-.72L39,146l.36-.33-.3.39L39,146l.36-.33-.3.39.54-.7-.29.82-.25-.12.54-.7-.29.82.49-1.4v1.49l-.49-.08.49-1.4v.83l.09.65h-.09v-.66l.09.65h0l-1.09-7.82-1.08-7.82a14.76,14.76,0,0,1,16.57,12.53l2.34,16.89h0a14,14,0,0,1,.14,2.05,14.54,14.54,0,0,1-3,8.77h0a14.61,14.61,0,0,1-4.25,3.85,14.33,14.33,0,0,1-5.46,1.89h0l-13.5,1.88a7.9,7.9,0,0,1-8.91-6.73h0L17.52,141.4a7.89,7.89,0,0,1,6.73-8.9h0l13.5-1.87h0Zm3.28,23.62L49.94,161a11.87,11.87,0,0,1,.11,1.58,11.3,11.3,0,0,1-2.27,6.74h0a11.15,11.15,0,0,1-7.5,4.4h0l-3.39.46a7.88,7.88,0,0,1-8.9-6.73h0l-3.28-23.58a7.9,7.9,0,0,1,6.74-8.9l3.38-.47h0a11.21,11.21,0,0,1,8.32,2.14h0a11.18,11.18,0,0,1,4.44,7.48h0L49.94,161h0l-7.83,1.09-7.82,1.09L32,146.27h0l4.57-.63-4,2.36a4.67,4.67,0,0,1-.62-1.73l4.57-.63-4,2.36,3.83-2.29-2.68,3.59a4.62,4.62,0,0,1-1.15-1.3l3.83-2.29-2.68,3.59h0l2.69-3.62v4.49a4.74,4.74,0,0,1-2.69-.87l2.69-3.62v.22l.6,4.23-.6,0v-4.27l.6,4.23h0l-3.38.46-1.09-7.81,7.82-1.09,3.28,23.59-7.83,1.08-1.08-7.82,3.38-.48h0l.62,4.46-2.27-3.87a4.67,4.67,0,0,1,1.65-.59l.62,4.46-2.27-3.87,2.26,3.86-3.58-2.7a4.77,4.77,0,0,1,1.32-1.17l2.26,3.87-3.58-2.7h0l3.64,2.74H34.26a4.7,4.7,0,0,1,.88-2.73l3.64,2.74h-.16l-4.32.6,0-.6h4.36l-4.32.6h0Z" style="fill:#191210"/><path id="Path_97" data-name="Path 97" d="M65.84,158.77l7.82-1.09a12,12,0,0,1,.11,1.58A11.24,11.24,0,0,1,71.5,166v0a11.23,11.23,0,0,1-7.5,4.4h0a12.44,12.44,0,0,1-1.61.11,11.27,11.27,0,0,1-6.81-2.32h0a11.23,11.23,0,0,1-4.34-7.42v0L48,137.18l7.82-1.08,1.09,7.81-6.74.94L49.07,137l7.82-1.09,3.27,23.62-1.17.17,1-.59.17.42-1.17.17,1-.59-1.24.73,1.07-1,.17.24-1.24.73,1.07-1-.41.37.34-.44.07.07-.41.37.34-.44h0l-.52.69.28-.8.24.11-.52.69.28-.8L59,160.1v-1.48l.48.09L59,160.09v-.81l-.1-.65H59v.66l-.1-.65,6.77-.94.18,1.23-.63-1,.46-.18.17,1.23-.63-1,.76,1.26L65,158l.24-.17.76,1.26L65,158l.36.4-.43-.33L65,158l.36.4-.43-.33h0l.23.18-.25-.14,0,0,.23.18-.25-.14,1.25.68H64.74l.16-.68,1.25.68h-.68l-.73.1v-.1h.73l-.73.1h0l-3.28-23.62,7.83-1.09L70.37,142l-6.73.94-1.09-7.83,7.82-1.08,3.28,23.62-7.82,1.08L58,159.86l-3.27-23.62a7.9,7.9,0,0,1,6.74-8.9l6.74-.94a7.89,7.89,0,0,1,8.9,6.73h0l3.28,23.62h0a15.72,15.72,0,0,1,.14,2.06,14.55,14.55,0,0,1-3,8.77h0a14.44,14.44,0,0,1-9.71,5.75l-6.77.94a15.88,15.88,0,0,1-2.07.14,14.41,14.41,0,0,1-8.79-3h0a14.51,14.51,0,0,1-5.7-9.69l-3.27-23.62a7.88,7.88,0,0,1,6.73-8.9h0l6.74-.94a7.88,7.88,0,0,1,8.9,6.73h0l3.28,23.62h0l-4.57.63,4-2.35a4.67,4.67,0,0,1,.61,1.72l-4.57.63,4-2.35-3.78,2.25,2.68-3.5a4.43,4.43,0,0,1,1.1,1.26l-3.78,2.24,2.68-3.5h0l-2.78,3.62v-4.54a4.66,4.66,0,0,1,2.78.92l-2.78,3.62v-.36l-.57-4.14.57,0v4.18l-.57-4.14h0l.61,4.45-2.26-3.86a4.6,4.6,0,0,1,1.65-.59l.61,4.45-2.26-3.86,2.26,3.86-3.58-2.7a4.58,4.58,0,0,1,1.32-1.16l2.26,3.86-3.58-2.7,0,0,3.65,2.72H58a4.67,4.67,0,0,1,.88-2.72l3.65,2.72h-.17l-4.32.6,0-.6h4.36l-4.32.6Z" style="fill:#191210"/><path id="Path_98" data-name="Path 98" d="M81.14,137l-6.28-4.79a11.19,11.19,0,0,1,7.45-4.36l3.38-.46h0a12.29,12.29,0,0,1,1.71-.12,10.83,10.83,0,0,1,7.35,2.81,12.21,12.21,0,0,1,3.48,6l-7.64,2-1.09-7.82,3.39-.47L94,137.67l-7.75,1.53-.18-.67,1.21-.58-1,.87-.2-.29,1.21-.58-1,.87,2-1.76-1,2.47-1-.71,2-1.76-1,2.47.76-1.84-.36,2-.4-.12.76-1.84-.36,2,.15-.8-.07.81h-.08l.15-.8-.07.81h0l-.3,0-6.76.94-.15-1.09.55.93-.4.16-.15-1.09.55.93-.62-1.05,1,.73-.38.32-.62-1.05,1,.73h0l-1-.67h1.22l-.17.67-1-.67h.49l.73-.1v.1h-.73l.73-.1,2.34,16.89h0l-1.18.16,1-.6.18.44-1.18.16,1-.6-1.24.74,1.07-1,.17.24-1.24.74,1.07-1-.39.36.32-.42.07.06-.39.36.32-.42h0l-.24.33.19-.36,0,0-.24.33.19-.36-.68,1.26v-1.43l.68.17-.68,1.26V156l-.09-.66h.09V156l-.09-.66h0l6.77-.93.3-.06h0l.76,2.11-1.84-1.15a2.57,2.57,0,0,1,1.07-1l.75,2.11-1.82-1.14,1.53,1-1.77-.44.24-.52,1.53,1-1.77-.44.16,0-.17,0v0l.16,0-.16,0,0-.35,0-.38,7.87-.56,1.09,7.82-3.38.47L92.93,155l7.89-.19v.37a11.78,11.78,0,0,1-2.44,7.45,10.79,10.79,0,0,1-3.49,2.84,12.16,12.16,0,0,1-3.77,1.17l-3.38.47h0a12.32,12.32,0,0,1-1.61.11,11.29,11.29,0,0,1-6.82-2.33h0A11.15,11.15,0,0,1,75,157.51h0l-2.34-16.88h0a11.87,11.87,0,0,1-.11-1.58,11.24,11.24,0,0,1,2.32-6.8L81.14,137l6.28,4.79L83.78,139h4.56a4.8,4.8,0,0,1-.92,2.78L83.78,139H84l4.27-.59,0,.59H84l4.27-.59h0l2.35,16.88h0l-4.54.63L90,153.62a4.74,4.74,0,0,1,.6,1.7l-4.54.64L90,153.62l-3.8,2.25,2.68-3.52A4.35,4.35,0,0,1,90,153.62l-3.8,2.25,2.69-3.52h0L86.14,156v-4.55a4.73,4.73,0,0,1,2.78.92L86.14,156v-.38l-.58-4.14.58,0v4.17l-.58-4.14h0L89,151l.54,3.91-1.78-3.5A4.21,4.21,0,0,1,89,151l.54,3.91-1.78-3.5L90,156l-4.58-2.29a5.19,5.19,0,0,1,2.25-2.27L90,156l-4.58-2.29,3,1.51H85a3.46,3.46,0,0,1,.43-1.51l3,1.51H85a7.91,7.91,0,0,1,6.8-8l3.39-.46a7.88,7.88,0,0,1,8.9,6.73,4.35,4.35,0,0,1,.06.52c0,.49.06,1,.06,1.5a16.65,16.65,0,0,1-.73,5,13.37,13.37,0,0,1-4.72,6.72A15.46,15.46,0,0,1,91.6,170l-6.77.93h0a16.18,16.18,0,0,1-2.09.14,14.41,14.41,0,0,1-8.79-3h0a14.39,14.39,0,0,1-5.7-9.69h0l-2.34-16.89a14.41,14.41,0,0,1-.15-2.07A14.61,14.61,0,0,1,78.45,125l6.76-.94a18.68,18.68,0,0,1,2.48-.18,14.68,14.68,0,0,1,5,.83A13.22,13.22,0,0,1,99,129.45a16.94,16.94,0,0,1,2.76,6.68,7.91,7.91,0,0,1-6.24,9.27l-.42.07-3.39.47A7.89,7.89,0,0,1,83,140.11l2-.53-1.84,1-.2-.46,2-.53-1.84,1,4.17-2.24-2.44,4a4.81,4.81,0,0,1-1.73-1.77l4.17-2.24-2.44,4,2.52-4.15v4.89a4.9,4.9,0,0,1-2.52-.74l2.52-4.14v1.59l.45,3.28-.45,0v-3.31l.45,3.28h0l-3.38.47h0l-.62-4.45L86.12,143a4.34,4.34,0,0,1-1.65.58l-.61-4.45L86.12,143l-2.24-3.83,3.53,2.7A4.37,4.37,0,0,1,86.12,143l-2.24-3.83,3.53,2.7Z" style="fill:#191210"/><path id="Path_99" data-name="Path 99" d="M114.18,128l6.59,4.35-9.19,13.9A7.9,7.9,0,0,1,97.17,143l-1.72-12.4,7.82-1.08,1.08,7.82-6.73.93-1.08-7.82,7.82-1.08,4.21,30.35-7.83,1.08L99.66,153l6.73-.93,1.09,7.82-7.82,1.08L98,149.15a7.91,7.91,0,0,1,13.06-7l9,8,3.17-.44,1.09,7.82-5.12,6-15.6-13.3a7.89,7.89,0,0,1-1.45-10.39l11.4-17.05,6.57,4.39,1.08,7.82-6,.83L114.18,128l6.59,4.35L114.18,128l-1.08-7.82,6-.83a7.9,7.9,0,0,1,7.65,12.21l-7.49,11.21,10.26,8.75a7.89,7.89,0,0,1-4,13.82l-6.77.94a7.87,7.87,0,0,1-6.31-1.91L100.62,154l5.23-5.92,7.82-1.08,1.63,11.78a7.89,7.89,0,0,1-6.73,8.91h0l-6.73.94a7.9,7.9,0,0,1-8.91-6.74h0l-4.21-30.35a7.9,7.9,0,0,1,6.74-8.91l6.73-.93a7.9,7.9,0,0,1,8.91,6.74l1.71,12.39L105,141.91l-6.59-4.36,9.19-13.9a7.88,7.88,0,0,1,5.5-3.47Z" style="fill:#191210"/><path id="Path_100" data-name="Path 100" d="M143.79,123.89l1.09,7.82-5.68.79,2,14.71,5.68-.79.18,1.23-.63-1.05.46-.18.17,1.23-.63-1.05.76,1.27-1-1.09.24-.18.75,1.27-1-1.09.37.4-.43-.33.07-.07.36.4-.43-.33h0l.23.17-.25-.13,0,0,.22.17-.25-.13,1.26.68H146l.16-.68,1.26.68h-.68l-.73.1v-.1h.74l-.73.1h0l-2.35-16.89,1.2-.16-1,.6-.17-.43,1.2-.17-1,.6,1.22-.72-1,1-.17-.24,1.22-.72-1,1,.35-.33-.29.39-.06-.06.35-.33-.29.39.53-.71-.28.83-.25-.12.53-.71-.28.83.48-1.4v1.49l-.48-.09.48-1.4v.83l.09.65h-.09v-.66l.09.65h0l-1.09-7.82-1.07-7.82a15.72,15.72,0,0,1,2.06-.14,14.45,14.45,0,0,1,8.82,3,14.39,14.39,0,0,1,5.68,9.67l2.35,16.88h0a15.72,15.72,0,0,1,.13,2.06,14.55,14.55,0,0,1-3,8.77h0a14.92,14.92,0,0,1-4.25,3.86,14.63,14.63,0,0,1-5.46,1.89l-13.5,1.87a7.89,7.89,0,0,1-8.91-6.73h0l-4.2-30.34A7.89,7.89,0,0,1,129.2,118h0l13.5-1.87h0Zm3.27,23.62,7.83-1.09A12,12,0,0,1,155,148a11.21,11.21,0,0,1-2.27,6.74h0a11.13,11.13,0,0,1-7.5,4.4h0l-3.38.47a7.89,7.89,0,0,1-8.91-6.73h0l-3.27-23.59a7.9,7.9,0,0,1,6.74-8.9l3.38-.47h0a12.18,12.18,0,0,1,1.6-.12,11.31,11.31,0,0,1,6.72,2.25h0a11.18,11.18,0,0,1,4.44,7.48h0l2.34,16.89h0l-7.82,1.09-7.82,1.08-2.34-16.88h0l4.56-.63-3.94,2.36a4.67,4.67,0,0,1-.62-1.73l4.56-.63-3.94,2.36,3.82-2.29-2.66,3.59a4.64,4.64,0,0,1-1.16-1.3l3.82-2.29-2.66,3.58h0l2.68-3.62v4.48a4.6,4.6,0,0,1-2.68-.86l2.68-3.62v.2l.59,4.24-.59,0v-4.28l.59,4.24h0l-3.38.47-1.09-7.82,7.83-1.09,3.27,23.59-7.83,1.08L139.68,144l3.38-.47h0l.62,4.45-2.28-3.86a4.53,4.53,0,0,1,1.66-.59l.62,4.45-2.28-3.87,2.27,3.87-3.59-2.7a4.72,4.72,0,0,1,1.32-1.16l2.27,3.86-3.59-2.7h0l3.64,2.73H139.2a4.7,4.7,0,0,1,.88-2.73l3.64,2.73h-.16l-4.32.6,0-.6h4.36l-4.32.6h0Z" style="fill:#191210"/><path id="Path_101" data-name="Path 101" d="M160,152.58l-1.08-7.83,6.74-.93,1.09,7.82-7.82,1.08-4.21-30.34,7.82-1.09,1.09,7.82-6.75.94-1.08-7.83,7.81-1.08,4.22,30.36L160,152.58l-1.08-7.82,1.08,7.82-7.82,1.08-4.21-30.35a7.9,7.9,0,0,1,6.74-8.9h0l6.75-.94a7.89,7.89,0,0,1,8.9,6.73h0l4.22,30.35a7.91,7.91,0,0,1-6.74,8.91l-6.75.93a7.9,7.9,0,0,1-8.91-6.74Z" style="fill:#191210"/><path id="Path_102" data-name="Path 102" d="M190.35,134.61l-4.43,6.53-21-14.26,4.43-6.53,1.08,7.82-1.53.21-1.08-7.82,7.82-1.08,4.21,30.35L172,150.91l-1.09-7.81,3.39-.48,1.08,7.83-7.82,1.08-2.34-16.85a7.89,7.89,0,0,1,12.25-7.62l21,14.25-4.43,6.54L193,140l1.55-.22,1.1,7.82-7.83,1.09-4.21-30.35,7.82-1.09,1.09,7.82-3.38.47L188,117.75l7.82-1.08,2.34,16.85a7.89,7.89,0,0,1-12.25,7.62l4.43-6.53-7.82,1.08-2.34-16.85a7.9,7.9,0,0,1,6.73-8.91l3.39-.47a7.89,7.89,0,0,1,8.9,6.73h0l4.21,30.35a7.89,7.89,0,0,1-6.72,8.91h0l-1.55.21a7.9,7.9,0,0,1-5.53-1.29l-21-14.25,4.43-6.54,7.82-1.08,2.34,16.85a7.9,7.9,0,0,1-6.74,8.91l-3.38.46a7.89,7.89,0,0,1-8.9-6.73h0L160,121.64a7.89,7.89,0,0,1,6.73-8.9h0l1.53-.21a7.9,7.9,0,0,1,5.51,1.28l21,14.26-4.43,6.54-7.82,1.08Z" style="fill:#191210"/><path id="Path_103" data-name="Path 103" d="M199.1,147.16,198,139.33,214.87,137l1.09,7.82-7.83,1.08-.46-3.38,7.82-1.08,1.08,7.81-10.12,1.4a7.88,7.88,0,0,1-8.9-6.73h0l-1.4-10.12a7.89,7.89,0,0,1,6.74-8.9l6.76-.94,1.09,7.82-7.82,1.09-.47-3.36,7.82-1.08,1.09,7.82-6.77.93a7.88,7.88,0,0,1-8.9-6.73h0l-1.4-10.12a7.88,7.88,0,0,1,6.73-8.9h0l10.12-1.4,1.09,7.82-7.83,1.08-.46-3.38,7.82-1.08,1.08,7.82-9,1.25,3.13,22.53-7.83,1.08L198,139.33l1.08,7.82-7.82,1.09-4.2-30.35a7.89,7.89,0,0,1,6.73-8.91h0l16.85-2.34a7.91,7.91,0,0,1,8.91,6.74l.47,3.39a7.9,7.9,0,0,1-6.74,8.9L211,126l.32,2.3-7.82,1.08-1.09-7.82,6.77-.94a7.88,7.88,0,0,1,8.9,6.73h0l.47,3.35a7.9,7.9,0,0,1-6.73,8.91h0l-6.77.94L204,132.73l7.82-1.09.32,2.3,2.3-.32a7.9,7.9,0,0,1,8.9,6.74l.47,3.38a7.9,7.9,0,0,1-6.74,8.91L200.19,155a7.89,7.89,0,0,1-8.9-6.74Z" style="fill:#191210"/><path id="Path_104" data-name="Path 104" d="M235.75,124.31l-6.93-3.78.07-.14v0l.87.27h-.91l0-.27.87.27h.34l-1.23.17,0-.17h1.25l-1.23.17h0l-.26-1.83,1.2-.16-1,.6-.18-.44,1.2-.16-1,.6,1.22-.72-1,1-.17-.23,1.22-.72-1,1,.34-.3-.28.36-.06-.06.34-.3-.28.37h0l.24-.32-.2.35,0,0,.25-.32-.2.35.69-1.26v1.44l-.69-.18.69-1.26v.82l.08.61h-.08v-.62l.08.61h0l-5.68.79,3.12,22.53-7.82,1.09-1.08-7.83,6.73-.93,1.08,7.82-7.82,1.08L216.52,131a7.89,7.89,0,0,1,6.74-8.9l3.38-.47h0a10.27,10.27,0,0,1,1.57-.11,11.29,11.29,0,0,1,11.18,9.76h0l1.4,10.11-7.8,1.09-1.09-7.82,6.73-.94,1.09,7.82-7.82,1.09-1.66-12,4.47-.62-3.88,2.28a4.65,4.65,0,0,1-.59-1.66l4.47-.62-3.88,2.28,3.84-2.26L232,133.62a4.49,4.49,0,0,1-1.15-1.3l3.84-2.26L232,133.62h0l2.74-3.62v4.53a4.73,4.73,0,0,1-2.74-.9l2.74-3.63v.32l.58,4.17-.58,0v-4.21l.58,4.17h0l-3.35.46a7.9,7.9,0,0,1-2.17-15.64l.39-.08.2.66-.3-.61.1,0,.2.66-.3-.61,1.33,2.67-2.57-1.4a3.1,3.1,0,0,1,1.24-1.27l1.33,2.67-2.58-1.4,6.94,3.78,6.93,3.78a12.7,12.7,0,0,1-4.85,4.93,16.35,16.35,0,0,1-5.89,1.93,7.9,7.9,0,0,1-2.17-15.65l3.35-.46h0a11.87,11.87,0,0,1,1.58-.1,11.19,11.19,0,0,1,6.79,2.3h0a11.19,11.19,0,0,1,4.39,7.46l1.66,11.95a7.89,7.89,0,0,1-6.74,8.9h0l-6.73.93a7.89,7.89,0,0,1-8.91-6.72h0l-1.4-10.12,4.5-.62-3.9,2.31a4.62,4.62,0,0,1-.6-1.69l4.49-.62-3.9,2.31,3.83-2.27-2.67,3.57a4.38,4.38,0,0,1-1.16-1.3l3.83-2.26-2.67,3.57,2.71-3.62v4.49a4.65,4.65,0,0,1-2.7-.87l2.7-3.62V133l.58,4.23-.58,0V133l.58,4.23h0l-3.39.47-1.08-7.82,7.82-1.09,1.87,13.5a7.89,7.89,0,0,1-6.73,8.91h0l-6.73.93a7.89,7.89,0,0,1-8.9-6.72h0l-4.2-30.36a7.89,7.89,0,0,1,6.73-8.91h0l13.5-1.87h0a15.76,15.76,0,0,1,2.07-.14,14.52,14.52,0,0,1,8.8,3h0a15.13,15.13,0,0,1,3.81,4.24,14.58,14.58,0,0,1,1.87,5.42l.26,1.84v0a14.38,14.38,0,0,1,.13,2,15.54,15.54,0,0,1-2,7.45Zm-5.57-2.09,7.82-1.07a11.57,11.57,0,0,1,.11,1.56,11.22,11.22,0,0,1-2.32,6.8h0a11.18,11.18,0,0,1-7.44,4.38h0l-3.38.47a7.89,7.89,0,0,1-8.91-6.73h0l-1.4-10.12a7.88,7.88,0,0,1,6.73-8.9h0l3.38-.47h0a13.81,13.81,0,0,1,1.57-.11,11.28,11.28,0,0,1,11.18,9.74h0l.47,3.38h0l-7.83,1.08-7.82,1.08-.47-3.38h0l4.57-.63-4,2.37a4.78,4.78,0,0,1-.62-1.74l4.57-.63-4,2.37,3.84-2.3-2.67,3.6a4.68,4.68,0,0,1-1.17-1.3l3.84-2.3-2.67,3.6,2.68-3.62v4.48a4.75,4.75,0,0,1-2.68-.86l2.68-3.62v.23l.58,4.21-.58,0v-4.25l.58,4.21h0l-3.38.47-1.09-7.82,7.83-1.09,1.4,10.12-7.82,1.08-1.09-7.81,3.39-.48h0l.64,4.52-2.34-3.91a4.51,4.51,0,0,1,1.7-.61l.63,4.52-2.33-3.91,2.24,3.75-3.5-2.65a4.56,4.56,0,0,1,1.26-1.1l2.25,3.75-3.5-2.65h0l3.62,2.74h-4.51a4.63,4.63,0,0,1,.9-2.74l3.62,2.74h-.2l-4.28.59,0-.59h4.32l-4.28.59h0Z" style="fill:#191210"/><path id="Path_105" data-name="Path 105" d="M159.6,119l-7-8c-1.84-2.11-6.17-2.28-8,0-3.75,4.76-7,6.23-12.31,8.55.17,3.3.11,3.73-.16,1.3a17.43,17.43,0,0,0-1.08-2.37c-1.18-2.3-4-3.1-6.38-2.59-5.3,1.15-10.35,5.55-14.88,8.38l8.28,3.37-4-14.07c-1.13-4-6.46-5.61-9.42-2.49s-6.18,6.48-9.31,9.68q4.42.58,8.86,1.14c-3.65-6.74-7-19.75-16.11-20.2a5.5,5.5,0,0,0-4.87,2.79C76,119.66,98.07,135.4,111,137.18c4.82.67,10.63-.63,12.22-6,2.6-8.66-8.54-12.71-14.2-15.53l-2.85,10.51a14.44,14.44,0,0,1,9.36,1q-1-3.85-2-7.71c-2.9,4.57-7.83,6.63-11.8,10.06-3.67,3.19-5.92,7.07-9,10.88l8.85,1.14a114.83,114.83,0,0,0-8.24-11.72c-3.2-4-9.57-.49-9.64,4a163.91,163.91,0,0,0,.89,19.31l10.52-2.85q-1-3.49-2.29-1.12l-5.48-1.45,1.77,1.47c5.55,4.6,13.57-3.34,8-8-10.88-9-18.56,5.11-11.71,14.77,2.86,4.05,11.16,3.29,10.5-2.84A163.81,163.81,0,0,1,95,133.86c-3.2,1.34-6.41,2.66-9.62,4a93.94,93.94,0,0,1,6.49,9.44c1.71,2.81,6.51,4.07,8.85,1.14,4.21-5.24,7.86-10,13.41-14a32.6,32.6,0,0,0,9.12-9.27c1.49-2.35.71-6.54-2-7.72-5.13-2.21-9.39-3.21-15-2.55-5,.58-8.41,7.74-2.84,10.51l7.66,3.81q1.23-5.53-5.07-5.81c-2.44-1.3-14.91-9-12.85-13.22L88.17,113c-1.49-.07,5.74,13.45,6.37,14.61a5.71,5.71,0,0,0,8.86,1.14q4.69-4.8,9.3-9.68l-9.42-2.48,4,14.06a5.7,5.7,0,0,0,7,3.89,5.42,5.42,0,0,0,1.24-.52c3.5-2.18,8.12-6.35,12.19-7.24l-6.36-2.59c1.69,3.32,3.8,7.2,10.23,6.85,8.38-.46,16-5.65,21-12h-8l7,8c4.78,5.48,12.73-2.52,8-8" style="fill:#191210"/><path id="Path_106" data-name="Path 106" d="M87.19,139.31a25,25,0,0,0-1.85,8.35,5.6,5.6,0,0,0,4.14,5.43l2.59.41-3.94-6.94c-.55,1.75-1.09,3.48-1.64,5.22l10.31,1.35c-1-5.1-2-10.39-4.55-15-2.87-5.3-8.07-7.32-11.33-12-1.13,2.77-2.25,5.53-3.38,8.29,5.73-1.53,17.31-6.62,21.87-1.83,3,3.15,2.8,9.43,7.37,11.63,8.08,3.9,19.63-8.08,24.67-13L122,125.72a34.55,34.55,0,0,1-4.21,9.93l10.51,2.85-1.68-14.88c-.8-7-11.26-7.45-11.29,0,0,9,.39,18,1.23,27l11.07-1.5c-.84-4.1-1.82-8.15-3-12.19-1.65-5.91-11.64-5-11.07,1.5a32.92,32.92,0,0,0,3,11.32c1.47,3.3,6.58,3.58,8.86,1.14,2.42-2.59,4.72-5.2,7-7.94l-9.62-4q.4,6.4.83,12.83c.48,7.33,10.57,7.17,11.28,0a16.33,16.33,0,0,0,.11-5.08c-.29-5.14-7.9-8.24-10.51-2.84-2.38,4.92-2.42,8.23.09,13.12l8.85-6.84c-5-4.8-11.34-13.73-19-14-4.58-.17-9.91,3.1-9.51,8.22.26,3.31,3.44,6.84,7.14,5.44l.31-.11c2.84-1.08,4.81-3.78,3.94-6.95l-.07-.24c-1.94-7-12.83-4-10.88,3l.07.25,3.94-6.93-.31.11,7.14,5.44c.35,4.45-.18,4.74,3.31,8.1l5.9,5.69c4.7,4.53,11.76-1.18,8.86-6.84l-.09-1.73-10.51-2.85a16,16,0,0,1-.11,5.08H134.9q-.42-6.42-.83-12.83c-.29-4.39-6.27-8.06-9.64-4-2.25,2.73-4.55,5.35-7,7.94l8.86,1.14-1.42-5.63L113.82,140c1.13,4,2.11,8.08,3,12.19,1.26,6.14,11.67,4.88,11.08-1.5-.84-9-1.25-18-1.22-27H115.35q.86,7.44,1.69,14.88c.6,5.33,7.37,8,10.51,2.85a44.69,44.69,0,0,0,5.35-12.63c1.39-5.45-5.37-9.46-9.43-5.49s-9.45,9.45-15.34,10.69l5.49,1.45c-4.74-5-3.9-14.7-11.66-16.59s-19.84,2.74-27.42,4.77c-3.29.88-5.47,5.28-3.36,8.29,2.62,3.74,6.16,5.27,9.1,8.6,3.71,4.18,4.62,10.39,5.64,15.68.88,4.52,8.38,5.76,10.31,1.35A38.9,38.9,0,0,0,99,149.56c.64-2.71-.85-6.45-3.94-6.94l-2.59-.41,4.14,5.44,1.44-5.34c2.61-6.79-8.29-9.72-10.87-3" style="fill:#191210"/><path id="Path_107" data-name="Path 107" d="M191.66,117l-2.53.35a5.64,5.64,0,0,0-1.35,10.31h0a6.68,6.68,0,0,0,4.35.57l2.53-.36a5.57,5.57,0,0,0,3.37-2.58,5.8,5.8,0,0,0,.57-4.35,5.71,5.71,0,0,0-2.6-3.37,6.58,6.58,0,0,0-4.34-.57" style="fill:#191210"/><path id="Path_108" data-name="Path 108" d="M188.45,117.24a10.1,10.1,0,0,1-9.88-4.76q-4.12,3.19-8.28,6.37l9,5.26c4.39,2.57,9.38-1.65,8.29-6.37l-.41-1.76-8.28,6.37c5.62,3.32,13.38,10.15,20.32,10.46,5.48.23,8.54-4.39,12.71-7l-8.28-3.37a119.64,119.64,0,0,1,1.18,13.09c.19,4.65,6.18,7.75,9.63,4a49.86,49.86,0,0,0,9-13.43L213,123.27l.8,15.92c.18,3.78,4.84,7.68,8.48,4.87,2.59-2,5.25-4.55,8.28-5.89h-5.7c.55,1,1.1,1.93,1.64,2.9l6.94-6.94c-4.95-1.88-12.1-3.56-17.28-1.17l-3.39,1.38q-.52,10.93,5.64,3.59a39.41,39.41,0,0,1,10.48-4.39c7-2,4-12.87-3-10.88-6.82,1.94-23,7.4-22.55,16.78a7.75,7.75,0,0,0,5,6.6,9.52,9.52,0,0,0,4.53.32c2.09-.83,4.18-1.68,6.26-2.53A15.52,15.52,0,0,1,230.43,145c3.8,1.45,8.49-3.07,6.93-6.93-5.11-12.69-11-11.34-20.8-3.75l8.49,4.87-.8-15.92c-.25-5.1-8-8.3-10.51-2.85a38.18,38.18,0,0,1-7.27,11.15l9.63,4a149.55,149.55,0,0,0-1.59-16.09c-.54-3.62-5.47-5.1-8.28-3.37-3.5,2.16-3.92,3.45-8.09,3.27-4.8-.2-9.56-4.4-13.57-6.76-4.37-2.59-9.36,1.67-8.27,6.36.13.59.27,1.18.4,1.77l8.29-6.37-9-5.27c-4-2.35-10,1.6-8.29,6.38,3.4,9.76,11,12.2,20.76,13,7.23.62,7.19-10.66,0-11.28" style="fill:#191210"/><path id="Path_109" data-name="Path 109" d="M70.24,124.18a10.09,10.09,0,0,0-2.9,10.53c1,2.79,3.93,4.92,6.94,3.94,2.78-.9,5-3.94,3.94-6.93l-.18-.6c.1,1,.14,1.18.12.57,0-1-.32,1.33,0,.27s-.53,1.25-.07.2c.33-.49.23-.35-.31.4l.46-.41c2.29-1.89,2.1-6.05,0-8-2.43-2.23-5.54-2-8,0" style="fill:#191210"/><path id="Path_110" data-name="Path 110" d="M94.76,107.53c0,1.7-1.22,10.18-1.58,13.51-.48,4.1-5.2,3.41-5,1.51,0-1,.23-2.14.31-3.67-3.48,4.81-8,7.72-12.9,6.58-4.71-1-8.57-7.35-8.86-14-.37-9.43,1.78-15.87,4.87-20.22,5.53-7.85,12.5-7.77,15.55-6.49,1.56.72,4.23,4.74,4.43,6.65a19.45,19.45,0,0,1-4.4,11.32c-2.06,2.45-7.07-1.19-5.79-2.89,1.86-2.65,4.25-6.55,2.76-7.58-3.75-2.52-8.78,2.5-10.47,12.34-2.62,15.29,5.44,17.63,10.68,8.64-1.86.49-3.79.94-5.6,1.37s-1.3-5.56.58-6.4c3.44-.89,9.12-2.21,12.49-2.79a2.35,2.35,0,0,1,2.86,1.7,2.54,2.54,0,0,1,.07.47" style="fill:#84b9c1"/><path id="Path_111" data-name="Path 111" d="M121.53,100.07c-.54,3.29-3.16,5.94-5.11,7.5.37,6.85-3.7,14.68-11.77,14.33-11.71-.48-10.71-24.44,3.25-24.27,4.16,0,6.76,2.7,7.9,6.28a9.29,9.29,0,0,0,4.08-4.32c.47-1.29,2-1.32,1.65.48m-10.89,10.12c-3.09.54-6-.22-7.2-2.52-1.64,3.39-1,7.74,2.48,8.2,2.73-.55,4.32-3.06,4.71-5.68m-3.83-6.09c-.26,1.91,1.29,2.52,3.35,2.23-.09-2.39-2.22-3.44-3.35-2.23" style="fill:#84b9c1"/><path id="Path_112" data-name="Path 112" d="M132.07,106a36.24,36.24,0,0,1-2.6,8.2c-1.78,3.24-4,5.77-7.32,5.11-2.94-.52-4.37-3.72-4.1-8.5.37-3.62,3.16-28.71,3.66-31.47.2-1,2.42-1,3.81-.76s3.19,1,3.26,2.41c-.48,2.41-3.72,24.64-4.16,28.21-.68,4.83,1.3,5.56,3.28,0,.47-1.23.87-2.58,1.26-4,.6-1.54,3.11-.78,2.91.77" style="fill:#84b9c1"/><path id="Path_113" data-name="Path 113" d="M153.49,103a29.8,29.8,0,0,1-2.79,8.17c-1.77,3.29-3.81,5.45-7.17,5.27-1.94-.08-3-1.86-3.62-3.3-1.57,3.44-3.49,4.81-6.44,4.63s-5.18-2.73-4.8-8.46a71.82,71.82,0,0,1,.82-8.78c.94-7.62,9-8.85,11.36-4.62.89-5.86,1.76-11.83,2-13.27.14-1.07,2.42-1.1,3.81-.82s3.13,1,3.27,2.47c-.5,2.35-3.52,18.93-4.05,22.28-.8,4.79,1.22,5.45,3.2-.1.41-1.23.89-2.87,1.29-4.22.59-1.6,3.28-.86,3.08.75m-17.24-1.13c-.26,1.91-.6,4.18-1,6.17-.8,4.79,2.46,4.69,3.58.08.29-1.26.83-3.74,1-5v0c.76-4.27-2.75-5.47-3.62-1.2" style="fill:#84b9c1"/><path id="Path_114" data-name="Path 114" d="M169.87,100.86a49.28,49.28,0,0,1-2.68,8.1c-3.88,8.73-18.58,7.44-17.84-5.78.27-4,.89-6.74,2.51-9.37,3.14-4.41,10.8-4,12.14-2.38.9,1,1,4,.33,6.57-.87,3.46-3.08,8.62-8.22,8.69.28,4.12,7.3,4.14,9.58-2.67.41-1.23.87-2.58,1.21-3.92a1.58,1.58,0,0,1,3,.76m-14,.59c1.58.42,2.81-.39,3.54-2.72.7-2.09.59-3.77-.1-4-1.29,0-2.67,2.25-3.45,6.75" style="fill:#84b9c1"/><path id="Path_115" data-name="Path 115" d="M188.35,98.24a39,39,0,0,1-2.66,8.21c-1.72,3.22-3.86,6-7.05,4.9-2.64-.87-3.63-4.65-3.07-9.47l0,.12c-1.15,3.55-3.05,9.67-3.44,10.19-1.72,1.53-5.92.82-6.17-1.42-.18-3.43,2-19.9,2.06-21,1-1,5-.63,5.69,1.38-.15,1.84-1.35,9.26-1.6,10.82.63-1.79,3.18-10.39,3.94-12.55.38-1.05,1.64-1.63,3.09-1.77,2.07-.29,4.44.32,4.57,1.7-.23,1.32-2.59,10.43-2.9,12.46-.74,4.79,1.37,5.26,3.35-.34.41-1.23.87-2.58,1.2-4a1.58,1.58,0,0,1,3,.75" style="fill:#84b9c1"/><path id="Path_116" data-name="Path 116" d="M29.55,170.67l-4.21-30.35,13.5-1.87a6.84,6.84,0,0,1,7.67,5.8l2.34,16.88a6.86,6.86,0,0,1-5.8,7.67Zm6.26-4.32,3.39-.46a3.27,3.27,0,0,0,2.25-1.34,3.21,3.21,0,0,0,.66-2.48l-2.34-16.89A3.19,3.19,0,0,0,38.44,143a3.24,3.24,0,0,0-2.51-.66l-3.39.47Z" style="fill:#84b9c1"/><path id="Path_117" data-name="Path 117" d="M62.57,135.15l6.74-.93,3.27,23.62a6.88,6.88,0,0,1-5.8,7.67l-6.76.93a6.84,6.84,0,0,1-7.67-5.8L49.07,137l6.74-.93,3.28,23.62a3.41,3.41,0,0,0,6.76-.94Z" style="fill:#84b9c1"/><path id="Path_118" data-name="Path 118" d="M96.31,154.55q.5,6.8-5.8,7.67l-6.76.94a6.85,6.85,0,0,1-7.67-5.8l-2.34-16.89a6.6,6.6,0,0,1,1.3-5,6.43,6.43,0,0,1,4.5-2.67l6.77-.94q6.34-.88,7.67,5.8l-3.39.47c-.57-2.2-1.85-3.16-3.82-2.88l-3.38.46A3.29,3.29,0,0,0,81.15,137a3.23,3.23,0,0,0-.68,2.5l2.35,16.89a3.42,3.42,0,0,0,3.84,2.88l3.39-.47c2-.27,2.94-1.55,2.88-3.81Z" style="fill:#84b9c1"/><path id="Path_119" data-name="Path 119" d="M100.74,160.8l-4.2-30.36,6.73-.93,1.72,12.4,9.19-13.9,6-.83-11.39,17,15.6,13.3-6.76,1-11.76-10.39,1.64,11.78Z" style="fill:#84b9c1"/><path id="Path_120" data-name="Path 120" d="M134.5,156.12l-4.21-30.36,13.5-1.87a6.85,6.85,0,0,1,7.67,5.8l2.34,16.89a6.86,6.86,0,0,1-5.8,7.67Zm6.26-4.32,3.39-.47A3.25,3.25,0,0,0,146.4,150a3.19,3.19,0,0,0,.66-2.49l-2.34-16.88a3.19,3.19,0,0,0-1.33-2.23,3.32,3.32,0,0,0-2.51-.66l-3.39.47Z" style="fill:#84b9c1"/><rect id="Rectangle_219" data-name="Rectangle 219" x="157.83" y="121.62" width="6.81" height="30.64" transform="translate(-17.28 23.44) rotate(-7.89)" style="fill:#84b9c1"/><path id="Path_121" data-name="Path 121" d="M172,150.91l-4.21-30.35,1.54-.21,21,14.26L188,117.76l3.39-.47,4.2,30.35-1.54.21-21-14.26,2.34,16.86Z" style="fill:#84b9c1"/><path id="Path_122" data-name="Path 122" d="M199.11,147.15,194.9,116.8l16.85-2.34.47,3.39-10.12,1.4,1.4,10.11,6.76-.94.47,3.35-6.77.95,1.4,10.11,10.12-1.4.47,3.38Z" style="fill:#84b9c1"/><path id="Path_123" data-name="Path 123" d="M219.48,144.33,215.27,114l13.5-1.88a6.86,6.86,0,0,1,7.67,5.8l.25,1.84a7.23,7.23,0,0,1-.94,4.57c-.84,1.54-2.48,2.48-4.9,2.81l3.35-.46a3.43,3.43,0,0,1,3.85,2.91l1.66,12-6.74.94-1.4-10.12a3.44,3.44,0,0,0-3.85-2.92l-3.38.47,1.87,13.5Zm4.4-17.79,3.38-.47a3.45,3.45,0,0,0,2.91-3.85l-.46-3.38a3.45,3.45,0,0,0-3.85-2.88l-3.39.46Z" style="fill:#84b9c1"/></g></g></g></g></svg>